<svg width="144" height="44" viewBox="0 0 144 44" fill="none" xmlns="http://www.w3.org/2000/svg">
<rect width="144" height="44" rx="8" fill="white"/>
<path d="M28.4304 12.5482C26.4085 13.2496 24.6649 14.5809 23.4556 16.3464C22.2463 18.112 21.6351 20.2189 21.7117 22.3575C21.7883 24.4962 22.5487 26.5539 23.8812 28.2285C25.2137 29.903 27.0481 31.1061 29.1149 31.6611C30.7905 32.0934 32.546 32.1124 34.2306 31.7164C35.7567 31.3736 37.1676 30.6404 38.3251 29.5885C39.5299 28.4603 40.4043 27.0251 40.8545 25.4371C41.3438 23.7103 41.4309 21.8943 41.109 20.1285H31.6996V24.0317H37.1489C37.04 24.6543 36.8066 25.2484 36.4627 25.7787C36.1189 26.3089 35.6715 26.7643 35.1475 27.1176C34.4821 27.5578 33.732 27.8539 32.9454 27.9871C32.1564 28.1338 31.3472 28.1338 30.5582 27.9871C29.7586 27.8218 29.0022 27.4917 28.3371 27.018C27.2687 26.2617 26.4664 25.1872 26.0448 23.9479C25.6161 22.6854 25.6161 21.3167 26.0448 20.0542C26.3449 19.1693 26.841 18.3635 27.4961 17.6971C28.2457 16.9205 29.1948 16.3654 30.2391 16.0927C31.2835 15.8199 32.3828 15.8401 33.4165 16.151C34.2239 16.3989 34.9623 16.832 35.5728 17.4157C36.1872 16.8045 36.8006 16.1916 37.4129 15.5772C37.7291 15.2468 38.0737 14.9322 38.3852 14.5939C37.4533 13.7267 36.3596 13.052 35.1665 12.6083C32.9939 11.8194 30.6167 11.7982 28.4304 12.5482Z" fill="white"/>
<path d="M28.4304 12.5482C30.6165 11.7977 32.9937 11.8183 35.1665 12.6067C36.3598 13.0534 37.4531 13.7314 38.3836 14.6018C38.0674 14.9401 37.7339 15.2563 37.4114 15.5851C36.798 16.1974 36.1851 16.8076 35.5728 17.4157C34.9623 16.832 34.2239 16.3989 33.4165 16.151C32.3832 15.839 31.2839 15.8177 30.2392 16.0893C29.1946 16.3609 28.2449 16.915 27.4945 17.6908C26.8394 18.3572 26.3433 19.163 26.0432 20.0479L22.7661 17.5106C23.9391 15.1844 25.9701 13.4051 28.4304 12.5482Z" fill="#E33629"/>
<path d="M21.8966 20.0242C22.0727 19.1512 22.3652 18.3058 22.7661 17.5106L26.0432 20.0542C25.6145 21.3167 25.6145 22.6854 26.0432 23.9479C24.9514 24.7911 23.859 25.6384 22.7661 26.49C21.7624 24.4923 21.4564 22.2161 21.8966 20.0242Z" fill="#F8BD00"/>
<path d="M31.6996 20.127H41.109C41.4309 21.8927 41.3438 23.7087 40.8545 25.4356C40.4043 27.0235 39.5299 28.4587 38.3251 29.5869C37.2675 28.7617 36.2051 27.9428 35.1475 27.1176C35.6719 26.7639 36.1194 26.308 36.4633 25.7772C36.8072 25.2464 37.0404 24.6517 37.1489 24.0286H31.6996C31.698 22.7291 31.6996 21.428 31.6996 20.127Z" fill="#587DBD"/>
<path d="M22.7645 26.49C23.8574 25.6469 24.9498 24.7995 26.0417 23.9479C26.4641 25.1877 27.2675 26.2622 28.3371 27.018C29.0042 27.4895 29.7623 27.8169 30.563 27.9792C31.3519 28.1259 32.1612 28.1259 32.9501 27.9792C33.7367 27.846 34.4869 27.5499 35.1523 27.1097C36.2099 27.9349 37.2722 28.7538 38.3298 29.579C37.1725 30.6315 35.7616 31.3653 34.2354 31.7085C32.5508 32.1045 30.7952 32.0855 29.1196 31.6532C27.7944 31.2993 26.5565 30.6755 25.4836 29.8209C24.348 28.9193 23.4205 27.7831 22.7645 26.49Z" fill="#319F43"/>
<path d="M56.4964 28.192C55.611 28.192 54.795 28.0533 54.0484 27.776C53.3124 27.488 52.667 27.0827 52.1124 26.56C51.5684 26.0373 51.1417 25.424 50.8324 24.72C50.5337 24.016 50.3844 23.2427 50.3844 22.4C50.3844 21.5573 50.5337 20.784 50.8324 20.08C51.1417 19.376 51.5737 18.7627 52.1284 18.24C52.683 17.7173 53.3337 17.3173 54.0804 17.04C54.827 16.752 55.6484 16.608 56.5444 16.608C57.5364 16.608 58.427 16.7733 59.2164 17.104C60.0164 17.4347 60.6884 17.9147 61.2324 18.544L59.5684 20.08C59.163 19.6533 58.7204 19.3387 58.2404 19.136C57.7604 18.9227 57.2377 18.816 56.6724 18.816C56.1284 18.816 55.6324 18.9013 55.1844 19.072C54.7364 19.2427 54.347 19.488 54.0164 19.808C53.6964 20.128 53.4457 20.5067 53.2644 20.944C53.0937 21.3813 53.0084 21.8667 53.0084 22.4C53.0084 22.9227 53.0937 23.4027 53.2644 23.84C53.4457 24.2773 53.6964 24.6613 54.0164 24.992C54.347 25.312 54.731 25.5573 55.1684 25.728C55.6164 25.8987 56.107 25.984 56.6404 25.984C57.1524 25.984 57.6484 25.904 58.1284 25.744C58.619 25.5733 59.0937 25.2907 59.5524 24.896L61.0244 26.768C60.4164 27.2267 59.707 27.5787 58.8964 27.824C58.0964 28.0693 57.2964 28.192 56.4964 28.192ZM58.6564 26.432V22.224H61.0244V26.768L58.6564 26.432ZM68.8721 28.192C67.9868 28.192 67.1655 28.048 66.4081 27.76C65.6615 27.472 65.0108 27.0667 64.4561 26.544C63.9121 26.0213 63.4855 25.408 63.1761 24.704C62.8775 24 62.7281 23.232 62.7281 22.4C62.7281 21.568 62.8775 20.8 63.1761 20.096C63.4855 19.392 63.9175 18.7787 64.4721 18.256C65.0268 17.7333 65.6775 17.328 66.4241 17.04C67.1708 16.752 67.9815 16.608 68.8561 16.608C69.7415 16.608 70.5521 16.752 71.2881 17.04C72.0348 17.328 72.6801 17.7333 73.2241 18.256C73.7788 18.7787 74.2108 19.392 74.5201 20.096C74.8295 20.7893 74.9841 21.5573 74.9841 22.4C74.9841 23.232 74.8295 24.0053 74.5201 24.72C74.2108 25.424 73.7788 26.0373 73.2241 26.56C72.6801 27.072 72.0348 27.472 71.2881 27.76C70.5521 28.048 69.7468 28.192 68.8721 28.192ZM68.8561 25.984C69.3575 25.984 69.8161 25.8987 70.2321 25.728C70.6588 25.5573 71.0321 25.312 71.3521 24.992C71.6721 24.672 71.9175 24.2933 72.0881 23.856C72.2695 23.4187 72.3601 22.9333 72.3601 22.4C72.3601 21.8667 72.2695 21.3813 72.0881 20.944C71.9175 20.5067 71.6721 20.128 71.3521 19.808C71.0428 19.488 70.6748 19.2427 70.2481 19.072C69.8215 18.9013 69.3575 18.816 68.8561 18.816C68.3548 18.816 67.8908 18.9013 67.4641 19.072C67.0481 19.2427 66.6801 19.488 66.3601 19.808C66.0401 20.128 65.7895 20.5067 65.6081 20.944C65.4375 21.3813 65.3521 21.8667 65.3521 22.4C65.3521 22.9227 65.4375 23.408 65.6081 23.856C65.7895 24.2933 66.0348 24.672 66.3441 24.992C66.6641 25.312 67.0375 25.5573 67.4641 25.728C67.8908 25.8987 68.3548 25.984 68.8561 25.984ZM82.3721 28.192C81.4868 28.192 80.6655 28.048 79.9081 27.76C79.1615 27.472 78.5108 27.0667 77.9561 26.544C77.4121 26.0213 76.9855 25.408 76.6761 24.704C76.3775 24 76.2281 23.232 76.2281 22.4C76.2281 21.568 76.3775 20.8 76.6761 20.096C76.9855 19.392 77.4175 18.7787 77.9721 18.256C78.5268 17.7333 79.1775 17.328 79.9241 17.04C80.6708 16.752 81.4815 16.608 82.3561 16.608C83.2415 16.608 84.0521 16.752 84.7881 17.04C85.5348 17.328 86.1801 17.7333 86.7241 18.256C87.2788 18.7787 87.7108 19.392 88.0201 20.096C88.3295 20.7893 88.4841 21.5573 88.4841 22.4C88.4841 23.232 88.3295 24.0053 88.0201 24.72C87.7108 25.424 87.2788 26.0373 86.7241 26.56C86.1801 27.072 85.5348 27.472 84.7881 27.76C84.0521 28.048 83.2468 28.192 82.3721 28.192ZM82.3561 25.984C82.8575 25.984 83.3161 25.8987 83.7321 25.728C84.1588 25.5573 84.5321 25.312 84.8521 24.992C85.1721 24.672 85.4175 24.2933 85.5881 23.856C85.7695 23.4187 85.8601 22.9333 85.8601 22.4C85.8601 21.8667 85.7695 21.3813 85.5881 20.944C85.4175 20.5067 85.1721 20.128 84.8521 19.808C84.5428 19.488 84.1748 19.2427 83.7481 19.072C83.3215 18.9013 82.8575 18.816 82.3561 18.816C81.8548 18.816 81.3908 18.9013 80.9641 19.072C80.5481 19.2427 80.1801 19.488 79.8601 19.808C79.5401 20.128 79.2895 20.5067 79.1081 20.944C78.9375 21.3813 78.8521 21.8667 78.8521 22.4C78.8521 22.9227 78.9375 23.408 79.1081 23.856C79.2895 24.2933 79.5348 24.672 79.8441 24.992C80.1641 25.312 80.5375 25.5573 80.9641 25.728C81.3908 25.8987 81.8548 25.984 82.3561 25.984ZM95.8401 28.192C94.9548 28.192 94.1388 28.0533 93.3921 27.776C92.6561 27.488 92.0108 27.0827 91.4561 26.56C90.9121 26.0373 90.4855 25.424 90.1761 24.72C89.8775 24.016 89.7281 23.2427 89.7281 22.4C89.7281 21.5573 89.8775 20.784 90.1761 20.08C90.4855 19.376 90.9175 18.7627 91.4721 18.24C92.0268 17.7173 92.6775 17.3173 93.4241 17.04C94.1708 16.752 94.9921 16.608 95.8881 16.608C96.8801 16.608 97.7708 16.7733 98.5601 17.104C99.3601 17.4347 100.032 17.9147 100.576 18.544L98.9121 20.08C98.5068 19.6533 98.0641 19.3387 97.5841 19.136C97.1041 18.9227 96.5815 18.816 96.0161 18.816C95.4721 18.816 94.9761 18.9013 94.5281 19.072C94.0801 19.2427 93.6908 19.488 93.3601 19.808C93.0401 20.128 92.7895 20.5067 92.6081 20.944C92.4375 21.3813 92.3521 21.8667 92.3521 22.4C92.3521 22.9227 92.4375 23.4027 92.6081 23.84C92.7895 24.2773 93.0401 24.6613 93.3601 24.992C93.6908 25.312 94.0748 25.5573 94.5121 25.728C94.9601 25.8987 95.4508 25.984 95.9841 25.984C96.4961 25.984 96.9921 25.904 97.4721 25.744C97.9628 25.5733 98.4375 25.2907 98.8961 24.896L100.368 26.768C99.7601 27.2267 99.0508 27.5787 98.2401 27.824C97.4401 28.0693 96.6401 28.192 95.8401 28.192ZM98.0001 26.432V22.224H100.368V26.768L98.0001 26.432ZM102.776 28V16.8H105.368V25.888H110.984V28H102.776ZM114.816 21.312H120.208V23.328H114.816V21.312ZM115.008 25.92H121.104V28H112.432V16.8H120.896V18.88H115.008V25.92Z" fill="#636567"/>
</svg>
