<svg width="296" height="137" viewBox="0 0 296 137" fill="none" xmlns="http://www.w3.org/2000/svg">
<g clip-path="url(#clip0_40000536_5988)">
<path d="M193.278 52.2825C195.429 52.9479 196.659 55.2623 195.789 57.3609C192.609 65.0313 187.181 71.5748 180.193 76.0791C172.055 81.3243 162.335 83.4595 152.779 82.1009C143.224 80.7424 134.462 75.9788 128.068 68.6675C121.675 61.356 118.069 51.9763 117.901 42.2156C117.733 32.4549 121.012 22.9535 127.15 15.4209C133.287 7.88809 141.88 2.81817 151.382 1.12297C160.885 -0.572221 170.673 1.21858 178.987 6.17328C186.126 10.4279 191.776 16.7758 195.219 24.3295C196.161 26.3959 195.012 28.7524 192.885 29.4932C190.758 30.2342 188.463 29.0748 187.47 27.0331C184.694 21.3266 180.32 16.5321 174.853 13.2739C168.21 9.31514 160.389 7.88431 152.797 9.23875C145.204 10.5932 138.339 14.6441 133.435 20.6628C128.531 26.6815 125.911 34.2729 126.045 42.0717C126.18 49.8705 129.06 57.3649 134.169 63.2067C139.277 69.0486 146.278 72.8545 153.913 73.9402C161.548 75.0257 169.314 73.3195 175.817 69.1286C181.168 65.6794 185.374 60.7334 187.951 54.9323C188.874 52.8568 191.127 51.6172 193.278 52.2825Z" fill="white"/>
<path fill-rule="evenodd" clip-rule="evenodd" d="M132.872 46.0633L105.832 79.5453C104.535 81.1508 103.099 81.3023 101.523 79.9996L99.2969 78.1596C97.7209 76.8568 97.5813 75.4026 98.8779 73.797L137.688 25.7412C138.413 24.7804 139.203 23.8772 140.059 23.0326C142.369 20.7347 145.102 18.9599 148.237 17.6988C151.373 16.4377 154.756 15.8119 158.369 15.8119C161.981 15.8119 165.365 16.4377 168.501 17.6988C171.636 18.9599 174.387 20.7347 176.734 23.0326C179.081 25.3305 180.934 28.0395 182.3 31.1688C183.666 34.3074 184.344 37.7075 184.344 41.3972C184.344 45.087 183.666 48.59 182.3 51.7194C180.934 54.8579 179.081 57.5668 176.734 59.8648C174.387 62.1627 171.646 63.9561 168.501 65.2452C165.365 66.5343 161.981 67.1883 158.369 67.1883C154.756 67.1883 151.373 66.5437 148.237 65.2452C145.102 63.9469 142.369 62.1627 140.059 59.8648C137.739 57.5668 135.905 54.8579 134.539 51.7194C133.761 49.9359 133.205 48.0494 132.872 46.0633ZM143.149 48.5246C142.259 46.3574 141.819 43.9848 141.819 41.3972C141.819 38.8752 142.259 36.5492 143.149 34.4194C144.038 32.2897 145.221 30.4494 146.715 28.8989C148.21 27.3482 149.952 26.1338 151.951 25.2651C153.95 24.3963 156.086 23.9574 158.369 23.9574C160.652 23.9574 162.788 24.3963 164.787 25.2651C166.786 26.1338 168.546 27.3482 170.069 28.8989C171.59 30.4494 172.782 32.2897 173.635 34.4194C174.488 36.5492 174.919 38.8098 174.919 41.3972C174.919 43.9848 174.488 46.3574 173.635 48.5246C172.782 50.6917 171.59 52.5507 170.069 54.1014C168.546 55.6519 166.777 56.8663 164.787 57.735C162.798 58.6038 160.652 59.0427 158.369 59.0427C156.086 59.0427 153.95 58.6038 151.951 57.735C149.952 56.8663 148.201 55.6519 146.715 54.1014C145.221 52.5507 144.038 50.6917 143.149 48.5246Z" fill="white"/>
<path d="M193.712 45.8381C196.08 45.8381 198 43.8959 198 41.5001C198 39.1043 196.08 37.1621 193.712 37.1621C191.344 37.1621 189.425 39.1043 189.425 41.5001C189.425 43.8959 191.344 45.8381 193.712 45.8381Z" fill="white"/>
<path d="M87.9174 108.591C87.9174 107.94 88.2513 107.615 88.919 107.615H89.7713C90.439 107.615 90.7729 107.94 90.7729 108.591V110.308C90.7729 110.464 90.767 110.613 90.7582 110.752C90.7465 110.892 90.7318 111.009 90.7114 111.109C90.6908 111.229 90.6821 111.337 90.6821 111.434H90.7436C90.9048 110.941 91.1333 110.459 91.4261 109.985C91.7188 109.512 92.0675 109.093 92.4741 108.728C92.8786 108.363 93.3293 108.066 93.8275 107.841C94.3221 107.615 94.8643 107.501 95.4526 107.501C96.1003 107.501 96.4252 107.826 96.4252 108.477V109.307C96.4252 109.957 96.0591 110.282 95.3296 110.282C94.6009 110.282 93.9267 110.464 93.3705 110.829C92.8144 111.195 92.3483 111.662 91.9738 112.235C91.5986 112.809 91.3206 113.465 91.1389 114.203C90.9572 114.942 90.8664 115.678 90.8664 116.408V121.615C90.8664 122.266 90.5327 122.591 89.865 122.591H88.922C88.2542 122.591 87.9204 122.266 87.9204 121.615V108.591H87.9174Z" fill="white"/>
<path d="M97.1546 115.07C97.1546 113.947 97.3712 112.906 97.8072 111.947C98.2439 110.992 98.8294 110.162 99.5707 109.463C100.309 108.762 101.181 108.22 102.183 107.835C103.184 107.45 104.265 107.259 105.419 107.259C106.573 107.259 107.654 107.45 108.655 107.835C109.657 108.22 110.535 108.762 111.285 109.463C112.035 110.165 112.626 110.992 113.062 111.947C113.499 112.906 113.716 113.944 113.716 115.07C113.716 116.197 113.499 117.266 113.062 118.222C112.626 119.18 112.035 120.007 111.285 120.709C110.535 121.41 109.66 121.958 108.655 122.351C107.654 122.745 106.573 122.944 105.419 122.944C104.265 122.944 103.184 122.748 102.183 122.351C101.181 121.955 100.309 121.41 99.5707 120.709C98.8294 120.007 98.2439 119.18 97.8072 118.222C97.3712 117.266 97.1546 116.214 97.1546 115.07ZM100.132 115.07C100.132 115.86 100.274 116.585 100.557 117.246C100.842 117.908 101.22 118.475 101.697 118.949C102.171 119.422 102.73 119.793 103.369 120.058C104.007 120.323 104.69 120.458 105.419 120.458C106.148 120.458 106.834 120.323 107.469 120.058C108.104 119.793 108.67 119.422 109.156 118.949C109.642 118.475 110.023 117.908 110.295 117.246C110.567 116.585 110.705 115.86 110.705 115.07C110.705 114.28 110.567 113.59 110.295 112.94C110.023 112.29 109.642 111.728 109.156 111.254C108.67 110.781 108.107 110.41 107.469 110.145C106.831 109.88 106.148 109.746 105.419 109.746C104.69 109.746 104.007 109.88 103.369 110.145C102.73 110.41 102.174 110.781 101.697 111.254C101.22 111.728 100.842 112.29 100.557 112.94C100.274 113.59 100.132 114.3 100.132 115.07Z" fill="white"/>
<path d="M151.73 108.591C151.73 107.94 152.064 107.615 152.731 107.615H153.584C154.251 107.615 154.585 107.94 154.585 108.591V109.922C154.585 110.119 154.565 110.316 154.524 110.516C154.503 110.596 154.494 110.684 154.494 110.781H154.556C154.696 110.464 154.925 110.099 155.238 109.686C155.551 109.272 155.953 108.887 156.439 108.531C156.925 108.174 157.493 107.875 158.141 107.627C158.788 107.381 159.537 107.256 160.39 107.256C162.214 107.256 163.544 107.735 164.384 108.69C165.225 109.649 165.647 111.083 165.647 112.997V121.607C165.647 122.257 165.313 122.582 164.645 122.582H163.702C163.034 122.582 162.7 122.257 162.7 121.607V113.647C162.7 113.114 162.665 112.62 162.595 112.167C162.524 111.713 162.387 111.32 162.185 110.983C161.983 110.65 161.687 110.382 161.304 110.185C160.919 109.988 160.422 109.888 159.816 109.888C159.066 109.888 158.378 110.031 157.748 110.316C157.121 110.601 156.58 110.992 156.123 111.485C155.666 111.979 155.312 112.566 155.06 113.245C154.804 113.927 154.679 114.651 154.679 115.421V121.607C154.679 122.257 154.345 122.582 153.678 122.582H152.734C152.066 122.582 151.732 122.257 151.732 121.607V108.591H151.73Z" fill="white"/>
<path d="M169.688 108.591C169.688 107.94 170.022 107.615 170.69 107.615H171.542C172.21 107.615 172.544 107.94 172.544 108.591V109.922C172.544 110.119 172.523 110.316 172.482 110.516C172.462 110.596 172.453 110.684 172.453 110.781H172.514C172.655 110.464 172.883 110.099 173.197 109.686C173.51 109.272 173.911 108.887 174.397 108.531C174.884 108.174 175.452 107.875 176.099 107.627C176.746 107.381 177.496 107.256 178.348 107.256C180.173 107.256 181.502 107.735 182.343 108.69C183.183 109.649 183.605 111.083 183.605 112.997V121.607C183.605 122.257 183.271 122.582 182.603 122.582H181.66C180.993 122.582 180.659 122.257 180.659 121.607V113.647C180.659 113.114 180.624 112.62 180.553 112.167C180.483 111.713 180.345 111.32 180.143 110.983C179.941 110.65 179.646 110.382 179.262 110.185C178.878 109.988 178.38 109.888 177.774 109.888C177.024 109.888 176.336 110.031 175.707 110.316C175.08 110.601 174.538 110.992 174.081 111.485C173.625 111.979 173.27 112.566 173.018 113.245C172.763 113.927 172.637 114.651 172.637 115.421V121.607C172.637 122.257 172.303 122.582 171.636 122.582H170.693C170.025 122.582 169.691 122.257 169.691 121.607V108.591H169.688Z" fill="white"/>
<path d="M186.674 115.099C186.674 113.915 186.87 112.84 187.266 111.873C187.661 110.906 188.197 110.082 188.876 109.403C189.556 108.722 190.364 108.194 191.307 107.821C192.25 107.447 193.267 107.259 194.362 107.259C195.457 107.259 196.356 107.436 197.188 107.792C198.016 108.149 198.711 108.639 199.27 109.272C199.827 109.903 200.251 110.653 200.547 111.522C200.84 112.389 200.986 113.348 200.986 114.392C200.986 114.668 200.889 114.905 200.697 115.102C200.503 115.298 200.257 115.398 199.952 115.398H189.682C189.723 116.208 189.895 116.927 190.197 117.557C190.502 118.187 190.897 118.721 191.383 119.154C191.869 119.588 192.42 119.913 193.038 120.13C193.656 120.346 194.309 120.455 194.997 120.455C195.85 120.455 196.588 120.321 197.214 120.055C197.841 119.79 198.327 119.528 198.672 119.271C199.282 118.955 199.736 119.063 200.04 119.596L200.313 120.041C200.474 120.298 200.53 120.54 200.48 120.766C200.43 120.994 200.272 121.185 200.008 121.342C199.785 121.498 199.502 121.672 199.156 121.861C198.81 122.049 198.421 122.22 197.984 122.38C197.548 122.537 197.062 122.671 196.526 122.779C195.99 122.887 195.416 122.942 194.81 122.942C193.594 122.942 192.49 122.739 191.498 122.334C190.505 121.929 189.65 121.379 188.929 120.677C188.209 119.978 187.652 119.148 187.257 118.193C186.862 117.238 186.665 116.205 186.665 115.102L186.674 115.099ZM198.037 113.502C197.996 112.181 197.615 111.183 196.898 110.513C196.177 109.843 195.314 109.506 194.3 109.506C193.167 109.506 192.189 109.857 191.369 110.556C190.549 111.257 190.028 112.238 189.805 113.499H198.04L198.037 113.502Z" fill="white"/>
<path d="M203.203 115.099C203.203 113.995 203.405 112.963 203.813 112.007C204.216 111.052 204.785 110.222 205.514 109.52C206.243 108.822 207.11 108.268 208.112 107.863C209.114 107.458 210.215 107.256 211.41 107.256C212.056 107.256 212.645 107.31 213.172 107.419C213.7 107.527 214.174 107.661 214.602 107.818C215.026 107.975 215.395 108.149 215.711 108.337C216.025 108.525 216.283 108.696 216.488 108.856C216.751 109.013 216.891 109.212 216.912 109.449C216.933 109.686 216.851 109.934 216.669 110.188L216.365 110.633C216.04 111.126 215.586 111.206 214.997 110.869C214.672 110.653 214.221 110.41 213.644 110.145C213.067 109.88 212.373 109.746 211.562 109.746C210.751 109.746 210.077 109.88 209.421 110.145C208.762 110.41 208.193 110.781 207.719 111.254C207.242 111.728 206.873 112.29 206.609 112.94C206.345 113.59 206.214 114.3 206.214 115.07C206.214 115.84 206.345 116.55 206.609 117.201C206.873 117.851 207.247 118.418 207.734 118.903C208.22 119.388 208.791 119.767 209.45 120.044C210.109 120.321 210.832 120.458 211.623 120.458C212.555 120.458 213.351 120.301 214.007 119.984C214.666 119.668 215.178 119.374 215.542 119.097C216.11 118.741 216.564 118.832 216.91 119.362L217.152 119.807C217.478 120.341 217.384 120.774 216.88 121.111C216.657 121.287 216.379 121.481 216.045 121.687C215.711 121.895 215.316 122.092 214.859 122.28C214.403 122.468 213.887 122.625 213.31 122.753C212.733 122.882 212.1 122.944 211.412 122.944C210.197 122.944 209.087 122.748 208.085 122.351C207.084 121.955 206.22 121.41 205.502 120.708C204.782 120.007 204.219 119.18 203.815 118.222C203.411 117.266 203.206 116.225 203.206 115.099H203.203Z" fill="white"/>
<path d="M221.071 110.099H220.008C219.361 110.099 219.036 109.774 219.036 109.124V108.739C219.036 108.089 219.369 107.764 220.037 107.764H221.133V104.475C221.133 103.825 221.467 103.5 222.134 103.5H223.016C223.683 103.5 224.017 103.825 224.017 104.475V107.761H226.691C227.359 107.761 227.693 108.086 227.693 108.736V109.121C227.693 109.771 227.368 110.096 226.72 110.096H224.017V116.756C224.017 117.466 224.119 118.039 224.322 118.473C224.524 118.906 224.773 119.243 225.066 119.479C225.358 119.716 225.675 119.879 226.009 119.967C226.343 120.055 226.653 120.11 226.937 120.13C227.341 120.169 227.619 120.258 227.772 120.395C227.924 120.532 228 120.768 228 121.105V121.727C228 122.377 227.596 122.702 226.785 122.702C225.974 122.702 225.286 122.594 224.597 122.377C223.908 122.16 223.305 121.824 222.79 121.37C222.275 120.917 221.859 120.343 221.546 119.653C221.232 118.963 221.074 118.145 221.074 117.198V110.096L221.071 110.099Z" fill="white"/>
<path fill-rule="evenodd" clip-rule="evenodd" d="M68.6531 111.953C68.2167 112.908 68 113.949 68 115.073C68 115.118 68.0003 115.164 68.001 115.209H68V127.525C68 128.175 68.3338 128.5 69.0016 128.5H69.9446C70.6123 128.5 70.9462 128.175 70.9462 127.525V121.173C71.5621 121.658 72.257 122.052 73.0285 122.357C74.03 122.753 75.1107 122.95 76.2646 122.95C77.4185 122.95 78.4991 122.75 79.5007 122.357C80.5053 121.963 81.381 121.416 82.1307 120.714C82.8804 120.013 83.472 119.185 83.9083 118.227C84.3447 117.272 84.5614 116.202 84.5614 115.076C84.5614 113.949 84.3447 112.911 83.9083 111.953C83.472 110.995 82.8804 110.168 82.1307 109.466C81.381 108.765 80.5024 108.223 79.5007 107.838C78.4991 107.453 77.4185 107.262 76.2646 107.262C75.1107 107.262 74.03 107.453 73.0285 107.838C72.0269 108.223 71.1542 108.767 70.4161 109.466C69.6752 110.168 69.0895 110.998 68.6531 111.953ZM71.403 117.249C71.119 116.587 70.9784 115.863 70.9784 115.073C70.9784 114.303 71.119 113.593 71.403 112.943C71.6871 112.292 72.065 111.731 72.5423 111.257C73.0197 110.784 73.5761 110.413 74.2146 110.148C74.853 109.883 75.5354 109.748 76.2646 109.748C76.9938 109.748 77.6762 109.883 78.3146 110.148C78.9531 110.413 79.5154 110.784 80.0015 111.257C80.4877 111.731 80.8684 112.292 81.1408 112.943C81.4132 113.593 81.5508 114.283 81.5508 115.073C81.5508 115.863 81.4132 116.587 81.1408 117.249C80.8684 117.911 80.4877 118.478 80.0015 118.952C79.5154 119.425 78.9531 119.796 78.3146 120.061C77.6792 120.326 76.9938 120.46 76.2646 120.46C75.5354 120.46 74.853 120.326 74.2146 120.061C73.5761 119.796 73.0167 119.425 72.5423 118.952C72.065 118.478 71.6871 117.911 71.403 117.249Z" fill="white"/>
<path fill-rule="evenodd" clip-rule="evenodd" d="M115.965 115.099C115.965 113.995 116.167 112.963 116.574 112.007C116.978 111.052 117.547 110.222 118.276 109.52C119.005 108.822 119.872 108.268 120.873 107.863C121.875 107.458 122.976 107.256 124.171 107.256C124.818 107.256 125.407 107.31 125.934 107.419C126.461 107.527 126.936 107.661 127.363 107.818C127.788 107.975 128.157 108.149 128.473 108.337C128.786 108.525 129.044 108.696 129.249 108.856C129.513 109.013 129.653 109.212 129.674 109.449C129.695 109.686 129.612 109.934 129.431 110.188L129.126 110.633C128.801 111.126 128.347 111.206 127.759 110.869C127.434 110.653 126.982 110.41 126.405 110.145C125.829 109.88 125.134 109.746 124.323 109.746C123.512 109.746 122.838 109.88 122.182 110.145C121.523 110.41 120.955 110.781 120.481 111.254C120.004 111.728 119.634 112.29 119.371 112.94C119.107 113.59 118.975 114.3 118.975 115.07C118.975 115.84 119.107 116.55 119.371 117.201C119.634 117.851 120.009 118.418 120.496 118.903C120.982 119.388 121.553 119.767 122.212 120.044C122.871 120.321 123.594 120.458 124.385 120.458C125.316 120.458 126.112 120.301 126.769 119.984C127.036 119.855 127.28 119.731 127.499 119.609C127.498 119.606 127.497 119.605 127.497 119.605C127.514 119.593 127.538 119.576 127.569 119.555C127.952 119.288 129.363 118.307 130.456 116.662C131.237 115.657 131.522 114.777 131.823 113.848C132.035 113.195 132.255 112.518 132.66 111.757C133.086 110.881 133.642 110.115 134.333 109.463C135.071 108.762 135.944 108.22 136.946 107.835C137.948 107.45 139.028 107.259 140.182 107.259C141.336 107.259 142.416 107.45 143.418 107.835C144.42 108.22 145.298 108.762 146.045 109.463C146.794 110.165 147.386 110.992 147.823 111.947C148.259 112.906 148.475 113.944 148.475 115.07C148.475 116.197 148.259 117.266 147.823 118.222C147.386 119.18 146.794 120.007 146.045 120.709C145.295 121.41 144.42 121.958 143.418 122.351C142.416 122.745 141.336 122.944 140.182 122.944C139.028 122.944 137.948 122.748 136.946 122.351C135.944 121.955 135.071 121.41 134.333 120.709C133.963 120.358 133.631 119.976 133.338 119.561C132.535 118.61 132.104 119.011 131.209 119.846C130.678 120.341 129.983 120.989 128.95 121.598C128.903 121.627 128.856 121.657 128.807 121.687C128.473 121.895 128.078 122.092 127.621 122.28C127.164 122.468 126.648 122.625 126.072 122.753C125.495 122.882 124.862 122.944 124.174 122.944C122.959 122.944 121.848 122.748 120.847 122.351C119.845 121.958 118.982 121.41 118.264 120.708C117.544 120.007 116.981 119.18 116.577 118.222C116.173 117.266 115.968 116.225 115.968 115.099H115.965ZM134.896 115.07C134.896 115.86 135.036 116.585 135.32 117.246C135.604 117.908 135.982 118.475 136.459 118.949C136.934 119.422 137.493 119.793 138.132 120.058C138.77 120.323 139.453 120.458 140.182 120.458C140.911 120.458 141.596 120.323 142.232 120.058C142.867 119.793 143.432 119.422 143.919 118.949C144.405 118.475 144.786 117.908 145.058 117.246C145.331 116.585 145.468 115.86 145.468 115.07C145.468 114.28 145.331 113.59 145.058 112.94C144.786 112.29 144.405 111.728 143.919 111.254C143.432 110.781 142.871 110.41 142.232 110.145C141.593 109.88 140.911 109.746 140.182 109.746C139.453 109.746 138.77 109.88 138.132 110.145C137.493 110.41 136.937 110.781 136.459 111.254C135.982 111.728 135.604 112.29 135.32 112.94C135.036 113.59 134.896 114.3 134.896 115.07Z" fill="white"/>
</g>
<defs>
<clipPath id="clip0_40000536_5988">
<rect width="296" height="136" fill="white" transform="translate(0 0.5)"/>
</clipPath>
</defs>
</svg>
