<svg width="144" height="44" viewBox="0 0 144 44" fill="none" xmlns="http://www.w3.org/2000/svg">
<rect width="144" height="44" rx="8" fill="white"/>
<path d="M41.344 16.7627L42.0809 16.46C42.6793 16.2227 43.4527 15.9803 44.3656 16.1336C46.236 16.4482 47.5257 17.458 48.2942 18.7972C48.5909 19.3135 48.3516 19.994 47.7977 20.2106C46.0243 20.9039 45.6672 23.2579 47.1548 24.4468C47.3853 24.6318 47.6484 24.7732 47.9293 24.8652C48.4416 25.0333 48.7304 25.602 48.5623 26.1144C48.1251 27.4417 47.496 28.6672 46.7513 29.6563C46.0154 30.6335 45.1173 31.4445 44.1174 31.8411C43.4646 32.0983 42.7643 32.0023 42.0947 31.8362L41.6971 31.7303L41.1066 31.5592C40.8386 31.4811 40.5626 31.4138 40.2916 31.4138C40.0196 31.4138 39.7447 31.4811 39.4766 31.5592L38.8862 31.7303L38.4886 31.8362C37.8189 32.0023 37.1177 32.0993 36.4659 31.8411C35.2068 31.3426 34.0961 30.1795 33.2564 28.8076C32.346 27.2975 31.7461 25.621 31.4918 23.8761C31.2673 22.3391 31.389 20.6132 32.1001 19.1533C32.832 17.6489 34.1732 16.4778 36.2176 16.1336C37.0485 15.9942 37.7626 16.1811 38.3343 16.3958L38.6616 16.5243L39.2393 16.7627C39.6349 16.918 39.9464 17.009 40.2916 17.009C40.6358 17.009 40.9484 16.918 41.344 16.7627Z" fill="#555555"/>
<path d="M40.0622 12.8885C41.0275 11.9222 42.5101 11.8391 42.8593 12.1892C43.2094 12.5384 43.1263 14.021 42.16 14.9863C41.1947 15.9517 39.712 16.0347 39.3629 15.6856C39.0128 15.3365 39.0958 13.8538 40.0622 12.8885Z" fill="#555555"/>
<path d="M56.5834 28L61.5754 16.8H64.1354L69.1434 28H66.4234L62.3274 18.112H63.3514L59.2394 28H56.5834ZM59.0794 25.6L59.7674 23.632H65.5274L66.2314 25.6H59.0794ZM70.3054 28V16.8H75.1534C76.1561 16.8 77.0201 16.9653 77.7454 17.296C78.4708 17.616 79.0308 18.08 79.4254 18.688C79.8201 19.296 80.0174 20.0213 80.0174 20.864C80.0174 21.696 79.8201 22.416 79.4254 23.024C79.0308 23.632 78.4708 24.1013 77.7454 24.432C77.0201 24.752 76.1561 24.912 75.1534 24.912H71.7454L72.8974 23.744V28H70.3054ZM72.8974 24.032L71.7454 22.8H75.0094C75.8094 22.8 76.4068 22.6293 76.8014 22.288C77.1961 21.9467 77.3934 21.472 77.3934 20.864C77.3934 20.2453 77.1961 19.7653 76.8014 19.424C76.4068 19.0827 75.8094 18.912 75.0094 18.912H71.7454L72.8974 17.68V24.032ZM81.8679 28V16.8H86.7159C87.7186 16.8 88.5826 16.9653 89.3079 17.296C90.0333 17.616 90.5933 18.08 90.9879 18.688C91.3826 19.296 91.5799 20.0213 91.5799 20.864C91.5799 21.696 91.3826 22.416 90.9879 23.024C90.5933 23.632 90.0333 24.1013 89.3079 24.432C88.5826 24.752 87.7186 24.912 86.7159 24.912H83.3079L84.4599 23.744V28H81.8679ZM84.4599 24.032L83.3079 22.8H86.5719C87.3719 22.8 87.9693 22.6293 88.3639 22.288C88.7586 21.9467 88.9559 21.472 88.9559 20.864C88.9559 20.2453 88.7586 19.7653 88.3639 19.424C87.9693 19.0827 87.3719 18.912 86.5719 18.912H83.3079L84.4599 17.68V24.032ZM93.4304 28V16.8H96.0224V25.888H101.638V28H93.4304ZM105.471 21.312H110.863V23.328H105.471V21.312ZM105.663 25.92H111.759V28H103.087V16.8H111.551V18.88H105.663V25.92Z" fill="#636567"/>
</svg>
