<svg width="386" height="154" viewBox="0 0 386 154" fill="none" xmlns="http://www.w3.org/2000/svg">
<path d="M180.076 97.4622C184.142 98.7038 186.466 103.022 184.821 106.938C178.81 121.25 168.553 133.459 155.345 141.863C139.965 151.65 121.592 155.634 103.533 153.099C85.4738 150.564 68.913 141.676 56.8288 128.034C44.7451 114.392 37.931 96.8911 37.6128 78.679C37.2946 60.4669 43.4927 42.7388 55.0926 28.6839C66.6926 14.6288 82.9332 5.16912 100.893 2.00612C118.852 -1.15686 137.352 2.18452 153.066 11.4293C166.559 19.3678 177.236 31.2121 183.744 45.306C185.524 49.1617 183.353 53.5586 179.333 54.9408C175.314 56.3234 170.976 54.1601 169.099 50.3506C163.852 39.7031 155.585 30.7573 145.252 24.6781C132.697 17.2915 117.916 14.6218 103.566 17.149C89.2161 19.6762 76.2402 27.2346 66.9718 38.4646C57.7033 49.6946 52.7511 63.859 53.0054 78.4105C53.2598 92.962 58.7041 106.945 68.3591 117.845C78.0141 128.745 91.2464 135.847 105.676 137.872C120.105 139.898 134.784 136.714 147.073 128.895C157.188 122.459 165.136 113.23 170.008 102.406C171.751 98.5339 176.011 96.221 180.076 97.4622Z" fill="#1175E4"/>
<path fill-rule="evenodd" clip-rule="evenodd" d="M65.9075 85.8582L14.8016 148.331C12.3509 151.326 9.63628 151.609 6.65773 149.178L2.45114 145.745C-0.527432 143.314 -0.791391 140.601 1.65931 137.605L75.0099 47.9402C76.3796 46.1474 77.8729 44.4622 79.4911 42.8863C83.858 38.5987 89.0222 35.2872 94.9486 32.9342C100.875 30.5812 107.269 29.4135 114.097 29.4135C120.925 29.4135 127.32 30.5812 133.246 32.9342C139.173 35.2872 144.372 38.5987 148.808 42.8863C153.244 47.1739 156.745 52.2285 159.327 58.0672C161.909 63.9235 163.191 70.2675 163.191 77.152C163.191 84.0365 161.909 90.5726 159.327 96.4116C156.745 102.268 153.244 107.322 148.808 111.61C144.372 115.897 139.19 119.244 133.246 121.649C127.32 124.054 120.925 125.274 114.097 125.274C107.269 125.274 100.875 124.072 94.9486 121.649C89.0222 119.226 83.858 115.897 79.4911 111.61C75.1066 107.322 71.641 102.268 69.059 96.4116C67.5874 93.084 66.538 89.564 65.9075 85.8582ZM85.3309 90.4505C83.6499 86.407 82.8182 81.9801 82.8182 77.152C82.8182 72.4463 83.6499 68.1063 85.3309 64.1324C87.0119 60.1588 89.2472 56.7249 92.0718 53.832C94.8965 50.9386 98.1891 48.6726 101.967 47.0519C105.745 45.4308 109.783 44.6118 114.097 44.6118C118.412 44.6118 122.45 45.4308 126.228 47.0519C130.006 48.6726 133.333 50.9386 136.21 53.832C139.086 56.7249 141.339 60.1588 142.95 64.1324C144.562 68.1063 145.376 72.3243 145.376 77.152C145.376 81.9801 144.562 86.407 142.95 90.4505C141.339 94.4941 139.086 97.9627 136.21 100.856C133.333 103.749 129.988 106.015 126.228 107.636C122.468 109.257 118.412 110.076 114.097 110.076C109.783 110.076 105.745 109.257 101.967 107.636C98.1891 106.015 94.8793 103.749 92.0718 100.856C89.2472 97.9627 87.0119 94.4941 85.3309 90.4505Z" fill="#1175E4"/>
<path d="M180.896 85.4381C185.372 85.4381 189 81.8142 189 77.344C189 72.8738 185.372 69.2499 180.896 69.2499C176.421 69.2499 172.792 72.8738 172.792 77.344C172.792 81.8142 176.421 85.4381 180.896 85.4381Z" fill="#1175E4"/>
<path d="M205.924 97.4622C201.858 98.7038 199.534 103.022 201.179 106.938C207.19 121.25 217.447 133.459 230.655 141.863C246.035 151.65 264.408 155.634 282.467 153.099C300.526 150.564 317.087 141.676 329.171 128.034C341.255 114.392 348.069 96.8911 348.387 78.679C348.705 60.4669 342.507 42.7388 330.907 28.6839C319.307 14.6288 303.067 5.16912 285.107 2.00612C267.148 -1.15686 248.648 2.18452 232.934 11.4293C219.441 19.3678 208.764 31.2121 202.256 45.306C200.476 49.1617 202.647 53.5586 206.667 54.9408C210.686 56.3234 215.024 54.1601 216.901 50.3506C222.148 39.7031 230.415 30.7573 240.748 24.6781C253.303 17.2915 268.084 14.6218 282.434 17.149C296.784 19.6762 309.76 27.2346 319.028 38.4646C328.297 49.6946 333.249 63.859 332.995 78.4105C332.74 92.962 327.296 106.945 317.641 117.845C307.986 128.745 294.754 135.847 280.324 137.872C265.895 139.898 251.216 136.714 238.927 128.895C228.812 122.459 220.864 113.23 215.992 102.406C214.249 98.5339 209.989 96.221 205.924 97.4622Z" fill="#1175E4"/>
<path fill-rule="evenodd" clip-rule="evenodd" d="M320.093 85.8582L371.198 148.331C373.649 151.326 376.364 151.609 379.342 149.178L383.549 145.745C386.527 143.314 386.791 140.601 384.341 137.605L310.99 47.9402C309.62 46.1474 308.127 44.4622 306.509 42.8863C302.142 38.5987 296.978 35.2872 291.051 32.9342C285.125 30.5812 278.731 29.4135 271.903 29.4135C265.075 29.4135 258.68 30.5812 252.754 32.9342C246.827 35.2872 241.628 38.5987 237.192 42.8863C232.756 47.1739 229.255 52.2285 226.673 58.0672C224.091 63.9235 222.809 70.2675 222.809 77.152C222.809 84.0365 224.091 90.5726 226.673 96.4116C229.255 102.268 232.756 107.322 237.192 111.61C241.628 115.897 246.81 119.244 252.754 121.649C258.68 124.054 265.075 125.274 271.903 125.274C278.731 125.274 285.125 124.072 291.051 121.649C296.978 119.226 302.142 115.897 306.509 111.61C310.893 107.322 314.359 102.268 316.941 96.4116C318.413 93.084 319.462 89.564 320.093 85.8582ZM300.669 90.4505C302.35 86.407 303.182 81.9801 303.182 77.152C303.182 72.4463 302.35 68.1063 300.669 64.1324C298.988 60.1588 296.753 56.7249 293.928 53.832C291.103 50.9386 287.811 48.6726 284.033 47.0519C280.255 45.4308 276.217 44.6118 271.903 44.6118C267.588 44.6118 263.55 45.4308 259.772 47.0519C255.994 48.6726 252.667 50.9386 249.79 53.832C246.914 56.7249 244.661 60.1588 243.05 64.1324C241.438 68.1063 240.624 72.3243 240.624 77.152C240.624 81.9801 241.438 86.407 243.05 90.4505C244.661 94.4941 246.914 97.9627 249.79 100.856C252.667 103.749 256.012 106.015 259.772 107.636C263.532 109.257 267.588 110.076 271.903 110.076C276.217 110.076 280.255 109.257 284.033 107.636C287.811 106.015 291.121 103.749 293.928 100.856C296.753 97.9627 298.988 94.4941 300.669 90.4505Z" fill="#1175E4"/>
<path d="M205.104 85.4381C200.628 85.4381 197 81.8142 197 77.344C197 72.8738 200.628 69.2499 205.104 69.2499C209.579 69.2499 213.208 72.8738 213.208 77.344C213.208 81.8142 209.579 85.4381 205.104 85.4381Z" fill="#1175E4"/>
</svg>
