<svg width="427" height="88" viewBox="0 0 427 88" fill="none" xmlns="http://www.w3.org/2000/svg">
<path d="M102.732 55.2313C105.051 55.941 106.377 58.4096 105.439 60.6479C102.01 68.8292 96.1577 75.8086 88.623 80.6128C79.8485 86.2074 69.3673 88.4848 59.0647 87.0358C48.762 85.5867 39.3142 80.5059 32.4203 72.7076C25.5266 64.9091 21.6393 54.9048 21.4578 44.494C21.2762 34.0832 24.8122 23.949 31.4298 15.9146C38.0475 7.88016 47.3126 2.47257 57.5584 0.664463C67.8041 -1.14363 78.3584 0.766443 87.3226 6.05113C95.0204 10.5892 101.112 17.3599 104.824 25.4166C105.84 27.6207 104.601 30.1341 102.308 30.9242C100.015 31.7146 97.5402 30.4779 96.4692 28.3002C93.4759 22.2137 88.7598 17.0999 82.8651 13.6247C75.7027 9.40225 67.2698 7.87612 59.0834 9.32078C50.897 10.7655 43.4944 15.0861 38.2068 21.5057C32.9192 27.9253 30.094 36.0222 30.2391 44.3405C30.3842 52.6587 33.4902 60.6523 38.9982 66.8831C44.5063 73.1141 52.0552 77.1735 60.2871 78.3315C68.5188 79.4893 76.8932 77.6695 83.904 73.1994C89.6741 69.5205 94.2088 64.2451 96.9882 58.0576C97.9826 55.8439 100.412 54.5218 102.732 55.2313Z" fill="white"/>
<path fill-rule="evenodd" clip-rule="evenodd" d="M37.5996 48.5979L8.44419 84.3099C7.04608 86.0224 5.49741 86.184 3.79818 84.7944L1.39835 82.8319C-0.300895 81.4424 -0.451481 79.8913 0.946622 78.1788L42.7925 26.9223C43.5739 25.8975 44.4258 24.9342 45.3489 24.0333C47.8402 21.5824 50.7863 19.6894 54.1673 18.3443C57.5483 16.9992 61.1963 16.3317 65.0915 16.3317C68.9865 16.3317 72.6347 16.9992 76.0157 18.3443C79.3967 19.6894 82.3627 21.5824 84.8935 24.0333C87.4242 26.4843 89.4213 29.3737 90.8944 32.7114C92.3674 36.0591 93.099 39.6856 93.099 43.6211C93.099 47.5566 92.3674 51.2929 90.8944 54.6307C89.4213 57.9782 87.4242 60.8676 84.8935 63.3186C82.3627 65.7696 79.4067 67.6825 76.0157 69.0574C72.6347 70.4324 68.9865 71.1299 65.0915 71.1299C61.1963 71.1299 57.5483 70.4424 54.1673 69.0574C50.7863 67.6726 47.8402 65.7696 45.3489 63.3186C42.8476 60.8676 40.8706 57.9782 39.3975 54.6307C38.558 52.7285 37.9593 50.7163 37.5996 48.5979ZM48.6805 51.2231C47.7215 48.9116 47.2471 46.381 47.2471 43.6211C47.2471 40.9311 47.7215 38.4502 48.6805 36.1785C49.6395 33.907 50.9147 31.9441 52.5261 30.2903C54.1376 28.6364 56.016 27.341 58.1712 26.4146C60.3265 25.4879 62.6299 25.0197 65.0915 25.0197C67.5531 25.0197 69.8566 25.4879 72.0118 26.4146C74.167 27.341 76.0651 28.6364 77.7063 30.2903C79.3473 31.9441 80.6325 33.907 81.5519 36.1785C82.4713 38.4502 82.936 40.8614 82.936 43.6211C82.936 46.381 82.4713 48.9116 81.5519 51.2231C80.6325 53.5346 79.3473 55.5174 77.7063 57.1714C76.0651 58.8251 74.1572 60.1205 72.0118 61.0469C69.8666 61.9736 67.5531 62.4418 65.0915 62.4418C62.6299 62.4418 60.3265 61.9736 58.1712 61.0469C56.016 60.1205 54.1278 58.8251 52.5261 57.1714C50.9147 55.5174 49.6395 53.5346 48.6805 51.2231Z" fill="white"/>
<path d="M103.2 48.3578C105.753 48.3578 107.823 46.2862 107.823 43.7309C107.823 41.1755 105.753 39.1039 103.2 39.1039C100.646 39.1039 98.5766 41.1755 98.5766 43.7309C98.5766 46.2862 100.646 48.3578 103.2 48.3578Z" fill="white"/>
<path d="M153.826 16.476C153.826 15.5989 154.262 15.1604 155.134 15.1604H156.246C157.118 15.1604 157.554 15.5989 157.554 16.476V18.7918C157.554 19.0033 157.546 19.2034 157.535 19.3919C157.52 19.5804 157.501 19.7381 157.474 19.8728C157.447 20.0343 157.436 20.1805 157.436 20.3113H157.516C157.726 19.6458 158.025 18.9957 158.407 18.3571C158.789 17.7186 159.244 17.153 159.775 16.6606C160.303 16.1683 160.892 15.7682 161.542 15.4643C162.188 15.1604 162.896 15.0065 163.664 15.0065C164.509 15.0065 164.933 15.4451 164.933 16.3221V17.4416C164.933 18.3186 164.455 18.7572 163.503 18.7572C162.552 18.7572 161.672 19.0033 160.945 19.4958C160.219 19.9882 159.611 20.6191 159.122 21.3923C158.632 22.1655 158.269 23.0503 158.032 24.0466C157.795 25.0429 157.676 26.0354 157.676 27.0202V34.0446C157.676 34.9216 157.241 35.3601 156.369 35.3601H155.138C154.266 35.3601 153.83 34.9216 153.83 34.0446V16.476H153.826Z" fill="white"/>
<path d="M165.886 25.216C165.886 23.7004 166.168 22.2963 166.738 21.0038C167.308 19.715 168.072 18.5956 169.04 17.6531C170.003 16.7068 171.143 15.9759 172.451 15.4566C173.758 14.9373 175.169 14.6795 176.675 14.6795C178.182 14.6795 179.593 14.9373 180.9 15.4566C182.208 15.9759 183.355 16.7068 184.333 17.6531C185.312 18.5995 186.085 19.715 186.654 21.0038C187.224 22.2963 187.507 23.6965 187.507 25.216C187.507 26.7356 187.224 28.1781 186.654 29.4668C186.085 30.7594 185.312 31.8749 184.333 32.8213C183.355 33.7676 182.212 34.5062 180.9 35.0371C179.593 35.5679 178.182 35.8372 176.675 35.8372C175.169 35.8372 173.758 35.5718 172.451 35.0371C171.143 34.5024 170.003 33.7676 169.04 32.8213C168.072 31.8749 167.308 30.7594 166.738 29.4668C166.168 28.1781 165.886 26.7586 165.886 25.216ZM169.773 25.216C169.773 26.2816 169.958 27.2587 170.328 28.1511C170.699 29.0437 171.193 29.8091 171.816 30.4478C172.435 31.0863 173.165 31.5865 173.999 31.9442C174.832 32.3019 175.723 32.4827 176.675 32.4827C177.627 32.4827 178.522 32.3019 179.351 31.9442C180.181 31.5865 180.919 31.0863 181.554 30.4478C182.189 29.8091 182.686 29.0437 183.041 28.1511C183.397 27.2587 183.576 26.2816 183.576 25.216C183.576 24.1505 183.397 23.2195 183.041 22.3424C182.686 21.4654 182.189 20.7076 181.554 20.0689C180.919 19.4304 180.185 18.9303 179.351 18.5725C178.518 18.2148 177.627 18.034 176.675 18.034C175.723 18.034 174.832 18.2148 173.999 18.5725C173.165 18.9303 172.439 19.4304 171.816 20.0689C171.193 20.7076 170.699 21.4654 170.328 22.3424C169.958 23.2195 169.773 24.1774 169.773 25.216Z" fill="white"/>
<path d="M237.135 16.476C237.135 15.5988 237.571 15.1604 238.443 15.1604H239.556C240.427 15.1604 240.863 15.5988 240.863 16.476V18.2724C240.863 18.5379 240.837 18.8033 240.783 19.0726C240.757 19.1803 240.745 19.2995 240.745 19.4303H240.825C241.008 19.0033 241.307 18.5109 241.716 17.9531C242.125 17.3954 242.649 16.8761 243.283 16.3952C243.918 15.9144 244.66 15.5104 245.505 15.1757C246.35 14.8449 247.329 14.6756 248.442 14.6756C250.823 14.6756 252.559 15.3219 253.657 16.6106C254.754 17.9031 255.305 19.8381 255.305 22.4193V34.033C255.305 34.91 254.869 35.3486 253.997 35.3486H252.766C251.894 35.3486 251.458 34.91 251.458 34.033V23.2964C251.458 22.5771 251.413 21.9116 251.32 21.2999C251.228 20.6882 251.049 20.1574 250.785 19.7035C250.521 19.2534 250.136 18.8918 249.635 18.6264C249.133 18.3609 248.484 18.2263 247.692 18.2263C246.713 18.2263 245.815 18.4186 244.993 18.8033C244.175 19.188 243.468 19.715 242.871 20.3805C242.275 21.046 241.812 21.8385 241.483 22.754C241.15 23.6734 240.986 24.6505 240.986 25.6891V34.033C240.986 34.91 240.55 35.3486 239.678 35.3486H238.447C237.575 35.3486 237.139 34.91 237.139 34.033V16.476H237.135Z" fill="white"/>
<path d="M260.581 16.476C260.581 15.5988 261.017 15.1604 261.889 15.1604H263.001C263.873 15.1604 264.309 15.5988 264.309 16.476V18.2724C264.309 18.5379 264.282 18.8033 264.229 19.0726C264.202 19.1803 264.19 19.2995 264.19 19.4303H264.271C264.454 19.0033 264.752 18.5109 265.162 17.9531C265.57 17.3954 266.094 16.8761 266.729 16.3952C267.364 15.9144 268.105 15.5104 268.951 15.1757C269.796 14.8449 270.774 14.6756 271.887 14.6756C274.269 14.6756 276.005 15.3219 277.102 16.6106C278.199 17.9031 278.75 19.8381 278.75 22.4193V34.033C278.75 34.91 278.314 35.3486 277.442 35.3486H276.211C275.34 35.3486 274.904 34.91 274.904 34.033V23.2964C274.904 22.5771 274.858 21.9116 274.766 21.2999C274.674 20.6882 274.494 20.1574 274.231 19.7035C273.967 19.2534 273.581 18.8918 273.079 18.6264C272.579 18.3609 271.929 18.2263 271.137 18.2263C270.159 18.2263 269.26 18.4186 268.438 18.8033C267.62 19.188 266.912 19.715 266.317 20.3805C265.72 21.046 265.257 21.8385 264.928 22.754C264.595 23.6734 264.431 24.6505 264.431 25.6891V34.033C264.431 34.91 263.995 35.3486 263.124 35.3486H261.893C261.021 35.3486 260.585 34.91 260.585 34.033V16.476H260.581Z" fill="white"/>
<path d="M282.756 25.2545C282.756 23.6581 283.013 22.2078 283.529 20.9038C284.045 19.5997 284.745 18.488 285.632 17.5724C286.519 16.653 287.574 15.9413 288.805 15.4373C290.036 14.9334 291.364 14.6795 292.793 14.6795C294.223 14.6795 295.397 14.918 296.483 15.3989C297.565 15.8797 298.471 16.5414 299.201 17.3954C299.928 18.2455 300.483 19.2573 300.868 20.4306C301.251 21.6 301.442 22.8925 301.442 24.3005C301.442 24.6736 301.315 24.9929 301.064 25.2584C300.811 25.5238 300.49 25.6584 300.092 25.6584H286.683C286.737 26.7509 286.962 27.7203 287.356 28.5705C287.754 29.4206 288.27 30.14 288.904 30.7247C289.539 31.3095 290.258 31.7479 291.065 32.0403C291.872 32.3327 292.725 32.4789 293.623 32.4789C294.736 32.4789 295.699 32.2981 296.517 31.9403C297.336 31.5825 297.97 31.2286 298.421 30.8824C299.216 30.4554 299.809 30.6016 300.207 31.321L300.563 31.9211C300.773 32.2673 300.846 32.5943 300.781 32.8982C300.715 33.2059 300.509 33.4636 300.165 33.6753C299.874 33.8868 299.504 34.1215 299.052 34.3754C298.601 34.6293 298.093 34.8601 297.523 35.0755C296.953 35.2871 296.319 35.4679 295.619 35.6141C294.919 35.7603 294.169 35.8333 293.379 35.8333C291.791 35.8333 290.35 35.5602 289.054 35.0139C287.758 34.4677 286.641 33.7253 285.701 32.7789C284.76 31.8364 284.033 30.717 283.518 29.4284C283.002 28.1397 282.745 26.7471 282.745 25.2584L282.756 25.2545ZM297.592 23.1003C297.538 21.3192 297.041 19.9728 296.104 19.0688C295.164 18.1648 294.036 17.7108 292.713 17.7108C291.233 17.7108 289.956 18.184 288.886 19.1265C287.815 20.0728 287.135 21.3961 286.844 23.0964H297.596L297.592 23.1003Z" fill="white"/>
<path d="M304.336 25.2545C304.336 23.7657 304.6 22.3732 305.132 21.0845C305.659 19.7958 306.401 18.6763 307.353 17.73C308.305 16.7876 309.436 16.0412 310.744 15.495C312.052 14.9488 313.49 14.6756 315.05 14.6756C315.894 14.6756 316.663 14.7487 317.351 14.8949C318.04 15.0411 318.659 15.2219 319.217 15.4334C319.771 15.6451 320.253 15.8797 320.666 16.1336C321.076 16.3875 321.412 16.6183 321.679 16.8337C322.023 17.0453 322.207 17.3145 322.234 17.6339C322.26 17.9531 322.154 18.2878 321.917 18.6302L321.519 19.2303C321.095 19.8958 320.502 20.0035 319.733 19.5496C319.309 19.2573 318.72 18.9303 317.967 18.5725C317.213 18.2147 316.308 18.0339 315.249 18.0339C314.19 18.0339 313.31 18.2147 312.454 18.5725C311.594 18.9303 310.851 19.4303 310.232 20.0689C309.609 20.7075 309.127 21.4653 308.783 22.3424C308.438 23.2195 308.267 24.1773 308.267 25.216C308.267 26.2546 308.438 27.2125 308.783 28.0896C309.127 28.9667 309.616 29.7322 310.251 30.3861C310.886 31.0401 311.631 31.5517 312.492 31.9248C313.352 32.2981 314.296 32.4827 315.329 32.4827C316.545 32.4827 317.585 32.2711 318.441 31.8441C319.301 31.4171 319.97 31.0208 320.444 30.6477C321.186 30.1669 321.779 30.29 322.23 31.0055L322.547 31.6056C322.972 32.3249 322.85 32.9097 322.192 33.3636C321.901 33.6021 321.538 33.8637 321.102 34.1407C320.666 34.4215 320.15 34.6869 319.553 34.9408C318.958 35.1947 318.284 35.4063 317.531 35.5794C316.777 35.7525 315.952 35.8372 315.053 35.8372C313.466 35.8372 312.018 35.5717 310.71 35.037C309.403 34.5023 308.274 33.7675 307.337 32.8212C306.397 31.8749 305.663 30.7593 305.135 29.4667C304.607 28.178 304.34 26.7739 304.34 25.2545H304.336Z" fill="white"/>
<path d="M327.663 18.511H326.275C325.43 18.511 325.006 18.0725 325.006 17.1953V16.676C325.006 15.799 325.441 15.3604 326.313 15.3604H327.744V10.925C327.744 10.0479 328.18 9.60938 329.051 9.60938H330.202C331.074 9.60938 331.51 10.0479 331.51 10.925V15.3566H335.001C335.872 15.3566 336.308 15.7951 336.308 16.6722V17.1915C336.308 18.0686 335.884 18.5071 335.038 18.5071H331.51V27.4895C331.51 28.4473 331.643 29.2206 331.908 29.8053C332.171 30.39 332.496 30.8439 332.878 31.1632C333.26 31.4826 333.674 31.7018 334.11 31.821C334.546 31.9403 334.951 32.0133 335.322 32.0403C335.849 32.0942 336.212 32.2134 336.411 32.398C336.61 32.5827 336.709 32.902 336.709 33.3559V34.1946C336.709 35.0716 336.182 35.5102 335.123 35.5102C334.064 35.5102 333.166 35.364 332.267 35.0716C331.368 34.7792 330.58 34.3254 329.907 33.7137C329.235 33.1021 328.691 32.3289 328.283 31.3979C327.873 30.467 327.667 29.3629 327.667 28.0858V18.5071L327.663 18.511Z" fill="white"/>
<path fill-rule="evenodd" clip-rule="evenodd" d="M128.676 21.0114C128.106 22.3001 127.823 23.7042 127.823 25.2198C127.823 25.2811 127.824 25.3422 127.825 25.4031H127.823V42.0152C127.823 42.8923 128.259 43.3309 129.131 43.3309H130.362C131.234 43.3309 131.67 42.8923 131.67 42.0152V33.448C132.474 34.1023 133.381 34.6329 134.388 35.0446C135.696 35.5793 137.107 35.8448 138.613 35.8448C140.119 35.8448 141.53 35.5755 142.838 35.0446C144.149 34.5138 145.293 33.7752 146.271 32.8289C147.25 31.8826 148.023 30.7669 148.592 29.4744C149.162 28.1858 149.445 26.7431 149.445 25.2237C149.445 23.7042 149.162 22.3039 148.592 21.0114C148.023 19.7189 147.25 18.6032 146.271 17.6569C145.293 16.7107 144.146 15.9797 142.838 15.4604C141.53 14.9411 140.119 14.6833 138.613 14.6833C137.107 14.6833 135.696 14.9411 134.388 15.4604C133.081 15.9797 131.941 16.7145 130.978 17.6569C130.01 18.6032 129.246 19.7227 128.676 21.0114ZM132.266 28.155C131.895 27.2625 131.712 26.2854 131.712 25.2198C131.712 24.1811 131.895 23.2234 132.266 22.3462C132.637 21.4691 133.13 20.7113 133.753 20.0728C134.377 19.4342 135.103 18.9341 135.937 18.5764C136.77 18.2185 137.661 18.0377 138.613 18.0377C139.565 18.0377 140.456 18.2185 141.289 18.5764C142.123 18.9341 142.857 19.4342 143.492 20.0728C144.126 20.7113 144.623 21.4691 144.979 22.3462C145.335 23.2234 145.514 24.1542 145.514 25.2198C145.514 26.2854 145.335 27.2625 144.979 28.155C144.623 29.0474 144.126 29.813 143.492 30.4515C142.857 31.0901 142.123 31.5902 141.289 31.948C140.46 32.3057 139.565 32.4865 138.613 32.4865C137.661 32.4865 136.77 32.3057 135.937 31.948C135.103 31.5902 134.373 31.0901 133.753 30.4515C133.13 29.813 132.637 29.0474 132.266 28.155Z" fill="white"/>
<path fill-rule="evenodd" clip-rule="evenodd" d="M190.443 25.2545C190.443 23.7657 190.707 22.3732 191.238 21.0845C191.766 19.7958 192.508 18.6763 193.46 17.73C194.412 16.7876 195.544 16.0412 196.851 15.495C198.159 14.9488 199.597 14.6756 201.156 14.6756C202.002 14.6756 202.77 14.7487 203.459 14.8949C204.146 15.0411 204.766 15.2219 205.324 15.4334C205.879 15.6451 206.36 15.8797 206.773 16.1336C207.182 16.3875 207.519 16.6183 207.786 16.8337C208.131 17.0453 208.314 17.3145 208.341 17.6339C208.368 17.9531 208.26 18.2878 208.023 18.6302L207.625 19.2303C207.201 19.8958 206.608 20.0035 205.84 19.5496C205.416 19.2573 204.827 18.9303 204.073 18.5725C203.321 18.2147 202.414 18.0339 201.355 18.0339C200.296 18.0339 199.417 18.2147 198.56 18.5725C197.7 18.9303 196.959 19.4303 196.339 20.0689C195.716 20.7075 195.234 21.4653 194.89 22.3424C194.546 23.2195 194.373 24.1773 194.373 25.216C194.373 26.2546 194.546 27.2125 194.89 28.0896C195.234 28.9667 195.723 29.7322 196.358 30.3861C196.993 31.0401 197.738 31.5517 198.599 31.9248C199.459 32.2981 200.403 32.4827 201.435 32.4827C202.651 32.4827 203.691 32.2711 204.548 31.8441C204.897 31.6706 205.215 31.5021 205.502 31.3382C205.5 31.3345 205.498 31.3326 205.498 31.3326C205.521 31.3162 205.552 31.2936 205.592 31.2648C206.093 30.9052 207.936 29.5825 209.361 27.3629C210.381 26.0081 210.754 24.8203 211.146 23.5679C211.424 22.6865 211.71 21.773 212.239 20.7467C212.796 19.5657 213.522 18.5324 214.424 17.6531C215.387 16.7068 216.527 15.9759 217.834 15.4566C219.142 14.9373 220.553 14.6795 222.06 14.6795C223.566 14.6795 224.977 14.9373 226.284 15.4566C227.592 15.9759 228.738 16.7068 229.714 17.6531C230.692 18.5995 231.465 19.715 232.035 21.0038C232.604 22.2963 232.887 23.6965 232.887 25.216C232.887 26.7356 232.604 28.1781 232.035 29.4668C231.465 30.7594 230.692 31.8749 229.714 32.8213C228.735 33.7676 227.592 34.5062 226.284 35.0371C224.977 35.5679 223.566 35.8372 222.06 35.8372C220.553 35.8372 219.142 35.5718 217.834 35.0371C216.527 34.5023 215.387 33.7676 214.424 32.8213C213.94 32.3482 213.507 31.8327 213.124 31.274C212.076 29.9905 211.514 30.5314 210.346 31.6574C209.652 32.3254 208.745 33.1993 207.396 34.0205C207.334 34.0602 207.272 34.1002 207.209 34.1407C206.773 34.4215 206.257 34.6869 205.661 34.9408C205.064 35.1947 204.391 35.4063 203.638 35.5794C202.885 35.7525 202.058 35.8372 201.16 35.8372C199.574 35.8372 198.124 35.5717 196.817 35.037C195.509 34.5061 194.382 33.7675 193.445 32.8212C192.504 31.8749 191.77 30.7593 191.242 29.4667C190.715 28.178 190.448 26.7739 190.448 25.2545H190.443ZM215.158 25.216C215.158 26.2816 215.341 27.2587 215.713 28.1511C216.083 29.0437 216.577 29.8091 217.2 30.4478C217.819 31.0863 218.55 31.5864 219.383 31.9442C220.216 32.3019 221.107 32.4827 222.06 32.4827C223.011 32.4827 223.906 32.3019 224.736 31.9442C225.565 31.5864 226.303 31.0863 226.938 30.4478C227.573 29.8091 228.07 29.0437 228.426 28.1511C228.781 27.2587 228.961 26.2816 228.961 25.216C228.961 24.1505 228.781 23.2195 228.426 22.3424C228.07 21.4654 227.573 20.7076 226.938 20.0689C226.303 19.4304 225.57 18.9303 224.736 18.5725C223.902 18.2148 223.011 18.034 222.06 18.034C221.107 18.034 220.216 18.2148 219.383 18.5725C218.55 18.9303 217.823 19.4304 217.2 20.0689C216.577 20.7076 216.083 21.4654 215.713 22.3424C215.341 23.2195 215.158 24.1774 215.158 25.216Z" fill="white"/>
<path d="M134.511 73.9476C133.669 73.9476 132.89 73.8089 132.175 73.5316C131.461 73.2436 130.842 72.8436 130.319 72.3316C129.797 71.8196 129.386 71.2169 129.087 70.5236C128.799 69.8302 128.655 69.0729 128.655 68.2516C128.655 67.4302 128.799 66.6729 129.087 65.9796C129.386 65.2862 129.797 64.6836 130.319 64.1716C130.853 63.6596 131.477 63.2649 132.191 62.9876C132.906 62.6996 133.685 62.5556 134.527 62.5556C135.338 62.5556 136.101 62.6942 136.815 62.9716C137.53 63.2382 138.133 63.6436 138.623 64.1876L137.871 64.9396C137.413 64.4702 136.906 64.1342 136.351 63.9316C135.797 63.7182 135.199 63.6116 134.559 63.6116C133.887 63.6116 133.263 63.7289 132.687 63.9636C132.111 64.1876 131.61 64.5129 131.183 64.9396C130.757 65.3556 130.421 65.8462 130.175 66.4116C129.941 66.9662 129.823 67.5796 129.823 68.2516C129.823 68.9236 129.941 69.5422 130.175 70.1076C130.421 70.6622 130.757 71.1529 131.183 71.5796C131.61 71.9956 132.111 72.3209 132.687 72.5556C133.263 72.7796 133.887 72.8916 134.559 72.8916C135.199 72.8916 135.797 72.7849 136.351 72.5716C136.906 72.3582 137.413 72.0169 137.871 71.5476L138.623 72.2996C138.133 72.8436 137.53 73.2542 136.815 73.5316C136.101 73.8089 135.333 73.9476 134.511 73.9476ZM143.956 73.9316C143.146 73.9316 142.415 73.7502 141.764 73.3876C141.124 73.0142 140.618 72.5076 140.244 71.8676C139.871 71.2169 139.684 70.4756 139.684 69.6436C139.684 68.8009 139.871 68.0596 140.244 67.4196C140.618 66.7796 141.124 66.2782 141.764 65.9156C142.404 65.5529 143.135 65.3716 143.956 65.3716C144.788 65.3716 145.524 65.5529 146.164 65.9156C146.815 66.2782 147.322 66.7796 147.684 67.4196C148.058 68.0596 148.244 68.8009 148.244 69.6436C148.244 70.4756 148.058 71.2169 147.684 71.8676C147.322 72.5076 146.815 73.0142 146.164 73.3876C145.514 73.7502 144.778 73.9316 143.956 73.9316ZM143.956 72.9236C144.564 72.9236 145.103 72.7902 145.572 72.5236C146.042 72.2462 146.41 71.8622 146.676 71.3716C146.954 70.8702 147.092 70.2942 147.092 69.6436C147.092 68.9822 146.954 68.4062 146.676 67.9156C146.41 67.4249 146.042 67.0462 145.572 66.7796C145.103 66.5022 144.57 66.3636 143.972 66.3636C143.375 66.3636 142.842 66.5022 142.372 66.7796C141.903 67.0462 141.53 67.4249 141.252 67.9156C140.975 68.4062 140.836 68.9822 140.836 69.6436C140.836 70.2942 140.975 70.8702 141.252 71.3716C141.53 71.8622 141.903 72.2462 142.372 72.5236C142.842 72.7902 143.37 72.9236 143.956 72.9236ZM154.851 65.3716C155.534 65.3716 156.131 65.5049 156.643 65.7716C157.166 66.0276 157.571 66.4222 157.859 66.9556C158.158 67.4889 158.307 68.1609 158.307 68.9716V73.8516H157.171V69.0836C157.171 68.1982 156.947 67.5316 156.499 67.0836C156.062 66.6249 155.443 66.3956 154.643 66.3956C154.046 66.3956 153.523 66.5182 153.075 66.7636C152.638 66.9982 152.297 67.3449 152.051 67.8036C151.817 68.2516 151.699 68.7956 151.699 69.4356V73.8516H150.563V65.4516H151.651V67.7556L151.475 67.3236C151.742 66.7156 152.169 66.2409 152.755 65.8996C153.342 65.5476 154.041 65.3716 154.851 65.3716ZM165.664 65.3716C166.347 65.3716 166.944 65.5049 167.456 65.7716C167.979 66.0276 168.384 66.4222 168.672 66.9556C168.971 67.4889 169.12 68.1609 169.12 68.9716V73.8516H167.984V69.0836C167.984 68.1982 167.76 67.5316 167.312 67.0836C166.875 66.6249 166.256 66.3956 165.456 66.3956C164.859 66.3956 164.336 66.5182 163.888 66.7636C163.451 66.9982 163.109 67.3449 162.864 67.8036C162.629 68.2516 162.512 68.7956 162.512 69.4356V73.8516H161.376V65.4516H162.464V67.7556L162.288 67.3236C162.555 66.7156 162.981 66.2409 163.568 65.8996C164.155 65.5476 164.853 65.3716 165.664 65.3716ZM175.756 73.9316C174.882 73.9316 174.114 73.7502 173.452 73.3876C172.791 73.0142 172.274 72.5076 171.9 71.8676C171.527 71.2169 171.34 70.4756 171.34 69.6436C171.34 68.8116 171.516 68.0756 171.868 67.4356C172.231 66.7956 172.722 66.2942 173.34 65.9316C173.97 65.5582 174.674 65.3716 175.452 65.3716C176.242 65.3716 176.94 65.5529 177.548 65.9156C178.167 66.2676 178.652 66.7689 179.004 67.4196C179.356 68.0596 179.532 68.8009 179.532 69.6436C179.532 69.6969 179.527 69.7556 179.516 69.8196C179.516 69.8729 179.516 69.9316 179.516 69.9956H172.204V69.1476H178.908L178.46 69.4836C178.46 68.8756 178.327 68.3369 178.06 67.8676C177.804 67.3876 177.452 67.0142 177.004 66.7476C176.556 66.4809 176.039 66.3476 175.452 66.3476C174.876 66.3476 174.359 66.4809 173.9 66.7476C173.442 67.0142 173.084 67.3876 172.828 67.8676C172.572 68.3476 172.444 68.8969 172.444 69.5156V69.6916C172.444 70.3316 172.583 70.8969 172.86 71.3876C173.148 71.8676 173.543 72.2462 174.044 72.5236C174.556 72.7902 175.138 72.9236 175.788 72.9236C176.3 72.9236 176.775 72.8329 177.212 72.6516C177.66 72.4702 178.044 72.1929 178.364 71.8196L179.004 72.5556C178.631 73.0036 178.162 73.3449 177.596 73.5796C177.042 73.8142 176.428 73.9316 175.756 73.9316ZM185.333 73.9316C184.501 73.9316 183.754 73.7502 183.093 73.3876C182.442 73.0142 181.93 72.5076 181.557 71.8676C181.183 71.2169 180.997 70.4756 180.997 69.6436C180.997 68.8009 181.183 68.0596 181.557 67.4196C181.93 66.7796 182.442 66.2782 183.093 65.9156C183.754 65.5529 184.501 65.3716 185.333 65.3716C186.047 65.3716 186.693 65.5102 187.269 65.7876C187.845 66.0649 188.298 66.4809 188.629 67.0356L187.781 67.6116C187.493 67.1849 187.135 66.8702 186.709 66.6676C186.282 66.4649 185.818 66.3636 185.317 66.3636C184.719 66.3636 184.181 66.5022 183.701 66.7796C183.221 67.0462 182.842 67.4249 182.565 67.9156C182.287 68.4062 182.149 68.9822 182.149 69.6436C182.149 70.3049 182.287 70.8809 182.565 71.3716C182.842 71.8622 183.221 72.2462 183.701 72.5236C184.181 72.7902 184.719 72.9236 185.317 72.9236C185.818 72.9236 186.282 72.8222 186.709 72.6196C187.135 72.4169 187.493 72.1076 187.781 71.6916L188.629 72.2676C188.298 72.8116 187.845 73.2276 187.269 73.5156C186.693 73.7929 186.047 73.9316 185.333 73.9316ZM193.61 73.9316C192.821 73.9316 192.213 73.7182 191.786 73.2916C191.359 72.8649 191.146 72.2622 191.146 71.4836V63.5956H192.282V71.4196C192.282 71.9102 192.405 72.2889 192.65 72.5556C192.906 72.8222 193.269 72.9556 193.738 72.9556C194.239 72.9556 194.655 72.8116 194.986 72.5236L195.386 73.3396C195.162 73.5422 194.89 73.6916 194.57 73.7876C194.261 73.8836 193.941 73.9316 193.61 73.9316ZM189.642 66.3956V65.4516H194.842V66.3956H189.642ZM197.454 73.8516V65.4516H198.59V73.8516H197.454ZM198.03 63.5956C197.795 63.5956 197.598 63.5156 197.438 63.3556C197.278 63.1956 197.198 63.0036 197.198 62.7796C197.198 62.5556 197.278 62.3689 197.438 62.2196C197.598 62.0596 197.795 61.9796 198.03 61.9796C198.265 61.9796 198.462 62.0542 198.622 62.2036C198.782 62.3529 198.862 62.5396 198.862 62.7636C198.862 62.9982 198.782 63.1956 198.622 63.3556C198.473 63.5156 198.275 63.5956 198.03 63.5956ZM206.039 65.3716C206.722 65.3716 207.319 65.5049 207.831 65.7716C208.354 66.0276 208.759 66.4222 209.047 66.9556C209.346 67.4889 209.495 68.1609 209.495 68.9716V73.8516H208.359V69.0836C208.359 68.1982 208.135 67.5316 207.687 67.0836C207.25 66.6249 206.631 66.3956 205.831 66.3956C205.234 66.3956 204.711 66.5182 204.263 66.7636C203.826 66.9982 203.484 67.3449 203.239 67.8036C203.004 68.2516 202.887 68.7956 202.887 69.4356V73.8516H201.751V65.4516H202.839V67.7556L202.663 67.3236C202.93 66.7156 203.356 66.2409 203.943 65.8996C204.53 65.5476 205.228 65.3716 206.039 65.3716ZM216.147 77.0356C215.379 77.0356 214.643 76.9236 213.939 76.6996C213.235 76.4756 212.665 76.1556 212.227 75.7396L212.803 74.8756C213.198 75.2276 213.683 75.5049 214.259 75.7076C214.846 75.9209 215.465 76.0276 216.115 76.0276C217.182 76.0276 217.966 75.7769 218.467 75.2756C218.969 74.7849 219.219 74.0169 219.219 72.9716V70.8756L219.379 69.4356L219.267 67.9956V65.4516H220.355V72.8276C220.355 74.2782 219.998 75.3396 219.283 76.0116C218.579 76.6942 217.534 77.0356 216.147 77.0356ZM215.939 73.5316C215.139 73.5316 214.419 73.3609 213.779 73.0196C213.139 72.6676 212.633 72.1822 212.259 71.5636C211.897 70.9449 211.715 70.2356 211.715 69.4356C211.715 68.6356 211.897 67.9316 212.259 67.3236C212.633 66.7049 213.139 66.2249 213.779 65.8836C214.419 65.5422 215.139 65.3716 215.939 65.3716C216.686 65.3716 217.358 65.5262 217.955 65.8356C218.553 66.1449 219.027 66.6036 219.379 67.2116C219.731 67.8196 219.907 68.5609 219.907 69.4356C219.907 70.3102 219.731 71.0516 219.379 71.6596C219.027 72.2676 218.553 72.7316 217.955 73.0516C217.358 73.3716 216.686 73.5316 215.939 73.5316ZM216.051 72.5236C216.67 72.5236 217.219 72.3956 217.699 72.1396C218.179 71.8729 218.558 71.5102 218.835 71.0516C219.113 70.5822 219.251 70.0436 219.251 69.4356C219.251 68.8276 219.113 68.2942 218.835 67.8356C218.558 67.3769 218.179 67.0196 217.699 66.7636C217.219 66.4969 216.67 66.3636 216.051 66.3636C215.443 66.3636 214.894 66.4969 214.403 66.7636C213.923 67.0196 213.545 67.3769 213.267 67.8356C213.001 68.2942 212.867 68.8276 212.867 69.4356C212.867 70.0436 213.001 70.5822 213.267 71.0516C213.545 71.5102 213.923 71.8729 214.403 72.1396C214.894 72.3956 215.443 72.5236 216.051 72.5236ZM231.272 73.9316C230.397 73.9316 229.629 73.7502 228.968 73.3876C228.307 73.0142 227.789 72.5076 227.416 71.8676C227.043 71.2169 226.856 70.4756 226.856 69.6436C226.856 68.8116 227.032 68.0756 227.384 67.4356C227.747 66.7956 228.237 66.2942 228.856 65.9316C229.485 65.5582 230.189 65.3716 230.968 65.3716C231.757 65.3716 232.456 65.5529 233.064 65.9156C233.683 66.2676 234.168 66.7689 234.52 67.4196C234.872 68.0596 235.048 68.8009 235.048 69.6436C235.048 69.6969 235.043 69.7556 235.032 69.8196C235.032 69.8729 235.032 69.9316 235.032 69.9956H227.72V69.1476H234.424L233.976 69.4836C233.976 68.8756 233.843 68.3369 233.576 67.8676C233.32 67.3876 232.968 67.0142 232.52 66.7476C232.072 66.4809 231.555 66.3476 230.968 66.3476C230.392 66.3476 229.875 66.4809 229.416 66.7476C228.957 67.0142 228.6 67.3876 228.344 67.8676C228.088 68.3476 227.96 68.8969 227.96 69.5156V69.6916C227.96 70.3316 228.099 70.8969 228.376 71.3876C228.664 71.8676 229.059 72.2462 229.56 72.5236C230.072 72.7902 230.653 72.9236 231.304 72.9236C231.816 72.9236 232.291 72.8329 232.728 72.6516C233.176 72.4702 233.56 72.1929 233.88 71.8196L234.52 72.5556C234.147 73.0036 233.677 73.3449 233.112 73.5796C232.557 73.8142 231.944 73.9316 231.272 73.9316ZM247.856 65.3716C248.539 65.3716 249.131 65.5049 249.632 65.7716C250.144 66.0276 250.539 66.4222 250.816 66.9556C251.104 67.4889 251.248 68.1609 251.248 68.9716V73.8516H250.112V69.0836C250.112 68.1982 249.899 67.5316 249.472 67.0836C249.056 66.6249 248.464 66.3956 247.696 66.3956C247.12 66.3956 246.619 66.5182 246.192 66.7636C245.776 66.9982 245.451 67.3449 245.216 67.8036C244.992 68.2516 244.88 68.7956 244.88 69.4356V73.8516H243.744V69.0836C243.744 68.1982 243.531 67.5316 243.104 67.0836C242.678 66.6249 242.08 66.3956 241.312 66.3956C240.747 66.3956 240.251 66.5182 239.824 66.7636C239.398 66.9982 239.067 67.3449 238.832 67.8036C238.608 68.2516 238.496 68.7956 238.496 69.4356V73.8516H237.36V65.4516H238.448V67.7236L238.272 67.3236C238.528 66.7156 238.939 66.2409 239.504 65.8996C240.08 65.5476 240.758 65.3716 241.536 65.3716C242.358 65.3716 243.056 65.5796 243.632 65.9956C244.208 66.4009 244.582 67.0142 244.752 67.8356L244.304 67.6596C244.55 66.9769 244.982 66.4276 245.6 66.0116C246.23 65.5849 246.982 65.3716 247.856 65.3716ZM258.665 73.9316C257.94 73.9316 257.284 73.7662 256.697 73.4356C256.11 73.0942 255.641 72.6089 255.289 71.9796C254.948 71.3396 254.777 70.5609 254.777 69.6436C254.777 68.7262 254.948 67.9529 255.289 67.3236C255.63 66.6836 256.094 66.1982 256.681 65.8676C257.268 65.5369 257.929 65.3716 258.665 65.3716C259.465 65.3716 260.18 65.5529 260.809 65.9156C261.449 66.2676 261.95 66.7689 262.313 67.4196C262.676 68.0596 262.857 68.8009 262.857 69.6436C262.857 70.4969 262.676 71.2436 262.313 71.8836C261.95 72.5236 261.449 73.0249 260.809 73.3876C260.18 73.7502 259.465 73.9316 258.665 73.9316ZM254.329 76.9556V65.4516H255.417V67.9796L255.305 69.6596L255.465 71.3556V76.9556H254.329ZM258.585 72.9236C259.182 72.9236 259.716 72.7902 260.185 72.5236C260.654 72.2462 261.028 71.8622 261.305 71.3716C261.582 70.8702 261.721 70.2942 261.721 69.6436C261.721 68.9929 261.582 68.4222 261.305 67.9316C261.028 67.4409 260.654 67.0569 260.185 66.7796C259.716 66.5022 259.182 66.3636 258.585 66.3636C257.988 66.3636 257.449 66.5022 256.969 66.7796C256.5 67.0569 256.126 67.4409 255.849 67.9316C255.582 68.4222 255.449 68.9929 255.449 69.6436C255.449 70.2942 255.582 70.8702 255.849 71.3716C256.126 71.8622 256.5 72.2462 256.969 72.5236C257.449 72.7902 257.988 72.9236 258.585 72.9236ZM265.173 73.8516V61.9796H266.309V73.8516H265.173ZM272.894 73.9316C272.083 73.9316 271.352 73.7502 270.702 73.3876C270.062 73.0142 269.555 72.5076 269.182 71.8676C268.808 71.2169 268.622 70.4756 268.622 69.6436C268.622 68.8009 268.808 68.0596 269.182 67.4196C269.555 66.7796 270.062 66.2782 270.702 65.9156C271.342 65.5529 272.072 65.3716 272.894 65.3716C273.726 65.3716 274.462 65.5529 275.102 65.9156C275.752 66.2782 276.259 66.7796 276.622 67.4196C276.995 68.0596 277.182 68.8009 277.182 69.6436C277.182 70.4756 276.995 71.2169 276.622 71.8676C276.259 72.5076 275.752 73.0142 275.102 73.3876C274.451 73.7502 273.715 73.9316 272.894 73.9316ZM272.894 72.9236C273.502 72.9236 274.04 72.7902 274.51 72.5236C274.979 72.2462 275.347 71.8622 275.614 71.3716C275.891 70.8702 276.03 70.2942 276.03 69.6436C276.03 68.9822 275.891 68.4062 275.614 67.9156C275.347 67.4249 274.979 67.0462 274.51 66.7796C274.04 66.5022 273.507 66.3636 272.91 66.3636C272.312 66.3636 271.779 66.5022 271.31 66.7796C270.84 67.0462 270.467 67.4249 270.19 67.9156C269.912 68.4062 269.774 68.9822 269.774 69.6436C269.774 70.2942 269.912 70.8702 270.19 71.3716C270.467 71.8622 270.84 72.2462 271.31 72.5236C271.779 72.7902 272.307 72.9236 272.894 72.9236ZM279.331 77.0356C278.936 77.0356 278.557 76.9716 278.195 76.8436C277.843 76.7156 277.539 76.5236 277.283 76.2676L277.811 75.4196C278.024 75.6222 278.253 75.7769 278.499 75.8836C278.755 76.0009 279.037 76.0596 279.347 76.0596C279.72 76.0596 280.04 75.9529 280.307 75.7396C280.584 75.5369 280.845 75.1742 281.091 74.6516L281.635 73.4196L281.763 73.2436L285.219 65.4516H286.339L282.131 74.8596C281.896 75.4036 281.635 75.8356 281.347 76.1556C281.069 76.4756 280.765 76.6996 280.435 76.8276C280.104 76.9662 279.736 77.0356 279.331 77.0356ZM281.571 74.0916L277.699 65.4516H278.883L282.307 73.1636L281.571 74.0916ZM291.272 73.9316C290.397 73.9316 289.629 73.7502 288.968 73.3876C288.307 73.0142 287.789 72.5076 287.416 71.8676C287.043 71.2169 286.856 70.4756 286.856 69.6436C286.856 68.8116 287.032 68.0756 287.384 67.4356C287.747 66.7956 288.237 66.2942 288.856 65.9316C289.485 65.5582 290.189 65.3716 290.968 65.3716C291.757 65.3716 292.456 65.5529 293.064 65.9156C293.683 66.2676 294.168 66.7689 294.52 67.4196C294.872 68.0596 295.048 68.8009 295.048 69.6436C295.048 69.6969 295.043 69.7556 295.032 69.8196C295.032 69.8729 295.032 69.9316 295.032 69.9956H287.72V69.1476H294.424L293.976 69.4836C293.976 68.8756 293.843 68.3369 293.576 67.8676C293.32 67.3876 292.968 67.0142 292.52 66.7476C292.072 66.4809 291.555 66.3476 290.968 66.3476C290.392 66.3476 289.875 66.4809 289.416 66.7476C288.957 67.0142 288.6 67.3876 288.344 67.8676C288.088 68.3476 287.96 68.8969 287.96 69.5156V69.6916C287.96 70.3316 288.099 70.8969 288.376 71.3876C288.664 71.8676 289.059 72.2462 289.56 72.5236C290.072 72.7902 290.653 72.9236 291.304 72.9236C291.816 72.9236 292.291 72.8329 292.728 72.6516C293.176 72.4702 293.56 72.1929 293.88 71.8196L294.52 72.5556C294.147 73.0036 293.677 73.3449 293.112 73.5796C292.557 73.8142 291.944 73.9316 291.272 73.9316ZM297.36 73.8516V65.4516H298.448V67.7396L298.336 67.3396C298.571 66.6996 298.966 66.2142 299.52 65.8836C300.075 65.5422 300.763 65.3716 301.584 65.3716V66.4756C301.542 66.4756 301.499 66.4756 301.456 66.4756C301.414 66.4649 301.371 66.4596 301.328 66.4596C300.443 66.4596 299.75 66.7316 299.248 67.2756C298.747 67.8089 298.496 68.5716 298.496 69.5636V73.8516H297.36ZM306.007 73.9316C305.314 73.9316 304.658 73.8356 304.039 73.6436C303.42 73.4409 302.935 73.1902 302.583 72.8916L303.095 71.9956C303.436 72.2516 303.874 72.4756 304.407 72.6676C304.94 72.8489 305.5 72.9396 306.087 72.9396C306.887 72.9396 307.463 72.8169 307.815 72.5716C308.167 72.3156 308.343 71.9796 308.343 71.5636C308.343 71.2542 308.242 71.0142 308.039 70.8436C307.847 70.6622 307.591 70.5289 307.271 70.4436C306.951 70.3476 306.594 70.2676 306.199 70.2036C305.804 70.1396 305.41 70.0649 305.015 69.9796C304.631 69.8942 304.279 69.7716 303.959 69.6116C303.639 69.4409 303.378 69.2116 303.175 68.9236C302.983 68.6356 302.887 68.2516 302.887 67.7716C302.887 67.3129 303.015 66.9022 303.271 66.5396C303.527 66.1769 303.9 65.8942 304.391 65.6916C304.892 65.4782 305.5 65.3716 306.215 65.3716C306.759 65.3716 307.303 65.4462 307.847 65.5956C308.391 65.7342 308.839 65.9209 309.191 66.1556L308.695 67.0676C308.322 66.8116 307.922 66.6302 307.495 66.5236C307.068 66.4062 306.642 66.3476 306.215 66.3476C305.458 66.3476 304.898 66.4809 304.535 66.7476C304.183 67.0036 304.007 67.3342 304.007 67.7396C304.007 68.0596 304.103 68.3102 304.295 68.4916C304.498 68.6729 304.759 68.8169 305.079 68.9236C305.41 69.0196 305.767 69.0996 306.151 69.1636C306.546 69.2276 306.935 69.3076 307.319 69.4036C307.714 69.4889 308.071 69.6116 308.391 69.7716C308.722 69.9209 308.983 70.1396 309.175 70.4276C309.378 70.7049 309.479 71.0729 309.479 71.5316C309.479 72.0222 309.34 72.4489 309.063 72.8116C308.796 73.1636 308.402 73.4409 307.879 73.6436C307.367 73.8356 306.743 73.9316 306.007 73.9316ZM318.711 73.9476C317.986 73.9476 317.34 73.8302 316.775 73.5956C316.21 73.3502 315.762 73.0142 315.431 72.5876C315.111 72.1609 314.951 71.6649 314.951 71.0996C314.951 70.6196 315.058 70.1822 315.271 69.7876C315.484 69.3822 315.826 68.9876 316.295 68.6036C316.775 68.2089 317.41 67.7982 318.199 67.3716C318.871 66.9982 319.394 66.6782 319.767 66.4116C320.151 66.1342 320.423 65.8729 320.583 65.6276C320.743 65.3716 320.823 65.0996 320.823 64.8116C320.823 64.3956 320.679 64.0596 320.391 63.8036C320.114 63.5476 319.714 63.4196 319.191 63.4196C318.626 63.4196 318.188 63.5636 317.879 63.8516C317.57 64.1289 317.415 64.4916 317.415 64.9396C317.415 65.1636 317.447 65.3769 317.511 65.5796C317.586 65.7822 317.719 66.0062 317.911 66.2516C318.114 66.4969 318.391 66.8062 318.743 67.1796L324.663 73.2756L324.007 74.0276L317.831 67.6756C317.458 67.2809 317.159 66.9396 316.935 66.6516C316.722 66.3529 316.572 66.0702 316.487 65.8036C316.402 65.5369 316.359 65.2542 316.359 64.9556C316.359 64.4756 316.471 64.0596 316.695 63.7076C316.93 63.3449 317.26 63.0676 317.687 62.8756C318.114 62.6729 318.615 62.5716 319.191 62.5716C319.714 62.5716 320.167 62.6622 320.551 62.8436C320.946 63.0142 321.25 63.2649 321.463 63.5956C321.687 63.9262 321.799 64.3262 321.799 64.7956C321.799 65.2009 321.698 65.5796 321.495 65.9316C321.303 66.2836 320.983 66.6302 320.535 66.9716C320.087 67.3022 319.479 67.6756 318.711 68.0916C318.039 68.4649 317.506 68.8062 317.111 69.1156C316.727 69.4249 316.455 69.7289 316.295 70.0276C316.135 70.3156 316.055 70.6356 316.055 70.9876C316.055 71.3929 316.167 71.7502 316.391 72.0596C316.626 72.3582 316.946 72.5929 317.351 72.7636C317.767 72.9236 318.242 73.0036 318.775 73.0036C319.522 73.0036 320.188 72.8489 320.775 72.5396C321.362 72.2302 321.852 71.7609 322.247 71.1316C322.652 70.5022 322.946 69.7129 323.127 68.7636L324.039 69.0516C323.836 70.1182 323.49 71.0142 322.999 71.7396C322.508 72.4649 321.9 73.0142 321.175 73.3876C320.45 73.7609 319.628 73.9476 318.711 73.9476ZM334.13 73.9316C333.298 73.9316 332.551 73.7502 331.89 73.3876C331.239 73.0142 330.727 72.5076 330.354 71.8676C329.98 71.2169 329.794 70.4756 329.794 69.6436C329.794 68.8009 329.98 68.0596 330.354 67.4196C330.727 66.7796 331.239 66.2782 331.89 65.9156C332.551 65.5529 333.298 65.3716 334.13 65.3716C334.844 65.3716 335.49 65.5102 336.066 65.7876C336.642 66.0649 337.095 66.4809 337.426 67.0356L336.578 67.6116C336.29 67.1849 335.932 66.8702 335.506 66.6676C335.079 66.4649 334.615 66.3636 334.114 66.3636C333.516 66.3636 332.978 66.5022 332.498 66.7796C332.018 67.0462 331.639 67.4249 331.362 67.9156C331.084 68.4062 330.946 68.9822 330.946 69.6436C330.946 70.3049 331.084 70.8809 331.362 71.3716C331.639 71.8622 332.018 72.2462 332.498 72.5236C332.978 72.7902 333.516 72.9236 334.114 72.9236C334.615 72.9236 335.079 72.8222 335.506 72.6196C335.932 72.4169 336.29 72.1076 336.578 71.6916L337.426 72.2676C337.095 72.8116 336.642 73.2276 336.066 73.5156C335.49 73.7929 334.844 73.9316 334.13 73.9316ZM344.921 73.8516V71.9956L344.873 71.6916V68.5876C344.873 67.8729 344.671 67.3236 344.265 66.9396C343.871 66.5556 343.279 66.3636 342.489 66.3636C341.945 66.3636 341.428 66.4542 340.937 66.6356C340.447 66.8169 340.031 67.0569 339.689 67.3556L339.177 66.5076C339.604 66.1449 340.116 65.8676 340.713 65.6756C341.311 65.4729 341.94 65.3716 342.601 65.3716C343.689 65.3716 344.527 65.6436 345.113 66.1876C345.711 66.7209 346.009 67.5369 346.009 68.6356V73.8516H344.921ZM342.025 73.9316C341.396 73.9316 340.847 73.8302 340.377 73.6276C339.919 73.4142 339.567 73.1262 339.321 72.7636C339.076 72.3902 338.953 71.9636 338.953 71.4836C338.953 71.0462 339.055 70.6516 339.257 70.2996C339.471 69.9369 339.812 69.6489 340.281 69.4356C340.761 69.2116 341.401 69.0996 342.201 69.0996H345.097V69.9476H342.233C341.423 69.9476 340.857 70.0916 340.537 70.3796C340.228 70.6676 340.073 71.0249 340.073 71.4516C340.073 71.9316 340.26 72.3156 340.633 72.6036C341.007 72.8916 341.529 73.0356 342.201 73.0356C342.841 73.0356 343.391 72.8916 343.849 72.6036C344.319 72.3049 344.66 71.8782 344.873 71.3236L345.129 72.1076C344.916 72.6622 344.543 73.1049 344.009 73.4356C343.487 73.7662 342.825 73.9316 342.025 73.9316ZM353.383 65.3716C354.065 65.3716 354.663 65.5049 355.175 65.7716C355.697 66.0276 356.103 66.4222 356.391 66.9556C356.689 67.4889 356.839 68.1609 356.839 68.9716V73.8516H355.703V69.0836C355.703 68.1982 355.479 67.5316 355.031 67.0836C354.593 66.6249 353.975 66.3956 353.175 66.3956C352.577 66.3956 352.055 66.5182 351.607 66.7636C351.169 66.9982 350.828 67.3449 350.583 67.8036C350.348 68.2516 350.231 68.7956 350.231 69.4356V73.8516H349.095V65.4516H350.183V67.7556L350.007 67.3236C350.273 66.7156 350.7 66.2409 351.287 65.8996C351.873 65.5476 352.572 65.3716 353.383 65.3716ZM363.251 73.9316C362.451 73.9316 361.731 73.7502 361.091 73.3876C360.462 73.0249 359.966 72.5236 359.603 71.8836C359.241 71.2329 359.059 70.4862 359.059 69.6436C359.059 68.7902 359.241 68.0436 359.603 67.4036C359.966 66.7636 360.462 66.2676 361.091 65.9156C361.731 65.5529 362.451 65.3716 363.251 65.3716C363.987 65.3716 364.643 65.5369 365.219 65.8676C365.806 66.1982 366.27 66.6836 366.611 67.3236C366.963 67.9529 367.139 68.7262 367.139 69.6436C367.139 70.5502 366.969 71.3236 366.627 71.9636C366.286 72.6036 365.822 73.0942 365.235 73.4356C364.659 73.7662 363.998 73.9316 363.251 73.9316ZM363.331 72.9236C363.929 72.9236 364.462 72.7902 364.931 72.5236C365.411 72.2462 365.785 71.8622 366.051 71.3716C366.329 70.8702 366.467 70.2942 366.467 69.6436C366.467 68.9822 366.329 68.4062 366.051 67.9156C365.785 67.4249 365.411 67.0462 364.931 66.7796C364.462 66.5022 363.929 66.3636 363.331 66.3636C362.745 66.3636 362.217 66.5022 361.747 66.7796C361.278 67.0462 360.905 67.4249 360.627 67.9156C360.35 68.4062 360.211 68.9822 360.211 69.6436C360.211 70.2942 360.35 70.8702 360.627 71.3716C360.905 71.8622 361.278 72.2462 361.747 72.5236C362.217 72.7902 362.745 72.9236 363.331 72.9236ZM366.499 73.8516V71.3236L366.611 69.6276L366.451 67.9316V61.9796H367.587V73.8516H366.499ZM370.751 73.8516V65.4516H371.887V73.8516H370.751ZM371.327 63.5956C371.092 63.5956 370.895 63.5156 370.735 63.3556C370.575 63.1956 370.495 63.0036 370.495 62.7796C370.495 62.5556 370.575 62.3689 370.735 62.2196C370.895 62.0596 371.092 61.9796 371.327 61.9796C371.562 61.9796 371.759 62.0542 371.919 62.2036C372.079 62.3529 372.159 62.5396 372.159 62.7636C372.159 62.9982 372.079 63.1956 371.919 63.3556C371.77 63.5156 371.572 63.5956 371.327 63.5956ZM378.392 73.9316C377.592 73.9316 376.872 73.7502 376.232 73.3876C375.603 73.0249 375.107 72.5236 374.744 71.8836C374.381 71.2329 374.2 70.4862 374.2 69.6436C374.2 68.7902 374.381 68.0436 374.744 67.4036C375.107 66.7636 375.603 66.2676 376.232 65.9156C376.872 65.5529 377.592 65.3716 378.392 65.3716C379.128 65.3716 379.784 65.5369 380.36 65.8676C380.947 66.1982 381.411 66.6836 381.752 67.3236C382.104 67.9529 382.28 68.7262 382.28 69.6436C382.28 70.5502 382.109 71.3236 381.768 71.9636C381.427 72.6036 380.963 73.0942 380.376 73.4356C379.8 73.7662 379.139 73.9316 378.392 73.9316ZM378.472 72.9236C379.069 72.9236 379.603 72.7902 380.072 72.5236C380.552 72.2462 380.925 71.8622 381.192 71.3716C381.469 70.8702 381.608 70.2942 381.608 69.6436C381.608 68.9822 381.469 68.4062 381.192 67.9156C380.925 67.4249 380.552 67.0462 380.072 66.7796C379.603 66.5022 379.069 66.3636 378.472 66.3636C377.885 66.3636 377.357 66.5022 376.888 66.7796C376.419 67.0462 376.045 67.4249 375.768 67.9156C375.491 68.4062 375.352 68.9822 375.352 69.6436C375.352 70.2942 375.491 70.8702 375.768 71.3716C376.045 71.8622 376.419 72.2462 376.888 72.5236C377.357 72.7902 377.885 72.9236 378.472 72.9236ZM381.64 73.8516V71.3236L381.752 69.6276L381.592 67.9316V61.9796H382.728V73.8516H381.64ZM391.156 73.8516V71.9956L391.108 71.6916V68.5876C391.108 67.8729 390.905 67.3236 390.5 66.9396C390.105 66.5556 389.513 66.3636 388.724 66.3636C388.18 66.3636 387.662 66.4542 387.172 66.6356C386.681 66.8169 386.265 67.0569 385.924 67.3556L385.412 66.5076C385.838 66.1449 386.35 65.8676 386.948 65.6756C387.545 65.4729 388.174 65.3716 388.836 65.3716C389.924 65.3716 390.761 65.6436 391.348 66.1876C391.945 66.7209 392.244 67.5369 392.244 68.6356V73.8516H391.156ZM388.26 73.9316C387.63 73.9316 387.081 73.8302 386.612 73.6276C386.153 73.4142 385.801 73.1262 385.556 72.7636C385.31 72.3902 385.188 71.9636 385.188 71.4836C385.188 71.0462 385.289 70.6516 385.492 70.2996C385.705 69.9369 386.046 69.6489 386.516 69.4356C386.996 69.2116 387.636 69.0996 388.436 69.0996H391.332V69.9476H388.468C387.657 69.9476 387.092 70.0916 386.772 70.3796C386.462 70.6676 386.308 71.0249 386.308 71.4516C386.308 71.9316 386.494 72.3156 386.868 72.6036C387.241 72.8916 387.764 73.0356 388.436 73.0356C389.076 73.0356 389.625 72.8916 390.084 72.6036C390.553 72.3049 390.894 71.8782 391.108 71.3236L391.364 72.1076C391.15 72.6622 390.777 73.1049 390.244 73.4356C389.721 73.7662 389.06 73.9316 388.26 73.9316ZM397.985 73.9316C397.196 73.9316 396.588 73.7182 396.161 73.2916C395.734 72.8649 395.521 72.2622 395.521 71.4836V63.5956H396.657V71.4196C396.657 71.9102 396.78 72.2889 397.025 72.5556C397.281 72.8222 397.644 72.9556 398.113 72.9556C398.614 72.9556 399.03 72.8116 399.361 72.5236L399.761 73.3396C399.537 73.5422 399.265 73.6916 398.945 73.7876C398.636 73.8836 398.316 73.9316 397.985 73.9316ZM394.017 66.3956V65.4516H399.217V66.3956H394.017ZM405.1 73.9316C404.226 73.9316 403.458 73.7502 402.796 73.3876C402.135 73.0142 401.618 72.5076 401.244 71.8676C400.871 71.2169 400.684 70.4756 400.684 69.6436C400.684 68.8116 400.86 68.0756 401.212 67.4356C401.575 66.7956 402.066 66.2942 402.684 65.9316C403.314 65.5582 404.018 65.3716 404.796 65.3716C405.586 65.3716 406.284 65.5529 406.892 65.9156C407.511 66.2676 407.996 66.7689 408.348 67.4196C408.7 68.0596 408.876 68.8009 408.876 69.6436C408.876 69.6969 408.871 69.7556 408.86 69.8196C408.86 69.8729 408.86 69.9316 408.86 69.9956H401.548V69.1476H408.252L407.804 69.4836C407.804 68.8756 407.671 68.3369 407.404 67.8676C407.148 67.3876 406.796 67.0142 406.348 66.7476C405.9 66.4809 405.383 66.3476 404.796 66.3476C404.22 66.3476 403.703 66.4809 403.244 66.7476C402.786 67.0142 402.428 67.3876 402.172 67.8676C401.916 68.3476 401.788 68.8969 401.788 69.5156V69.6916C401.788 70.3316 401.927 70.8969 402.204 71.3876C402.492 71.8676 402.887 72.2462 403.388 72.5236C403.9 72.7902 404.482 72.9236 405.132 72.9236C405.644 72.9236 406.119 72.8329 406.556 72.6516C407.004 72.4702 407.388 72.1929 407.708 71.8196L408.348 72.5556C407.975 73.0036 407.506 73.3449 406.94 73.5796C406.386 73.8142 405.772 73.9316 405.1 73.9316ZM413.444 73.9316C412.751 73.9316 412.095 73.8356 411.476 73.6436C410.858 73.4409 410.372 73.1902 410.02 72.8916L410.532 71.9956C410.874 72.2516 411.311 72.4756 411.844 72.6676C412.378 72.8489 412.938 72.9396 413.524 72.9396C414.324 72.9396 414.9 72.8169 415.252 72.5716C415.604 72.3156 415.78 71.9796 415.78 71.5636C415.78 71.2542 415.679 71.0142 415.476 70.8436C415.284 70.6622 415.028 70.5289 414.708 70.4436C414.388 70.3476 414.031 70.2676 413.636 70.2036C413.242 70.1396 412.847 70.0649 412.452 69.9796C412.068 69.8942 411.716 69.7716 411.396 69.6116C411.076 69.4409 410.815 69.2116 410.612 68.9236C410.42 68.6356 410.324 68.2516 410.324 67.7716C410.324 67.3129 410.452 66.9022 410.708 66.5396C410.964 66.1769 411.338 65.8942 411.828 65.6916C412.33 65.4782 412.938 65.3716 413.652 65.3716C414.196 65.3716 414.74 65.4462 415.284 65.5956C415.828 65.7342 416.276 65.9209 416.628 66.1556L416.132 67.0676C415.759 66.8116 415.359 66.6302 414.932 66.5236C414.506 66.4062 414.079 66.3476 413.652 66.3476C412.895 66.3476 412.335 66.4809 411.972 66.7476C411.62 67.0036 411.444 67.3342 411.444 67.7396C411.444 68.0596 411.54 68.3102 411.732 68.4916C411.935 68.6729 412.196 68.8169 412.516 68.9236C412.847 69.0196 413.204 69.0996 413.588 69.1636C413.983 69.2276 414.372 69.3076 414.756 69.4036C415.151 69.4889 415.508 69.6116 415.828 69.7716C416.159 69.9209 416.42 70.1396 416.612 70.4276C416.815 70.7049 416.916 71.0729 416.916 71.5316C416.916 72.0222 416.778 72.4489 416.5 72.8116C416.234 73.1636 415.839 73.4409 415.316 73.6436C414.804 73.8356 414.18 73.9316 413.444 73.9316Z" fill="white"/>
</svg>
