<svg width="582" height="227" viewBox="0 0 582 227" fill="none" xmlns="http://www.w3.org/2000/svg">
<rect width="582" height="226.916" fill="white"/>
<path d="M15.9716 27.2727V36H14.9148V28.3807H14.8636L12.733 29.7955V28.7216L14.9148 27.2727H15.9716ZM21.3281 36.1193C20.6861 36.1193 20.1392 35.9446 19.6875 35.5952C19.2358 35.2429 18.8906 34.733 18.652 34.0653C18.4134 33.3949 18.294 32.5852 18.294 31.6364C18.294 30.6932 18.4134 29.8878 18.652 29.2202C18.8935 28.5497 19.2401 28.0384 19.6918 27.6861C20.1463 27.331 20.6918 27.1534 21.3281 27.1534C21.9645 27.1534 22.5085 27.331 22.9602 27.6861C23.4148 28.0384 23.7614 28.5497 24 29.2202C24.2415 29.8878 24.3622 30.6932 24.3622 31.6364C24.3622 32.5852 24.2429 33.3949 24.0043 34.0653C23.7656 34.733 23.4205 35.2429 22.9688 35.5952C22.517 35.9446 21.9702 36.1193 21.3281 36.1193ZM21.3281 35.1818C21.9645 35.1818 22.4588 34.875 22.8111 34.2614C23.1634 33.6477 23.3395 32.7727 23.3395 31.6364C23.3395 30.8807 23.2585 30.2372 23.0966 29.706C22.9375 29.1747 22.7074 28.7699 22.4062 28.4915C22.108 28.2131 21.7486 28.0739 21.3281 28.0739C20.6974 28.0739 20.2045 28.3849 19.8494 29.0071C19.4943 29.6264 19.3168 30.5028 19.3168 31.6364C19.3168 32.392 19.3963 33.0341 19.5554 33.5625C19.7145 34.0909 19.9432 34.4929 20.2415 34.7685C20.5426 35.044 20.9048 35.1818 21.3281 35.1818ZM28.8281 36.1193C28.1861 36.1193 27.6392 35.9446 27.1875 35.5952C26.7358 35.2429 26.3906 34.733 26.152 34.0653C25.9134 33.3949 25.794 32.5852 25.794 31.6364C25.794 30.6932 25.9134 29.8878 26.152 29.2202C26.3935 28.5497 26.7401 28.0384 27.1918 27.6861C27.6463 27.331 28.1918 27.1534 28.8281 27.1534C29.4645 27.1534 30.0085 27.331 30.4602 27.6861C30.9148 28.0384 31.2614 28.5497 31.5 29.2202C31.7415 29.8878 31.8622 30.6932 31.8622 31.6364C31.8622 32.5852 31.7429 33.3949 31.5043 34.0653C31.2656 34.733 30.9205 35.2429 30.4688 35.5952C30.017 35.9446 29.4702 36.1193 28.8281 36.1193ZM28.8281 35.1818C29.4645 35.1818 29.9588 34.875 30.3111 34.2614C30.6634 33.6477 30.8395 32.7727 30.8395 31.6364C30.8395 30.8807 30.7585 30.2372 30.5966 29.706C30.4375 29.1747 30.2074 28.7699 29.9062 28.4915C29.608 28.2131 29.2486 28.0739 28.8281 28.0739C28.1974 28.0739 27.7045 28.3849 27.3494 29.0071C26.9943 29.6264 26.8168 30.5028 26.8168 31.6364C26.8168 32.392 26.8963 33.0341 27.0554 33.5625C27.2145 34.0909 27.4432 34.4929 27.7415 34.7685C28.0426 35.044 28.4048 35.1818 28.8281 35.1818Z" fill="black" fill-opacity="0.7"/>
<path d="M19.1761 69.729L23.0795 62.0074V61.9392H18.5795V61.0017H24.1705V61.9904L20.2841 69.729H19.1761ZM28.369 69.8483C27.869 69.8483 27.4187 69.7489 27.0181 69.55C26.6175 69.3512 26.2965 69.0784 26.055 68.7318C25.8136 68.3853 25.6815 67.9904 25.6587 67.5472H26.6815C26.7212 67.9421 26.9002 68.2688 27.2184 68.5273C27.5394 68.783 27.9229 68.9108 28.369 68.9108C28.7269 68.9108 29.0451 68.827 29.3235 68.6594C29.6048 68.4918 29.8249 68.2617 29.984 67.9691C30.146 67.6736 30.2269 67.3398 30.2269 66.9676C30.2269 66.587 30.1431 66.2475 29.9755 65.9492C29.8107 65.648 29.5835 65.4108 29.2937 65.2375C29.0039 65.0642 28.6729 64.9762 28.3008 64.9733C28.0337 64.9705 27.7596 65.0117 27.4783 65.0969C27.1971 65.1793 26.9656 65.2858 26.7837 65.4165L25.7951 65.2972L26.3235 61.0017H30.8576V61.9392H27.2099L26.9031 64.5131H26.9542C27.1332 64.371 27.3576 64.2532 27.6275 64.1594C27.8974 64.0657 28.1786 64.0188 28.4712 64.0188C29.0053 64.0188 29.4812 64.1466 29.8988 64.4023C30.3192 64.6551 30.6488 65.0017 30.8874 65.4421C31.1289 65.8824 31.2496 66.3853 31.2496 66.9506C31.2496 67.5074 31.1246 68.0046 30.8746 68.4421C30.6275 68.8767 30.2866 69.2205 29.8519 69.4733C29.4173 69.7233 28.9229 69.8483 28.369 69.8483Z" fill="black" fill-opacity="0.7"/>
<path d="M21.6307 103.577C21.1307 103.577 20.6804 103.478 20.2798 103.279C19.8793 103.08 19.5582 102.807 19.3168 102.461C19.0753 102.114 18.9432 101.719 18.9205 101.276H19.9432C19.983 101.671 20.1619 101.998 20.4801 102.256C20.8011 102.512 21.1847 102.64 21.6307 102.64C21.9886 102.64 22.3068 102.556 22.5852 102.388C22.8665 102.221 23.0866 101.991 23.2457 101.698C23.4077 101.403 23.4886 101.069 23.4886 100.697C23.4886 100.316 23.4048 99.9765 23.2372 99.6782C23.0724 99.377 22.8452 99.1398 22.5554 98.9665C22.2656 98.7932 21.9347 98.7052 21.5625 98.7023C21.2955 98.6995 21.0213 98.7407 20.7401 98.8259C20.4588 98.9083 20.2273 99.0148 20.0455 99.1455L19.0568 99.0262L19.5852 94.7307H24.1193V95.6682H20.4716L20.1648 98.2421H20.2159C20.3949 98.1001 20.6193 97.9822 20.8892 97.8884C21.1591 97.7947 21.4403 97.7478 21.733 97.7478C22.267 97.7478 22.7429 97.8756 23.1605 98.1313C23.581 98.3841 23.9105 98.7307 24.1491 99.1711C24.3906 99.6114 24.5114 100.114 24.5114 100.68C24.5114 101.236 24.3864 101.734 24.1364 102.171C23.8892 102.606 23.5483 102.949 23.1136 103.202C22.679 103.452 22.1847 103.577 21.6307 103.577ZM29.0508 103.577C28.4087 103.577 27.8619 103.403 27.4102 103.053C26.9585 102.701 26.6133 102.191 26.3746 101.523C26.136 100.853 26.0167 100.043 26.0167 99.0944C26.0167 98.1512 26.136 97.3458 26.3746 96.6782C26.6161 96.0077 26.9627 95.4964 27.4144 95.1441C27.869 94.789 28.4144 94.6114 29.0508 94.6114C29.6871 94.6114 30.2312 94.789 30.6829 95.1441C31.1374 95.4964 31.484 96.0077 31.7227 96.6782C31.9641 97.3458 32.0849 98.1512 32.0849 99.0944C32.0849 100.043 31.9656 100.853 31.7269 101.523C31.4883 102.191 31.1431 102.701 30.6914 103.053C30.2397 103.403 29.6928 103.577 29.0508 103.577ZM29.0508 102.64C29.6871 102.64 30.1815 102.333 30.5337 101.719C30.886 101.106 31.0621 100.231 31.0621 99.0944C31.0621 98.3387 30.9812 97.6952 30.8192 97.164C30.6602 96.6327 30.43 96.2279 30.1289 95.9495C29.8306 95.6711 29.4712 95.5319 29.0508 95.5319C28.4201 95.5319 27.9272 95.843 27.5721 96.4651C27.217 97.0844 27.0394 97.9608 27.0394 99.0944C27.0394 99.8501 27.119 100.492 27.2781 101.021C27.4371 101.549 27.6658 101.951 27.9641 102.226C28.2653 102.502 28.6275 102.64 29.0508 102.64Z" fill="black" fill-opacity="0.7"/>
<path d="M18.9034 137.187V136.42L21.7841 133.267C22.1222 132.897 22.4006 132.576 22.6193 132.303C22.8381 132.028 23 131.769 23.1051 131.528C23.2131 131.284 23.267 131.028 23.267 130.761C23.267 130.454 23.1932 130.188 23.0455 129.964C22.9006 129.74 22.7017 129.566 22.4489 129.444C22.196 129.322 21.9119 129.261 21.5966 129.261C21.2614 129.261 20.9688 129.33 20.7188 129.47C20.4716 129.606 20.2798 129.798 20.1435 130.045C20.0099 130.292 19.9432 130.582 19.9432 130.914H18.9375C18.9375 130.403 19.0554 129.954 19.2912 129.568C19.527 129.181 19.848 128.88 20.2543 128.664C20.6634 128.448 21.1222 128.34 21.6307 128.34C22.142 128.34 22.5952 128.448 22.9901 128.664C23.3849 128.88 23.6946 129.171 23.919 129.538C24.1435 129.904 24.2557 130.312 24.2557 130.761C24.2557 131.082 24.1974 131.396 24.081 131.703C23.9673 132.007 23.7685 132.346 23.4844 132.721C23.2031 133.093 22.8125 133.548 22.3125 134.085L20.3523 136.181V136.25H24.4091V137.187H18.9034ZM28.8963 137.306C28.3963 137.306 27.946 137.207 27.5455 137.008C27.1449 136.809 26.8239 136.536 26.5824 136.19C26.3409 135.843 26.2088 135.448 26.1861 135.005H27.2088C27.2486 135.4 27.4276 135.727 27.7457 135.985C28.0668 136.241 28.4503 136.369 28.8963 136.369C29.2543 136.369 29.5724 136.285 29.8509 136.117C30.1321 135.95 30.3523 135.72 30.5114 135.427C30.6733 135.132 30.7543 134.798 30.7543 134.426C30.7543 134.045 30.6705 133.705 30.5028 133.407C30.3381 133.106 30.1108 132.869 29.821 132.696C29.5313 132.522 29.2003 132.434 28.8281 132.431C28.5611 132.428 28.2869 132.47 28.0057 132.555C27.7244 132.637 27.4929 132.744 27.3111 132.875L26.3224 132.755L26.8509 128.46H31.3849V129.397H27.7372L27.4304 131.971H27.4815C27.6605 131.829 27.8849 131.711 28.1548 131.617C28.4247 131.524 28.706 131.477 28.9986 131.477C29.5327 131.477 30.0085 131.605 30.4261 131.86C30.8466 132.113 31.1761 132.46 31.4148 132.9C31.6562 133.34 31.777 133.843 31.777 134.409C31.777 134.965 31.652 135.463 31.402 135.9C31.1548 136.335 30.8139 136.678 30.3793 136.931C29.9446 137.181 29.4503 137.306 28.8963 137.306Z" fill="black" fill-opacity="0.7"/>
<path d="M28.75 171.035C28.108 171.035 27.5611 170.861 27.1094 170.511C26.6577 170.159 26.3125 169.649 26.0739 168.981C25.8352 168.311 25.7159 167.501 25.7159 166.552C25.7159 165.609 25.8352 164.804 26.0739 164.136C26.3153 163.466 26.6619 162.954 27.1136 162.602C27.5682 162.247 28.1136 162.069 28.75 162.069C29.3864 162.069 29.9304 162.247 30.3821 162.602C30.8366 162.954 31.1832 163.466 31.4219 164.136C31.6634 164.804 31.7841 165.609 31.7841 166.552C31.7841 167.501 31.6648 168.311 31.4261 168.981C31.1875 169.649 30.8423 170.159 30.3906 170.511C29.9389 170.861 29.392 171.035 28.75 171.035ZM28.75 170.098C29.3864 170.098 29.8807 169.791 30.233 169.177C30.5852 168.564 30.7614 167.689 30.7614 166.552C30.7614 165.797 30.6804 165.153 30.5185 164.622C30.3594 164.091 30.1293 163.686 29.8281 163.407C29.5298 163.129 29.1705 162.99 28.75 162.99C28.1193 162.99 27.6264 163.301 27.2713 163.923C26.9162 164.542 26.7386 165.419 26.7386 166.552C26.7386 167.308 26.8182 167.95 26.9773 168.479C27.1364 169.007 27.3651 169.409 27.6634 169.684C27.9645 169.96 28.3267 170.098 28.75 170.098Z" fill="black" fill-opacity="0.7"/>
<line x1="38" y1="29.5" x2="573" y2="29.5" stroke="#00001A" stroke-opacity="0.15" stroke-dasharray="2"/>
<line x1="38" y1="63.979" x2="573" y2="63.979" stroke="#00001A" stroke-opacity="0.15" stroke-dasharray="2"/>
<line x1="38" y1="98.458" x2="573" y2="98.458" stroke="#00001A" stroke-opacity="0.15" stroke-dasharray="2"/>
<line x1="38" y1="132.937" x2="573" y2="132.937" stroke="#00001A" stroke-opacity="0.15" stroke-dasharray="2"/>
<line x1="38" y1="167.416" x2="573" y2="167.416" stroke="#00001A" stroke-opacity="0.3"/>
<line x1="37.5" y1="167.916" x2="37.5" y2="30" stroke="#00001A" stroke-opacity="0.15" stroke-dasharray="2"/>
<line x1="144.5" y1="167.916" x2="144.5" y2="30" stroke="#00001A" stroke-opacity="0.15" stroke-dasharray="2"/>
<line x1="251.5" y1="167.916" x2="251.5" y2="30" stroke="#00001A" stroke-opacity="0.15" stroke-dasharray="2"/>
<line x1="358.5" y1="167.916" x2="358.5" y2="30" stroke="#00001A" stroke-opacity="0.15" stroke-dasharray="2"/>
<line x1="465.5" y1="167.916" x2="465.5" y2="30" stroke="#00001A" stroke-opacity="0.15" stroke-dasharray="2"/>
<line x1="572.5" y1="167.916" x2="572.5" y2="30" stroke="#00001A" stroke-opacity="0.15" stroke-dasharray="2"/>
<path d="M90.7 149.247C144.4 149.247 144.4 138.374 198.1 138.374C251.8 138.374 251.8 120.705 305.5 120.705C359.2 120.705 359.2 45.9508 412.9 45.9508C466.6 45.9508 466.6 92.1622 520.3 92.1622M520.3 92.1622V92.1622Z" stroke="#FFAE4C"/>
<circle cx="90.7" cy="149.247" r="3.5" fill="#FFAE4C" stroke="white"/>
<circle cx="198.1" cy="138.374" r="3.5" fill="#FFAE4C" stroke="white"/>
<circle cx="305.5" cy="120.705" r="3.5" fill="#FFAE4C" stroke="white"/>
<circle cx="412.9" cy="45.9508" r="3.5" fill="#FFAE4C" stroke="white"/>
<circle cx="520.3" cy="92.1622" r="3.5" fill="#FFAE4C" stroke="white"/>
<path d="M90.7 116.627C144.4 116.627 144.4 47.3099 198.1 47.3099C251.8 47.3099 251.8 71.7748 305.5 71.7748C359.2 71.7748 359.2 86.7256 412.9 86.7256C466.6 86.7256 466.6 64.979 520.3 64.979M520.3 64.979V64.979Z" stroke="#3CC3DF"/>
<circle cx="90.7" cy="116.627" r="3.5" fill="#3CC3DF" stroke="white"/>
<circle cx="198.1" cy="47.3099" r="3.5" fill="#3CC3DF" stroke="white"/>
<circle cx="305.5" cy="71.7748" r="3.5" fill="#3CC3DF" stroke="white"/>
<circle cx="412.9" cy="86.7256" r="3.5" fill="#3CC3DF" stroke="white"/>
<circle cx="520.3" cy="64.979" r="3.5" fill="#3CC3DF" stroke="white"/>
<path d="M90.7 137.014C144.4 137.014 144.4 98.958 198.1 98.958C251.8 98.958 251.8 32.3591 305.5 32.3591C359.2 32.3591 359.2 78.5706 412.9 78.5706C466.6 78.5706 466.6 107.113 520.3 107.113M520.3 107.113V107.113Z" stroke="#FF928A"/>
<circle cx="90.7" cy="137.014" r="3.5" fill="#FF928A" stroke="white"/>
<circle cx="198.1" cy="98.958" r="3.5" fill="#FF928A" stroke="white"/>
<circle cx="305.5" cy="32.3591" r="3.5" fill="#FF928A" stroke="white"/>
<circle cx="412.9" cy="78.5706" r="3.5" fill="#FF928A" stroke="white"/>
<circle cx="520.3" cy="107.113" r="3.5" fill="#FF928A" stroke="white"/>
<path d="M90.7 141.092C144.4 141.092 144.4 137.014 198.1 137.014C251.8 137.014 251.8 36.4366 305.5 36.4366C359.2 36.4366 359.2 82.6481 412.9 82.6481C466.6 82.6481 466.6 123.423 520.3 123.423M520.3 123.423V123.423Z" stroke="#8979FF"/>
<circle cx="90.7" cy="141.092" r="3.5" fill="#8979FF" stroke="white"/>
<circle cx="198.1" cy="137.014" r="3.5" fill="#8979FF" stroke="white"/>
<circle cx="305.5" cy="36.4366" r="3.5" fill="#8979FF" stroke="white"/>
<circle cx="412.9" cy="82.6481" r="3.5" fill="#8979FF" stroke="white"/>
<circle cx="520.3" cy="123.423" r="3.5" fill="#8979FF" stroke="white"/>
<path d="M72.4102 175.189H73.467V181.427C73.467 181.984 73.3648 182.457 73.1602 182.846C72.9557 183.236 72.6673 183.531 72.2952 183.733C71.923 183.934 71.4841 184.035 70.9784 184.035C70.5011 184.035 70.0764 183.949 69.7043 183.775C69.3321 183.599 69.0395 183.349 68.8264 183.025C68.6134 182.702 68.5068 182.317 68.5068 181.871H69.5466C69.5466 182.118 69.6077 182.334 69.7298 182.518C69.8548 182.7 70.0253 182.842 70.2412 182.944C70.4571 183.047 70.7028 183.098 70.9784 183.098C71.2824 183.098 71.5409 183.034 71.754 182.906C71.967 182.778 72.129 182.591 72.2398 182.344C72.3534 182.094 72.4102 181.788 72.4102 181.427V175.189ZM77.3747 184.069C76.9599 184.069 76.5835 183.991 76.2455 183.835C75.9074 183.676 75.6389 183.447 75.4401 183.149C75.2412 182.848 75.1418 182.484 75.1418 182.058C75.1418 181.683 75.2156 181.379 75.3634 181.146C75.5111 180.91 75.7085 180.726 75.9557 180.592C76.2028 180.459 76.4756 180.359 76.7739 180.294C77.075 180.226 77.3776 180.172 77.6815 180.132C78.0793 180.081 78.4017 180.042 78.6489 180.017C78.8989 179.988 79.0807 179.942 79.1943 179.876C79.3108 179.811 79.369 179.697 79.369 179.535V179.501C79.369 179.081 79.254 178.754 79.0239 178.521C78.7966 178.288 78.4514 178.172 77.9884 178.172C77.5082 178.172 77.1318 178.277 76.8591 178.487C76.5864 178.697 76.3946 178.922 76.2838 179.16L75.3293 178.819C75.4997 178.422 75.727 178.112 76.0111 177.89C76.298 177.666 76.6105 177.51 76.9486 177.422C77.2895 177.331 77.6247 177.285 77.9543 177.285C78.1645 177.285 78.406 177.311 78.6787 177.362C78.9543 177.41 79.2199 177.511 79.4756 177.665C79.7341 177.818 79.9486 178.05 80.119 178.359C80.2895 178.669 80.3747 179.084 80.3747 179.604V183.916H79.369V183.03H79.3179C79.2497 183.172 79.1361 183.324 78.977 183.486C78.8179 183.648 78.6063 183.785 78.342 183.899C78.0778 184.013 77.7554 184.069 77.3747 184.069ZM77.5281 183.166C77.9259 183.166 78.2611 183.088 78.5338 182.932C78.8094 182.775 79.0168 182.574 79.156 182.327C79.298 182.079 79.369 181.819 79.369 181.547V180.626C79.3264 180.677 79.2327 180.724 79.0878 180.767C78.9457 180.807 78.781 180.842 78.5935 180.873C78.4088 180.902 78.2284 180.927 78.0523 180.95C77.879 180.97 77.7384 180.987 77.6304 181.001C77.369 181.035 77.1247 181.091 76.8974 181.167C76.673 181.241 76.4912 181.354 76.352 181.504C76.2156 181.652 76.1474 181.854 76.1474 182.109C76.1474 182.459 76.2767 182.723 76.5352 182.902C76.7966 183.078 77.1276 183.166 77.5281 183.166ZM83.216 179.979V183.916H82.2103V177.371H83.1819V178.393H83.2671C83.4205 178.061 83.6535 177.794 83.966 177.592C84.2785 177.388 84.6819 177.285 85.1762 177.285C85.6194 177.285 86.0072 177.376 86.3396 177.558C86.6719 177.737 86.9305 178.01 87.1151 178.376C87.2998 178.74 87.3921 179.2 87.3921 179.757V183.916H86.3864V179.825C86.3864 179.311 86.2529 178.91 85.9859 178.623C85.7188 178.334 85.3523 178.189 84.8864 178.189C84.5654 178.189 84.2785 178.258 84.0256 178.398C83.7756 178.537 83.5782 178.74 83.4333 179.007C83.2884 179.274 83.216 179.598 83.216 179.979ZM93.3548 181.24V177.371H94.3605V183.916H93.3548V182.808H93.2866C93.1332 183.14 92.8946 183.423 92.5707 183.656C92.2469 183.886 91.8378 184.001 91.3435 184.001C90.9344 184.001 90.5707 183.912 90.2526 183.733C89.9344 183.551 89.6844 183.278 89.5026 182.915C89.3207 182.548 89.2298 182.086 89.2298 181.53V177.371H90.2355V181.461C90.2355 181.939 90.369 182.319 90.6361 182.604C90.906 182.888 91.2497 183.03 91.6673 183.03C91.9173 183.03 92.1716 182.966 92.4301 182.838C92.6915 182.71 92.9102 182.514 93.0864 182.25C93.2653 181.986 93.3548 181.649 93.3548 181.24ZM98.1286 184.069C97.7139 184.069 97.3374 183.991 96.9994 183.835C96.6613 183.676 96.3928 183.447 96.194 183.149C95.9951 182.848 95.8957 182.484 95.8957 182.058C95.8957 181.683 95.9695 181.379 96.1173 181.146C96.265 180.91 96.4624 180.726 96.7096 180.592C96.9567 180.459 97.2295 180.359 97.5278 180.294C97.8289 180.226 98.1315 180.172 98.4354 180.132C98.8332 180.081 99.1556 180.042 99.4028 180.017C99.6528 179.988 99.8346 179.942 99.9482 179.876C100.065 179.811 100.123 179.697 100.123 179.535V179.501C100.123 179.081 100.008 178.754 99.7778 178.521C99.5505 178.288 99.2053 178.172 98.7423 178.172C98.2621 178.172 97.8857 178.277 97.613 178.487C97.3403 178.697 97.1485 178.922 97.0377 179.16L96.0832 178.819C96.2536 178.422 96.4809 178.112 96.765 177.89C97.0519 177.666 97.3644 177.51 97.7025 177.422C98.0434 177.331 98.3786 177.285 98.7082 177.285C98.9184 177.285 99.1599 177.311 99.4326 177.362C99.7082 177.41 99.9738 177.511 100.229 177.665C100.488 177.818 100.702 178.05 100.873 178.359C101.043 178.669 101.129 179.084 101.129 179.604V183.916H100.123V183.03H100.072C100.004 183.172 99.89 183.324 99.7309 183.486C99.5718 183.648 99.3602 183.785 99.096 183.899C98.8317 184.013 98.5093 184.069 98.1286 184.069ZM98.282 183.166C98.6798 183.166 99.015 183.088 99.2877 182.932C99.5633 182.775 99.7707 182.574 99.9099 182.327C100.052 182.079 100.123 181.819 100.123 181.547V180.626C100.08 180.677 99.9866 180.724 99.8417 180.767C99.6996 180.807 99.5349 180.842 99.3474 180.873C99.1627 180.902 98.9823 180.927 98.8062 180.95C98.6329 180.97 98.4923 180.987 98.3843 181.001C98.1229 181.035 97.8786 181.091 97.6514 181.167C97.4269 181.241 97.2451 181.354 97.1059 181.504C96.9695 181.652 96.9014 181.854 96.9014 182.109C96.9014 182.459 97.0306 182.723 97.2891 182.902C97.5505 183.078 97.8815 183.166 98.282 183.166ZM102.964 183.916V177.371H103.936V178.359H104.004C104.123 178.035 104.339 177.773 104.652 177.571C104.964 177.369 105.316 177.268 105.709 177.268C105.782 177.268 105.875 177.27 105.986 177.273C106.096 177.275 106.18 177.28 106.237 177.285V178.308C106.203 178.3 106.125 178.287 106.003 178.27C105.883 178.25 105.757 178.24 105.623 178.24C105.305 178.24 105.021 178.307 104.771 178.44C104.524 178.571 104.328 178.753 104.183 178.986C104.041 179.216 103.97 179.479 103.97 179.774V183.916H102.964ZM108.276 186.371C108.106 186.371 107.954 186.356 107.82 186.328C107.687 186.302 107.594 186.277 107.543 186.251L107.799 185.365C108.043 185.427 108.259 185.45 108.446 185.433C108.634 185.416 108.8 185.332 108.945 185.182C109.093 185.034 109.228 184.794 109.35 184.461L109.537 183.95L107.117 177.371H108.208L110.015 182.586H110.083L111.89 177.371H112.981L110.202 184.871C110.077 185.209 109.922 185.488 109.738 185.71C109.553 185.934 109.338 186.101 109.094 186.209C108.853 186.317 108.58 186.371 108.276 186.371Z" fill="black" fill-opacity="0.7"/>
<path d="M173.885 183.916V175.189H179.118V176.126H174.942V179.075H178.726V180.013H174.942V183.916H173.885ZM183.056 184.052C182.425 184.052 181.881 183.913 181.424 183.635C180.969 183.354 180.618 182.961 180.371 182.459C180.127 181.953 180.005 181.365 180.005 180.694C180.005 180.024 180.127 179.433 180.371 178.922C180.618 178.407 180.962 178.007 181.402 177.72C181.846 177.43 182.363 177.285 182.954 177.285C183.294 177.285 183.631 177.342 183.963 177.456C184.296 177.569 184.598 177.754 184.871 178.01C185.144 178.263 185.361 178.598 185.523 179.015C185.685 179.433 185.766 179.947 185.766 180.558V180.984H180.721V180.115H184.743C184.743 179.746 184.669 179.416 184.522 179.126C184.377 178.836 184.169 178.608 183.9 178.44C183.632 178.273 183.317 178.189 182.954 178.189C182.553 178.189 182.206 178.288 181.914 178.487C181.624 178.683 181.401 178.939 181.245 179.254C181.088 179.569 181.01 179.907 181.01 180.268V180.848C181.01 181.342 181.096 181.761 181.266 182.105C181.439 182.446 181.679 182.706 181.986 182.885C182.293 183.061 182.65 183.149 183.056 183.149C183.32 183.149 183.559 183.112 183.772 183.038C183.988 182.961 184.174 182.848 184.33 182.697C184.486 182.544 184.607 182.354 184.692 182.126L185.664 182.399C185.561 182.729 185.39 183.018 185.148 183.268C184.907 183.515 184.608 183.709 184.253 183.848C183.898 183.984 183.499 184.052 183.056 184.052ZM187.432 183.916V175.189H188.438V178.41H188.523C188.597 178.297 188.699 178.152 188.83 177.976C188.963 177.797 189.154 177.638 189.401 177.498C189.651 177.356 189.989 177.285 190.415 177.285C190.966 177.285 191.452 177.423 191.873 177.699C192.293 177.974 192.621 178.365 192.857 178.871C193.093 179.376 193.211 179.973 193.211 180.66C193.211 181.354 193.093 181.954 192.857 182.463C192.621 182.969 192.294 183.361 191.877 183.639C191.459 183.915 190.978 184.052 190.432 184.052C190.012 184.052 189.675 183.983 189.422 183.844C189.169 183.702 188.975 183.541 188.838 183.362C188.702 183.18 188.597 183.03 188.523 182.91H188.404V183.916H187.432ZM188.421 180.643C188.421 181.138 188.493 181.574 188.638 181.952C188.783 182.327 188.995 182.621 189.273 182.834C189.552 183.044 189.892 183.149 190.296 183.149C190.716 183.149 191.067 183.038 191.348 182.817C191.632 182.592 191.846 182.291 191.988 181.913C192.132 181.532 192.205 181.109 192.205 180.643C192.205 180.183 192.134 179.768 191.992 179.399C191.853 179.027 191.641 178.733 191.357 178.517C191.076 178.298 190.722 178.189 190.296 178.189C189.887 178.189 189.543 178.292 189.265 178.5C188.986 178.704 188.776 178.991 188.634 179.361C188.492 179.727 188.421 180.155 188.421 180.643ZM194.749 183.916V177.371H195.721V178.359H195.789C195.908 178.035 196.124 177.773 196.436 177.571C196.749 177.369 197.101 177.268 197.493 177.268C197.567 177.268 197.659 177.27 197.77 177.273C197.881 177.275 197.965 177.28 198.022 177.285V178.308C197.988 178.3 197.909 178.287 197.787 178.27C197.668 178.25 197.542 178.24 197.408 178.24C197.09 178.24 196.806 178.307 196.556 178.44C196.309 178.571 196.113 178.753 195.968 178.986C195.826 179.216 195.755 179.479 195.755 179.774V183.916H194.749ZM203.339 181.24V177.371H204.344V183.916H203.339V182.808H203.271C203.117 183.14 202.879 183.423 202.555 183.656C202.231 183.886 201.822 184.001 201.327 184.001C200.918 184.001 200.555 183.912 200.237 183.733C199.918 183.551 199.668 183.278 199.487 182.915C199.305 182.548 199.214 182.086 199.214 181.53V177.371H200.219V181.461C200.219 181.939 200.353 182.319 200.62 182.604C200.89 182.888 201.234 183.03 201.651 183.03C201.901 183.03 202.156 182.966 202.414 182.838C202.675 182.71 202.894 182.514 203.07 182.25C203.249 181.986 203.339 181.649 203.339 181.24ZM208.113 184.069C207.698 184.069 207.321 183.991 206.983 183.835C206.645 183.676 206.377 183.447 206.178 183.149C205.979 182.848 205.88 182.484 205.88 182.058C205.88 181.683 205.954 181.379 206.101 181.146C206.249 180.91 206.446 180.726 206.694 180.592C206.941 180.459 207.213 180.359 207.512 180.294C207.813 180.226 208.115 180.172 208.419 180.132C208.817 180.081 209.14 180.042 209.387 180.017C209.637 179.988 209.819 179.942 209.932 179.876C210.049 179.811 210.107 179.697 210.107 179.535V179.501C210.107 179.081 209.992 178.754 209.762 178.521C209.534 178.288 209.189 178.172 208.726 178.172C208.246 178.172 207.87 178.277 207.597 178.487C207.324 178.697 207.132 178.922 207.022 179.16L206.067 178.819C206.238 178.422 206.465 178.112 206.749 177.89C207.036 177.666 207.348 177.51 207.686 177.422C208.027 177.331 208.363 177.285 208.692 177.285C208.902 177.285 209.144 177.311 209.417 177.362C209.692 177.41 209.958 177.511 210.213 177.665C210.472 177.818 210.686 178.05 210.857 178.359C211.027 178.669 211.113 179.084 211.113 179.604V183.916H210.107V183.03H210.056C209.988 183.172 209.874 183.324 209.715 183.486C209.556 183.648 209.344 183.785 209.08 183.899C208.816 184.013 208.493 184.069 208.113 184.069ZM208.266 183.166C208.664 183.166 208.999 183.088 209.272 182.932C209.547 182.775 209.755 182.574 209.894 182.327C210.036 182.079 210.107 181.819 210.107 181.547V180.626C210.064 180.677 209.971 180.724 209.826 180.767C209.684 180.807 209.519 180.842 209.331 180.873C209.147 180.902 208.966 180.927 208.79 180.95C208.617 180.97 208.476 180.987 208.368 181.001C208.107 181.035 207.863 181.091 207.635 181.167C207.411 181.241 207.229 181.354 207.09 181.504C206.954 181.652 206.885 181.854 206.885 182.109C206.885 182.459 207.015 182.723 207.273 182.902C207.534 183.078 207.865 183.166 208.266 183.166ZM212.948 183.916V177.371H213.92V178.359H213.988C214.107 178.035 214.323 177.773 214.636 177.571C214.948 177.369 215.3 177.268 215.692 177.268C215.766 177.268 215.859 177.27 215.969 177.273C216.08 177.275 216.164 177.28 216.221 177.285V178.308C216.187 178.3 216.109 178.287 215.987 178.27C215.867 178.25 215.741 178.24 215.607 178.24C215.289 178.24 215.005 178.307 214.755 178.44C214.508 178.571 214.312 178.753 214.167 178.986C214.025 179.216 213.954 179.479 213.954 179.774V183.916H212.948ZM218.26 186.371C218.09 186.371 217.938 186.356 217.804 186.328C217.67 186.302 217.578 186.277 217.527 186.251L217.783 185.365C218.027 185.427 218.243 185.45 218.43 185.433C218.618 185.416 218.784 185.332 218.929 185.182C219.077 185.034 219.212 184.794 219.334 184.461L219.521 183.95L217.101 177.371H218.192L219.999 182.586H220.067L221.874 177.371H222.965L220.186 184.871C220.061 185.209 219.906 185.488 219.722 185.71C219.537 185.934 219.322 186.101 219.078 186.209C218.837 186.317 218.564 186.371 218.26 186.371Z" fill="black" fill-opacity="0.7"/>
<path d="M288.809 175.189H290.07L293.036 182.433H293.138L296.104 175.189H297.366V183.916H296.377V177.285H296.292L293.564 183.916H292.61L289.883 177.285H289.797V183.916H288.809V175.189ZM301.274 184.069C300.86 184.069 300.483 183.991 300.145 183.835C299.807 183.676 299.539 183.447 299.34 183.149C299.141 182.848 299.041 182.484 299.041 182.058C299.041 181.683 299.115 181.379 299.263 181.146C299.411 180.91 299.608 180.726 299.855 180.592C300.102 180.459 300.375 180.359 300.673 180.294C300.975 180.226 301.277 180.172 301.581 180.132C301.979 180.081 302.301 180.042 302.548 180.017C302.798 179.988 302.98 179.942 303.094 179.876C303.21 179.811 303.269 179.697 303.269 179.535V179.501C303.269 179.081 303.154 178.754 302.923 178.521C302.696 178.288 302.351 178.172 301.888 178.172C301.408 178.172 301.031 178.277 300.759 178.487C300.486 178.697 300.294 178.922 300.183 179.16L299.229 178.819C299.399 178.422 299.627 178.112 299.911 177.89C300.198 177.666 300.51 177.51 300.848 177.422C301.189 177.331 301.524 177.285 301.854 177.285C302.064 177.285 302.306 177.311 302.578 177.362C302.854 177.41 303.119 177.511 303.375 177.665C303.634 177.818 303.848 178.05 304.019 178.359C304.189 178.669 304.274 179.084 304.274 179.604V183.916H303.269V183.03H303.217C303.149 183.172 303.036 183.324 302.877 183.486C302.717 183.648 302.506 183.785 302.242 183.899C301.977 184.013 301.655 184.069 301.274 184.069ZM301.428 183.166C301.825 183.166 302.161 183.088 302.433 182.932C302.709 182.775 302.916 182.574 303.056 182.327C303.198 182.079 303.269 181.819 303.269 181.547V180.626C303.226 180.677 303.132 180.724 302.987 180.767C302.845 180.807 302.681 180.842 302.493 180.873C302.308 180.902 302.128 180.927 301.952 180.95C301.779 180.97 301.638 180.987 301.53 181.001C301.269 181.035 301.024 181.091 300.797 181.167C300.573 181.241 300.391 181.354 300.252 181.504C300.115 181.652 300.047 181.854 300.047 182.109C300.047 182.459 300.176 182.723 300.435 182.902C300.696 183.078 301.027 183.166 301.428 183.166ZM306.11 183.916V177.371H307.081V178.359H307.15C307.269 178.035 307.485 177.773 307.797 177.571C308.11 177.369 308.462 177.268 308.854 177.268C308.928 177.268 309.02 177.27 309.131 177.273C309.242 177.275 309.326 177.28 309.383 177.285V178.308C309.349 178.3 309.27 178.287 309.148 178.27C309.029 178.25 308.903 178.24 308.769 178.24C308.451 178.24 308.167 178.307 307.917 178.44C307.67 178.571 307.474 178.753 307.329 178.986C307.187 179.216 307.116 179.479 307.116 179.774V183.916H306.11ZM313.035 184.052C312.421 184.052 311.893 183.907 311.449 183.618C311.006 183.328 310.665 182.929 310.427 182.42C310.188 181.912 310.069 181.331 310.069 180.677C310.069 180.013 310.191 179.426 310.435 178.917C310.682 178.406 311.026 178.007 311.466 177.72C311.91 177.43 312.427 177.285 313.018 177.285C313.478 177.285 313.893 177.371 314.262 177.541C314.631 177.711 314.934 177.95 315.17 178.257C315.405 178.564 315.552 178.922 315.608 179.331H314.603C314.526 179.032 314.356 178.768 314.091 178.538C313.83 178.305 313.478 178.189 313.035 178.189C312.643 178.189 312.299 178.291 312.003 178.496C311.711 178.697 311.482 178.983 311.317 179.352C311.155 179.719 311.074 180.149 311.074 180.643C311.074 181.149 311.154 181.589 311.313 181.964C311.475 182.339 311.702 182.631 311.995 182.838C312.29 183.045 312.637 183.149 313.035 183.149C313.296 183.149 313.533 183.104 313.746 183.013C313.959 182.922 314.14 182.791 314.287 182.621C314.435 182.45 314.54 182.246 314.603 182.007H315.608C315.552 182.393 315.411 182.741 315.187 183.051C314.965 183.358 314.671 183.602 314.304 183.784C313.941 183.963 313.518 184.052 313.035 184.052ZM318.084 179.979V183.916H317.079V175.189H318.084V178.393H318.17C318.323 178.055 318.553 177.787 318.86 177.588C319.17 177.386 319.581 177.285 320.096 177.285C320.542 177.285 320.932 177.375 321.268 177.554C321.603 177.73 321.863 178.001 322.047 178.368C322.235 178.731 322.329 179.194 322.329 179.757V183.916H321.323V179.825C321.323 179.305 321.188 178.903 320.918 178.619C320.651 178.332 320.28 178.189 319.806 178.189C319.476 178.189 319.181 178.258 318.92 178.398C318.661 178.537 318.456 178.74 318.306 179.007C318.158 179.274 318.084 179.598 318.084 179.979Z" fill="black" fill-opacity="0.7"/>
<path d="M401.524 183.916H400.416L403.62 175.189H404.711L407.916 183.916H406.808L404.2 176.569H404.132L401.524 183.916ZM401.933 180.507H406.399V181.444H401.933V180.507ZM409.139 186.371V177.371H410.11V178.41H410.23C410.304 178.297 410.406 178.152 410.537 177.976C410.67 177.797 410.86 177.638 411.108 177.498C411.358 177.356 411.696 177.285 412.122 177.285C412.673 177.285 413.159 177.423 413.579 177.699C414 177.974 414.328 178.365 414.564 178.871C414.799 179.376 414.917 179.973 414.917 180.66C414.917 181.354 414.799 181.954 414.564 182.463C414.328 182.969 414.001 183.361 413.583 183.639C413.166 183.915 412.684 184.052 412.139 184.052C411.718 184.052 411.382 183.983 411.129 183.844C410.876 183.702 410.681 183.541 410.545 183.362C410.409 183.18 410.304 183.03 410.23 182.91H410.144V186.371H409.139ZM410.127 180.643C410.127 181.138 410.2 181.574 410.345 181.952C410.49 182.327 410.701 182.621 410.98 182.834C411.258 183.044 411.599 183.149 412.002 183.149C412.423 183.149 412.774 183.038 413.055 182.817C413.339 182.592 413.552 182.291 413.694 181.913C413.839 181.532 413.912 181.109 413.912 180.643C413.912 180.183 413.841 179.768 413.698 179.399C413.559 179.027 413.348 178.733 413.064 178.517C412.782 178.298 412.429 178.189 412.002 178.189C411.593 178.189 411.25 178.292 410.971 178.5C410.693 178.704 410.483 178.991 410.341 179.361C410.198 179.727 410.127 180.155 410.127 180.643ZM416.451 183.916V177.371H417.423V178.359H417.491C417.61 178.035 417.826 177.773 418.139 177.571C418.451 177.369 418.804 177.268 419.196 177.268C419.269 177.268 419.362 177.27 419.473 177.273C419.583 177.275 419.667 177.28 419.724 177.285V178.308C419.69 178.3 419.612 178.287 419.49 178.27C419.37 178.25 419.244 178.24 419.11 178.24C418.792 178.24 418.508 178.307 418.258 178.44C418.011 178.571 417.815 178.753 417.67 178.986C417.528 179.216 417.457 179.479 417.457 179.774V183.916H416.451ZM420.916 183.916V177.371H421.922V183.916H420.916ZM421.428 176.28C421.231 176.28 421.062 176.213 420.92 176.079C420.781 175.946 420.712 175.785 420.712 175.598C420.712 175.41 420.781 175.25 420.92 175.116C421.062 174.983 421.231 174.916 421.428 174.916C421.624 174.916 421.791 174.983 421.93 175.116C422.072 175.25 422.143 175.41 422.143 175.598C422.143 175.785 422.072 175.946 421.93 176.079C421.791 176.213 421.624 176.28 421.428 176.28ZM424.769 175.189V183.916H423.764V175.189H424.769Z" fill="black" fill-opacity="0.7"/>
<path d="M509.415 175.189H510.677L513.643 182.433H513.745L516.711 175.189H517.972V183.916H516.984V177.285H516.898L514.171 183.916H513.217L510.489 177.285H510.404V183.916H509.415V175.189ZM521.881 184.069C521.466 184.069 521.09 183.991 520.752 183.835C520.414 183.676 520.145 183.447 519.946 183.149C519.747 182.848 519.648 182.484 519.648 182.058C519.648 181.683 519.722 181.379 519.87 181.146C520.017 180.91 520.215 180.726 520.462 180.592C520.709 180.459 520.982 180.359 521.28 180.294C521.581 180.226 521.884 180.172 522.188 180.132C522.585 180.081 522.908 180.042 523.155 180.017C523.405 179.988 523.587 179.942 523.701 179.876C523.817 179.811 523.875 179.697 523.875 179.535V179.501C523.875 179.081 523.76 178.754 523.53 178.521C523.303 178.288 522.958 178.172 522.495 178.172C522.014 178.172 521.638 178.277 521.365 178.487C521.093 178.697 520.901 178.922 520.79 179.16L519.835 178.819C520.006 178.422 520.233 178.112 520.517 177.89C520.804 177.666 521.117 177.51 521.455 177.422C521.796 177.331 522.131 177.285 522.46 177.285C522.671 177.285 522.912 177.311 523.185 177.362C523.46 177.41 523.726 177.511 523.982 177.665C524.24 177.818 524.455 178.05 524.625 178.359C524.796 178.669 524.881 179.084 524.881 179.604V183.916H523.875V183.03H523.824C523.756 183.172 523.642 183.324 523.483 183.486C523.324 183.648 523.112 183.785 522.848 183.899C522.584 184.013 522.262 184.069 521.881 184.069ZM522.034 183.166C522.432 183.166 522.767 183.088 523.04 182.932C523.316 182.775 523.523 182.574 523.662 182.327C523.804 182.079 523.875 181.819 523.875 181.547V180.626C523.833 180.677 523.739 180.724 523.594 180.767C523.452 180.807 523.287 180.842 523.1 180.873C522.915 180.902 522.735 180.927 522.559 180.95C522.385 180.97 522.245 180.987 522.137 181.001C521.875 181.035 521.631 181.091 521.404 181.167C521.179 181.241 520.997 181.354 520.858 181.504C520.722 181.652 520.654 181.854 520.654 182.109C520.654 182.459 520.783 182.723 521.041 182.902C521.303 183.078 521.634 183.166 522.034 183.166ZM527.13 186.371C526.959 186.371 526.807 186.356 526.674 186.328C526.54 186.302 526.448 186.277 526.397 186.251L526.653 185.365C526.897 185.427 527.113 185.45 527.3 185.433C527.488 185.416 527.654 185.332 527.799 185.182C527.947 185.034 528.082 184.794 528.204 184.461L528.391 183.95L525.971 177.371H527.062L528.869 182.586H528.937L530.744 177.371H531.834L529.056 184.871C528.931 185.209 528.776 185.488 528.592 185.71C528.407 185.934 528.192 186.101 527.948 186.209C527.707 186.317 527.434 186.371 527.13 186.371Z" fill="black" fill-opacity="0.7"/>
<g clip-path="url(#clip0_3384_7085)">
<g clip-path="url(#clip1_3384_7085)">
<rect x="96.5" y="205.916" width="16" height="2" fill="#8979FF"/>
<circle cx="104.5" cy="206.916" r="3.5" fill="#8979FF" stroke="white"/>
<path d="M124.58 205.416H123.523C123.46 205.112 123.351 204.845 123.195 204.615C123.041 204.385 122.854 204.192 122.632 204.035C122.413 203.876 122.17 203.757 121.903 203.677C121.636 203.598 121.358 203.558 121.068 203.558C120.54 203.558 120.061 203.692 119.632 203.959C119.206 204.226 118.866 204.619 118.614 205.139C118.364 205.659 118.239 206.297 118.239 207.052C118.239 207.808 118.364 208.446 118.614 208.966C118.866 209.486 119.206 209.879 119.632 210.146C120.061 210.413 120.54 210.547 121.068 210.547C121.358 210.547 121.636 210.507 121.903 210.427C122.17 210.348 122.413 210.23 122.632 210.074C122.854 209.915 123.041 209.72 123.195 209.49C123.351 209.257 123.46 208.99 123.523 208.689H124.58C124.5 209.135 124.355 209.534 124.145 209.886C123.935 210.238 123.673 210.538 123.361 210.785C123.048 211.03 122.697 211.216 122.308 211.344C121.922 211.471 121.509 211.535 121.068 211.535C120.324 211.535 119.662 211.354 119.082 210.99C118.503 210.626 118.047 210.109 117.714 209.439C117.382 208.768 117.216 207.973 117.216 207.052C117.216 206.132 117.382 205.336 117.714 204.666C118.047 203.996 118.503 203.479 119.082 203.115C119.662 202.751 120.324 202.569 121.068 202.569C121.509 202.569 121.922 202.633 122.308 202.761C122.697 202.889 123.048 203.077 123.361 203.324C123.673 203.568 123.935 203.866 124.145 204.219C124.355 204.568 124.5 204.967 124.58 205.416ZM128.077 211.569C127.662 211.569 127.286 211.491 126.948 211.335C126.61 211.176 126.341 210.947 126.142 210.649C125.944 210.348 125.844 209.984 125.844 209.558C125.844 209.183 125.918 208.879 126.066 208.646C126.213 208.41 126.411 208.226 126.658 208.092C126.905 207.959 127.178 207.859 127.476 207.794C127.777 207.726 128.08 207.672 128.384 207.632C128.782 207.581 129.104 207.542 129.351 207.517C129.601 207.488 129.783 207.442 129.897 207.376C130.013 207.311 130.071 207.197 130.071 207.035V207.001C130.071 206.581 129.956 206.254 129.726 206.021C129.499 205.788 129.154 205.672 128.691 205.672C128.211 205.672 127.834 205.777 127.561 205.987C127.289 206.197 127.097 206.422 126.986 206.66L126.032 206.319C126.202 205.922 126.429 205.612 126.713 205.39C127 205.166 127.313 205.01 127.651 204.922C127.992 204.831 128.327 204.785 128.657 204.785C128.867 204.785 129.108 204.811 129.381 204.862C129.657 204.91 129.922 205.011 130.178 205.165C130.436 205.318 130.651 205.55 130.821 205.859C130.992 206.169 131.077 206.584 131.077 207.104V211.416H130.071V210.53H130.02C129.952 210.672 129.838 210.824 129.679 210.986C129.52 211.148 129.309 211.285 129.044 211.399C128.78 211.513 128.458 211.569 128.077 211.569ZM128.23 210.666C128.628 210.666 128.963 210.588 129.236 210.432C129.512 210.275 129.719 210.074 129.858 209.827C130 209.579 130.071 209.319 130.071 209.047V208.126C130.029 208.177 129.935 208.224 129.79 208.267C129.648 208.307 129.483 208.342 129.296 208.373C129.111 208.402 128.931 208.427 128.755 208.45C128.581 208.47 128.441 208.487 128.333 208.501C128.071 208.535 127.827 208.591 127.6 208.667C127.375 208.741 127.194 208.854 127.054 209.004C126.918 209.152 126.85 209.354 126.85 209.609C126.85 209.959 126.979 210.223 127.238 210.402C127.499 210.578 127.83 210.666 128.23 210.666ZM133.918 207.479V211.416H132.913V204.871H133.884V205.893H133.969C134.123 205.561 134.356 205.294 134.668 205.092C134.981 204.888 135.384 204.785 135.879 204.785C136.322 204.785 136.71 204.876 137.042 205.058C137.374 205.237 137.633 205.51 137.817 205.876C138.002 206.24 138.094 206.7 138.094 207.257V211.416H137.089V207.325C137.089 206.811 136.955 206.41 136.688 206.123C136.421 205.834 136.055 205.689 135.589 205.689C135.268 205.689 134.981 205.758 134.728 205.898C134.478 206.037 134.281 206.24 134.136 206.507C133.991 206.774 133.918 207.098 133.918 207.479ZM142.404 211.552C141.858 211.552 141.377 211.415 140.959 211.139C140.542 210.861 140.215 210.469 139.979 209.963C139.743 209.454 139.625 208.854 139.625 208.16C139.625 207.473 139.743 206.876 139.979 206.371C140.215 205.865 140.543 205.474 140.963 205.199C141.384 204.923 141.87 204.785 142.421 204.785C142.847 204.785 143.184 204.856 143.431 204.998C143.681 205.138 143.871 205.297 144.002 205.476C144.135 205.652 144.239 205.797 144.313 205.91H144.398V202.689H145.404V211.416H144.432V210.41H144.313C144.239 210.53 144.134 210.68 143.998 210.862C143.861 211.041 143.667 211.202 143.414 211.344C143.161 211.483 142.824 211.552 142.404 211.552ZM142.54 210.649C142.944 210.649 143.284 210.544 143.563 210.334C143.841 210.121 144.053 209.827 144.198 209.452C144.343 209.074 144.415 208.638 144.415 208.143C144.415 207.655 144.344 207.227 144.202 206.861C144.06 206.491 143.85 206.204 143.571 206C143.293 205.792 142.949 205.689 142.54 205.689C142.114 205.689 141.759 205.798 141.475 206.017C141.194 206.233 140.982 206.527 140.84 206.899C140.701 207.268 140.631 207.683 140.631 208.143C140.631 208.609 140.702 209.032 140.844 209.413C140.989 209.791 141.202 210.092 141.483 210.317C141.767 210.538 142.12 210.649 142.54 210.649ZM147.385 211.416V204.871H148.391V211.416H147.385ZM147.897 203.78C147.701 203.78 147.532 203.713 147.39 203.579C147.25 203.446 147.181 203.285 147.181 203.098C147.181 202.91 147.25 202.75 147.39 202.616C147.532 202.483 147.701 202.416 147.897 202.416C148.093 202.416 148.26 202.483 148.4 202.616C148.542 202.75 148.613 202.91 148.613 203.098C148.613 203.285 148.542 203.446 148.4 203.579C148.26 203.713 148.093 203.78 147.897 203.78ZM152.705 211.552C152.159 211.552 151.678 211.415 151.26 211.139C150.842 210.861 150.516 210.469 150.28 209.963C150.044 209.454 149.926 208.854 149.926 208.16C149.926 207.473 150.044 206.876 150.28 206.371C150.516 205.865 150.844 205.474 151.264 205.199C151.685 204.923 152.17 204.785 152.722 204.785C153.148 204.785 153.484 204.856 153.732 204.998C153.982 205.138 154.172 205.297 154.303 205.476C154.436 205.652 154.54 205.797 154.614 205.91H154.699V202.689H155.705V211.416H154.733V210.41H154.614C154.54 210.53 154.435 210.68 154.298 210.862C154.162 211.041 153.967 211.202 153.714 211.344C153.462 211.483 153.125 211.552 152.705 211.552ZM152.841 210.649C153.244 210.649 153.585 210.544 153.864 210.334C154.142 210.121 154.354 209.827 154.499 209.452C154.643 209.074 154.716 208.638 154.716 208.143C154.716 207.655 154.645 207.227 154.503 206.861C154.361 206.491 154.151 206.204 153.872 206C153.594 205.792 153.25 205.689 152.841 205.689C152.415 205.689 152.06 205.798 151.776 206.017C151.494 206.233 151.283 206.527 151.141 206.899C151.001 207.268 150.932 207.683 150.932 208.143C150.932 208.609 151.003 209.032 151.145 209.413C151.29 209.791 151.503 210.092 151.784 210.317C152.068 210.538 152.42 210.649 152.841 210.649ZM159.612 211.569C159.197 211.569 158.821 211.491 158.483 211.335C158.145 211.176 157.876 210.947 157.678 210.649C157.479 210.348 157.379 209.984 157.379 209.558C157.379 209.183 157.453 208.879 157.601 208.646C157.749 208.41 157.946 208.226 158.193 208.092C158.44 207.959 158.713 207.859 159.011 207.794C159.313 207.726 159.615 207.672 159.919 207.632C160.317 207.581 160.639 207.542 160.886 207.517C161.136 207.488 161.318 207.442 161.432 207.376C161.548 207.311 161.607 207.197 161.607 207.035V207.001C161.607 206.581 161.491 206.254 161.261 206.021C161.034 205.788 160.689 205.672 160.226 205.672C159.746 205.672 159.369 205.777 159.097 205.987C158.824 206.197 158.632 206.422 158.521 206.66L157.567 206.319C157.737 205.922 157.964 205.612 158.249 205.39C158.536 205.166 158.848 205.01 159.186 204.922C159.527 204.831 159.862 204.785 160.192 204.785C160.402 204.785 160.643 204.811 160.916 204.862C161.192 204.91 161.457 205.011 161.713 205.165C161.972 205.318 162.186 205.55 162.357 205.859C162.527 206.169 162.612 206.584 162.612 207.104V211.416H161.607V210.53H161.555C161.487 210.672 161.374 210.824 161.214 210.986C161.055 211.148 160.844 211.285 160.58 211.399C160.315 211.513 159.993 211.569 159.612 211.569ZM159.766 210.666C160.163 210.666 160.499 210.588 160.771 210.432C161.047 210.275 161.254 210.074 161.393 209.827C161.536 209.579 161.607 209.319 161.607 209.047V208.126C161.564 208.177 161.47 208.224 161.325 208.267C161.183 208.307 161.018 208.342 160.831 208.373C160.646 208.402 160.466 208.427 160.29 208.45C160.116 208.47 159.976 208.487 159.868 208.501C159.607 208.535 159.362 208.591 159.135 208.667C158.911 208.741 158.729 208.854 158.589 209.004C158.453 209.152 158.385 209.354 158.385 209.609C158.385 209.959 158.514 210.223 158.773 210.402C159.034 210.578 159.365 210.666 159.766 210.666ZM167.294 204.871V205.723H163.902V204.871H167.294ZM164.891 203.302H165.897V209.541C165.897 209.825 165.938 210.038 166.02 210.18C166.105 210.319 166.213 210.413 166.344 210.461C166.478 210.507 166.618 210.53 166.766 210.53C166.877 210.53 166.968 210.524 167.039 210.513C167.11 210.498 167.167 210.487 167.209 210.479L167.414 211.382C167.346 211.407 167.25 211.433 167.128 211.459C167.006 211.487 166.851 211.501 166.664 211.501C166.38 211.501 166.101 211.44 165.828 211.318C165.559 211.196 165.334 211.01 165.155 210.76C164.979 210.51 164.891 210.194 164.891 209.814V203.302ZM171.481 211.552C170.85 211.552 170.306 211.413 169.849 211.135C169.395 210.854 169.044 210.461 168.797 209.959C168.552 209.453 168.43 208.865 168.43 208.194C168.43 207.524 168.552 206.933 168.797 206.422C169.044 205.907 169.387 205.507 169.828 205.22C170.271 204.93 170.788 204.785 171.379 204.785C171.72 204.785 172.056 204.842 172.389 204.956C172.721 205.069 173.024 205.254 173.297 205.51C173.569 205.763 173.787 206.098 173.949 206.515C174.11 206.933 174.191 207.447 174.191 208.058V208.484H169.146V207.615H173.169C173.169 207.246 173.095 206.916 172.947 206.626C172.802 206.336 172.595 206.108 172.325 205.94C172.058 205.773 171.743 205.689 171.379 205.689C170.978 205.689 170.632 205.788 170.339 205.987C170.049 206.183 169.826 206.439 169.67 206.754C169.514 207.069 169.436 207.407 169.436 207.768V208.348C169.436 208.842 169.521 209.261 169.691 209.605C169.865 209.946 170.105 210.206 170.412 210.385C170.718 210.561 171.075 210.649 171.481 210.649C171.745 210.649 171.984 210.612 172.197 210.538C172.413 210.461 172.599 210.348 172.755 210.197C172.912 210.044 173.032 209.854 173.118 209.626L174.089 209.899C173.987 210.229 173.815 210.518 173.574 210.768C173.332 211.015 173.034 211.209 172.679 211.348C172.324 211.484 171.924 211.552 171.481 211.552ZM180.358 206.336L179.454 206.592C179.397 206.442 179.314 206.295 179.203 206.153C179.095 206.008 178.947 205.889 178.76 205.795C178.572 205.702 178.332 205.655 178.039 205.655C177.639 205.655 177.305 205.747 177.038 205.932C176.774 206.113 176.642 206.345 176.642 206.626C176.642 206.876 176.733 207.074 176.914 207.219C177.096 207.363 177.38 207.484 177.767 207.581L178.738 207.819C179.324 207.961 179.76 208.179 180.047 208.471C180.333 208.761 180.477 209.135 180.477 209.592C180.477 209.967 180.369 210.302 180.153 210.598C179.94 210.893 179.642 211.126 179.258 211.297C178.875 211.467 178.429 211.552 177.92 211.552C177.252 211.552 176.7 211.407 176.262 211.118C175.825 210.828 175.548 210.405 175.431 209.848L176.386 209.609C176.477 209.961 176.649 210.226 176.902 210.402C177.157 210.578 177.491 210.666 177.903 210.666C178.372 210.666 178.744 210.567 179.02 210.368C179.298 210.166 179.437 209.925 179.437 209.643C179.437 209.416 179.358 209.226 179.199 209.072C179.039 208.916 178.795 208.8 178.466 208.723L177.375 208.467C176.775 208.325 176.335 208.105 176.054 207.807C175.775 207.506 175.636 207.129 175.636 206.677C175.636 206.308 175.74 205.981 175.947 205.697C176.157 205.413 176.443 205.19 176.804 205.028C177.167 204.866 177.579 204.785 178.039 204.785C178.687 204.785 179.196 204.927 179.565 205.211C179.937 205.496 180.201 205.871 180.358 206.336Z" fill="black" fill-opacity="0.7"/>
<rect x="197.5" y="205.916" width="16" height="2" fill="#FF928A"/>
<circle cx="205.5" cy="206.916" r="3.5" fill="#FF928A" stroke="white"/>
<path d="M225.58 205.416H224.523C224.46 205.112 224.351 204.845 224.195 204.615C224.041 204.385 223.854 204.192 223.632 204.035C223.413 203.876 223.17 203.757 222.903 203.677C222.636 203.598 222.358 203.558 222.068 203.558C221.54 203.558 221.061 203.692 220.632 203.959C220.206 204.226 219.866 204.619 219.614 205.139C219.364 205.659 219.239 206.297 219.239 207.052C219.239 207.808 219.364 208.446 219.614 208.966C219.866 209.486 220.206 209.879 220.632 210.146C221.061 210.413 221.54 210.547 222.068 210.547C222.358 210.547 222.636 210.507 222.903 210.427C223.17 210.348 223.413 210.23 223.632 210.074C223.854 209.915 224.041 209.72 224.195 209.49C224.351 209.257 224.46 208.99 224.523 208.689H225.58C225.5 209.135 225.355 209.534 225.145 209.886C224.935 210.238 224.673 210.538 224.361 210.785C224.048 211.03 223.697 211.216 223.308 211.344C222.922 211.471 222.509 211.535 222.068 211.535C221.324 211.535 220.662 211.354 220.082 210.99C219.503 210.626 219.047 210.109 218.714 209.439C218.382 208.768 218.216 207.973 218.216 207.052C218.216 206.132 218.382 205.336 218.714 204.666C219.047 203.996 219.503 203.479 220.082 203.115C220.662 202.751 221.324 202.569 222.068 202.569C222.509 202.569 222.922 202.633 223.308 202.761C223.697 202.889 224.048 203.077 224.361 203.324C224.673 203.568 224.935 203.866 225.145 204.219C225.355 204.568 225.5 204.967 225.58 205.416ZM229.81 211.552C229.219 211.552 228.701 211.412 228.255 211.131C227.811 210.849 227.465 210.456 227.215 209.95C226.968 209.444 226.844 208.854 226.844 208.177C226.844 207.496 226.968 206.9 227.215 206.392C227.465 205.883 227.811 205.488 228.255 205.207C228.701 204.926 229.219 204.785 229.81 204.785C230.401 204.785 230.918 204.926 231.361 205.207C231.807 205.488 232.154 205.883 232.401 206.392C232.651 206.9 232.776 207.496 232.776 208.177C232.776 208.854 232.651 209.444 232.401 209.95C232.154 210.456 231.807 210.849 231.361 211.131C230.918 211.412 230.401 211.552 229.81 211.552ZM229.81 210.649C230.259 210.649 230.628 210.534 230.918 210.304C231.208 210.074 231.422 209.771 231.561 209.396C231.701 209.021 231.77 208.615 231.77 208.177C231.77 207.74 231.701 207.332 231.561 206.954C231.422 206.577 231.208 206.271 230.918 206.038C230.628 205.805 230.259 205.689 229.81 205.689C229.361 205.689 228.992 205.805 228.702 206.038C228.412 206.271 228.198 206.577 228.059 206.954C227.919 207.332 227.85 207.74 227.85 208.177C227.85 208.615 227.919 209.021 228.059 209.396C228.198 209.771 228.412 210.074 228.702 210.304C228.992 210.534 229.361 210.649 229.81 210.649ZM234.311 211.416V204.871H235.283V205.893H235.368C235.504 205.544 235.724 205.273 236.028 205.079C236.332 204.883 236.697 204.785 237.124 204.785C237.555 204.785 237.915 204.883 238.202 205.079C238.491 205.273 238.717 205.544 238.879 205.893H238.947C239.115 205.555 239.366 205.287 239.702 205.088C240.037 204.886 240.439 204.785 240.908 204.785C241.493 204.785 241.972 204.969 242.344 205.335C242.716 205.699 242.902 206.265 242.902 207.035V211.416H241.896V207.035C241.896 206.552 241.764 206.207 241.5 206C241.236 205.792 240.925 205.689 240.567 205.689C240.107 205.689 239.75 205.828 239.497 206.106C239.244 206.382 239.118 206.731 239.118 207.155V211.416H238.095V206.933C238.095 206.561 237.974 206.261 237.733 206.034C237.491 205.804 237.18 205.689 236.8 205.689C236.538 205.689 236.294 205.758 236.067 205.898C235.842 206.037 235.661 206.23 235.521 206.477C235.385 206.721 235.317 207.004 235.317 207.325V211.416H234.311ZM244.741 213.871V204.871H245.712V205.91H245.832C245.906 205.797 246.008 205.652 246.138 205.476C246.272 205.297 246.462 205.138 246.71 204.998C246.96 204.856 247.298 204.785 247.724 204.785C248.275 204.785 248.761 204.923 249.181 205.199C249.602 205.474 249.93 205.865 250.165 206.371C250.401 206.876 250.519 207.473 250.519 208.16C250.519 208.854 250.401 209.454 250.165 209.963C249.93 210.469 249.603 210.861 249.185 211.139C248.768 211.415 248.286 211.552 247.741 211.552C247.32 211.552 246.984 211.483 246.731 211.344C246.478 211.202 246.283 211.041 246.147 210.862C246.011 210.68 245.906 210.53 245.832 210.41H245.746V213.871H244.741ZM245.729 208.143C245.729 208.638 245.802 209.074 245.947 209.452C246.092 209.827 246.303 210.121 246.582 210.334C246.86 210.544 247.201 210.649 247.604 210.649C248.025 210.649 248.376 210.538 248.657 210.317C248.941 210.092 249.154 209.791 249.296 209.413C249.441 209.032 249.513 208.609 249.513 208.143C249.513 207.683 249.442 207.268 249.3 206.899C249.161 206.527 248.95 206.233 248.665 206.017C248.384 205.798 248.031 205.689 247.604 205.689C247.195 205.689 246.852 205.792 246.573 206C246.295 206.204 246.085 206.491 245.942 206.861C245.8 207.227 245.729 207.655 245.729 208.143ZM253.979 211.569C253.565 211.569 253.188 211.491 252.85 211.335C252.512 211.176 252.244 210.947 252.045 210.649C251.846 210.348 251.746 209.984 251.746 209.558C251.746 209.183 251.82 208.879 251.968 208.646C252.116 208.41 252.313 208.226 252.56 208.092C252.808 207.959 253.08 207.859 253.379 207.794C253.68 207.726 253.982 207.672 254.286 207.632C254.684 207.581 255.006 207.542 255.254 207.517C255.504 207.488 255.685 207.442 255.799 207.376C255.915 207.311 255.974 207.197 255.974 207.035V207.001C255.974 206.581 255.859 206.254 255.629 206.021C255.401 205.788 255.056 205.672 254.593 205.672C254.113 205.672 253.737 205.777 253.464 205.987C253.191 206.197 252.999 206.422 252.888 206.66L251.934 206.319C252.104 205.922 252.332 205.612 252.616 205.39C252.903 205.166 253.215 205.01 253.553 204.922C253.894 204.831 254.229 204.785 254.559 204.785C254.769 204.785 255.011 204.811 255.283 204.862C255.559 204.91 255.825 205.011 256.08 205.165C256.339 205.318 256.553 205.55 256.724 205.859C256.894 206.169 256.979 206.584 256.979 207.104V211.416H255.974V210.53H255.923C255.854 210.672 255.741 210.824 255.582 210.986C255.423 211.148 255.211 211.285 254.947 211.399C254.683 211.513 254.36 211.569 253.979 211.569ZM254.133 210.666C254.531 210.666 254.866 210.588 255.138 210.432C255.414 210.275 255.621 210.074 255.761 209.827C255.903 209.579 255.974 209.319 255.974 209.047V208.126C255.931 208.177 255.837 208.224 255.692 208.267C255.55 208.307 255.386 208.342 255.198 208.373C255.013 208.402 254.833 208.427 254.657 208.45C254.484 208.47 254.343 208.487 254.235 208.501C253.974 208.535 253.729 208.591 253.502 208.667C253.278 208.741 253.096 208.854 252.957 209.004C252.82 209.152 252.752 209.354 252.752 209.609C252.752 209.959 252.881 210.223 253.14 210.402C253.401 210.578 253.732 210.666 254.133 210.666ZM259.821 207.479V211.416H258.815V204.871H259.787V205.893H259.872C260.025 205.561 260.258 205.294 260.571 205.092C260.883 204.888 261.287 204.785 261.781 204.785C262.224 204.785 262.612 204.876 262.944 205.058C263.277 205.237 263.535 205.51 263.72 205.876C263.904 206.24 263.997 206.7 263.997 207.257V211.416H262.991V207.325C262.991 206.811 262.858 206.41 262.591 206.123C262.324 205.834 261.957 205.689 261.491 205.689C261.17 205.689 260.883 205.758 260.63 205.898C260.38 206.037 260.183 206.24 260.038 206.507C259.893 206.774 259.821 207.098 259.821 207.479ZM265.835 211.416V204.871H266.84V211.416H265.835ZM266.346 203.78C266.15 203.78 265.981 203.713 265.839 203.579C265.7 203.446 265.63 203.285 265.63 203.098C265.63 202.91 265.7 202.75 265.839 202.616C265.981 202.483 266.15 202.416 266.346 202.416C266.542 202.416 266.71 202.483 266.849 202.616C266.991 202.75 267.062 202.91 267.062 203.098C267.062 203.285 266.991 203.446 266.849 203.579C266.71 203.713 266.542 203.78 266.346 203.78ZM271.426 211.552C270.796 211.552 270.252 211.413 269.794 211.135C269.34 210.854 268.989 210.461 268.742 209.959C268.498 209.453 268.375 208.865 268.375 208.194C268.375 207.524 268.498 206.933 268.742 206.422C268.989 205.907 269.333 205.507 269.773 205.22C270.216 204.93 270.733 204.785 271.324 204.785C271.665 204.785 272.002 204.842 272.334 204.956C272.667 205.069 272.969 205.254 273.242 205.51C273.515 205.763 273.732 206.098 273.894 206.515C274.056 206.933 274.137 207.447 274.137 208.058V208.484H269.091V207.615H273.114C273.114 207.246 273.04 206.916 272.892 206.626C272.748 206.336 272.54 206.108 272.27 205.94C272.003 205.773 271.688 205.689 271.324 205.689C270.924 205.689 270.577 205.788 270.284 205.987C269.995 206.183 269.772 206.439 269.615 206.754C269.459 207.069 269.381 207.407 269.381 207.768V208.348C269.381 208.842 269.466 209.261 269.637 209.605C269.81 209.946 270.05 210.206 270.357 210.385C270.664 210.561 271.02 210.649 271.426 210.649C271.691 210.649 271.929 210.612 272.142 210.538C272.358 210.461 272.544 210.348 272.701 210.197C272.857 210.044 272.978 209.854 273.063 209.626L274.034 209.899C273.932 210.229 273.76 210.518 273.519 210.768C273.277 211.015 272.979 211.209 272.624 211.348C272.269 211.484 271.87 211.552 271.426 211.552ZM280.303 206.336L279.4 206.592C279.343 206.442 279.259 206.295 279.148 206.153C279.04 206.008 278.892 205.889 278.705 205.795C278.517 205.702 278.277 205.655 277.985 205.655C277.584 205.655 277.25 205.747 276.983 205.932C276.719 206.113 276.587 206.345 276.587 206.626C276.587 206.876 276.678 207.074 276.86 207.219C277.042 207.363 277.326 207.484 277.712 207.581L278.684 207.819C279.269 207.961 279.705 208.179 279.992 208.471C280.279 208.761 280.422 209.135 280.422 209.592C280.422 209.967 280.314 210.302 280.098 210.598C279.885 210.893 279.587 211.126 279.203 211.297C278.82 211.467 278.374 211.552 277.865 211.552C277.198 211.552 276.645 211.407 276.208 211.118C275.77 210.828 275.493 210.405 275.377 209.848L276.331 209.609C276.422 209.961 276.594 210.226 276.847 210.402C277.103 210.578 277.436 210.666 277.848 210.666C278.317 210.666 278.689 210.567 278.965 210.368C279.243 210.166 279.382 209.925 279.382 209.643C279.382 209.416 279.303 209.226 279.144 209.072C278.985 208.916 278.74 208.8 278.411 208.723L277.32 208.467C276.721 208.325 276.28 208.105 275.999 207.807C275.721 207.506 275.581 207.129 275.581 206.677C275.581 206.308 275.685 205.981 275.892 205.697C276.103 205.413 276.388 205.19 276.749 205.028C277.113 204.866 277.525 204.785 277.985 204.785C278.632 204.785 279.141 204.927 279.51 205.211C279.882 205.496 280.147 205.871 280.303 206.336Z" fill="black" fill-opacity="0.7"/>
<rect x="297.5" y="205.916" width="16" height="2" fill="#3CC3DF"/>
<circle cx="305.5" cy="206.916" r="3.5" fill="#3CC3DF" stroke="white"/>
<path d="M318.557 202.689H319.818L322.784 209.933H322.886L325.852 202.689H327.114V211.416H326.125V204.785H326.04L323.312 211.416H322.358L319.631 204.785H319.545V211.416H318.557V202.689ZM331.022 211.569C330.608 211.569 330.231 211.491 329.893 211.335C329.555 211.176 329.287 210.947 329.088 210.649C328.889 210.348 328.789 209.984 328.789 209.558C328.789 209.183 328.863 208.879 329.011 208.646C329.159 208.41 329.356 208.226 329.603 208.092C329.85 207.959 330.123 207.859 330.422 207.794C330.723 207.726 331.025 207.672 331.329 207.632C331.727 207.581 332.049 207.542 332.297 207.517C332.547 207.488 332.728 207.442 332.842 207.376C332.958 207.311 333.017 207.197 333.017 207.035V207.001C333.017 206.581 332.902 206.254 332.672 206.021C332.444 205.788 332.099 205.672 331.636 205.672C331.156 205.672 330.779 205.777 330.507 205.987C330.234 206.197 330.042 206.422 329.931 206.66L328.977 206.319C329.147 205.922 329.375 205.612 329.659 205.39C329.946 205.166 330.258 205.01 330.596 204.922C330.937 204.831 331.272 204.785 331.602 204.785C331.812 204.785 332.054 204.811 332.326 204.862C332.602 204.91 332.868 205.011 333.123 205.165C333.382 205.318 333.596 205.55 333.767 205.859C333.937 206.169 334.022 206.584 334.022 207.104V211.416H333.017V210.53H332.966C332.897 210.672 332.784 210.824 332.625 210.986C332.466 211.148 332.254 211.285 331.99 211.399C331.725 211.513 331.403 211.569 331.022 211.569ZM331.176 210.666C331.574 210.666 331.909 210.588 332.181 210.432C332.457 210.275 332.664 210.074 332.804 209.827C332.946 209.579 333.017 209.319 333.017 209.047V208.126C332.974 208.177 332.88 208.224 332.735 208.267C332.593 208.307 332.429 208.342 332.241 208.373C332.056 208.402 331.876 208.427 331.7 208.45C331.527 208.47 331.386 208.487 331.278 208.501C331.017 208.535 330.772 208.591 330.545 208.667C330.321 208.741 330.139 208.854 330 209.004C329.863 209.152 329.795 209.354 329.795 209.609C329.795 209.959 329.924 210.223 330.183 210.402C330.444 210.578 330.775 210.666 331.176 210.666ZM338.705 204.871V205.723H335.312V204.871H338.705ZM336.301 203.302H337.307V209.541C337.307 209.825 337.348 210.038 337.43 210.18C337.516 210.319 337.624 210.413 337.754 210.461C337.888 210.507 338.028 210.53 338.176 210.53C338.287 210.53 338.378 210.524 338.449 210.513C338.52 210.498 338.577 210.487 338.619 210.479L338.824 211.382C338.756 211.407 338.661 211.433 338.538 211.459C338.416 211.487 338.261 211.501 338.074 211.501C337.79 211.501 337.511 211.44 337.239 211.318C336.969 211.196 336.744 211.01 336.565 210.76C336.389 210.51 336.301 210.194 336.301 209.814V203.302ZM342.806 211.552C342.192 211.552 341.664 211.407 341.221 211.118C340.778 210.828 340.437 210.429 340.198 209.92C339.96 209.412 339.84 208.831 339.84 208.177C339.84 207.513 339.962 206.926 340.207 206.417C340.454 205.906 340.798 205.507 341.238 205.22C341.681 204.93 342.198 204.785 342.789 204.785C343.249 204.785 343.664 204.871 344.033 205.041C344.403 205.211 344.705 205.45 344.941 205.757C345.177 206.064 345.323 206.422 345.38 206.831H344.374C344.298 206.532 344.127 206.268 343.863 206.038C343.602 205.805 343.249 205.689 342.806 205.689C342.414 205.689 342.07 205.791 341.775 205.996C341.482 206.197 341.254 206.483 341.089 206.852C340.927 207.219 340.846 207.649 340.846 208.143C340.846 208.649 340.925 209.089 341.085 209.464C341.246 209.839 341.474 210.131 341.766 210.338C342.062 210.545 342.408 210.649 342.806 210.649C343.067 210.649 343.305 210.604 343.518 210.513C343.731 210.422 343.911 210.291 344.059 210.121C344.207 209.95 344.312 209.746 344.374 209.507H345.38C345.323 209.893 345.183 210.241 344.958 210.551C344.737 210.858 344.442 211.102 344.076 211.284C343.712 211.463 343.289 211.552 342.806 211.552ZM347.856 207.479V211.416H346.85V202.689H347.856V205.893H347.941C348.094 205.555 348.325 205.287 348.631 205.088C348.941 204.886 349.353 204.785 349.867 204.785C350.313 204.785 350.704 204.875 351.039 205.054C351.374 205.23 351.634 205.501 351.819 205.868C352.006 206.231 352.1 206.694 352.1 207.257V211.416H351.094V207.325C351.094 206.805 350.96 206.403 350.69 206.119C350.423 205.832 350.052 205.689 349.577 205.689C349.248 205.689 348.952 205.758 348.691 205.898C348.433 206.037 348.228 206.24 348.077 206.507C347.93 206.774 347.856 207.098 347.856 207.479ZM357.451 211.416V202.689H360.4C361.082 202.689 361.642 202.805 362.079 203.038C362.517 203.268 362.841 203.585 363.051 203.988C363.261 204.392 363.366 204.851 363.366 205.365C363.366 205.879 363.261 206.335 363.051 206.733C362.841 207.131 362.518 207.443 362.083 207.67C361.649 207.895 361.093 208.007 360.417 208.007H358.031V207.052H360.383C360.849 207.052 361.224 206.984 361.508 206.848C361.795 206.711 362.002 206.518 362.13 206.268C362.261 206.015 362.326 205.714 362.326 205.365C362.326 205.015 362.261 204.71 362.13 204.449C362 204.187 361.791 203.986 361.504 203.844C361.217 203.699 360.838 203.626 360.366 203.626H358.508V211.416H357.451ZM361.559 207.496L363.707 211.416H362.48L360.366 207.496H361.559ZM366.917 211.569C366.502 211.569 366.126 211.491 365.788 211.335C365.45 211.176 365.181 210.947 364.982 210.649C364.783 210.348 364.684 209.984 364.684 209.558C364.684 209.183 364.758 208.879 364.906 208.646C365.053 208.41 365.251 208.226 365.498 208.092C365.745 207.959 366.018 207.859 366.316 207.794C366.617 207.726 366.92 207.672 367.224 207.632C367.621 207.581 367.944 207.542 368.191 207.517C368.441 207.488 368.623 207.442 368.737 207.376C368.853 207.311 368.911 207.197 368.911 207.035V207.001C368.911 206.581 368.796 206.254 368.566 206.021C368.339 205.788 367.994 205.672 367.531 205.672C367.05 205.672 366.674 205.777 366.401 205.987C366.129 206.197 365.937 206.422 365.826 206.66L364.871 206.319C365.042 205.922 365.269 205.612 365.553 205.39C365.84 205.166 366.153 205.01 366.491 204.922C366.832 204.831 367.167 204.785 367.496 204.785C367.707 204.785 367.948 204.811 368.221 204.862C368.496 204.91 368.762 205.011 369.018 205.165C369.276 205.318 369.491 205.55 369.661 205.859C369.832 206.169 369.917 206.584 369.917 207.104V211.416H368.911V210.53H368.86C368.792 210.672 368.678 210.824 368.519 210.986C368.36 211.148 368.148 211.285 367.884 211.399C367.62 211.513 367.298 211.569 366.917 211.569ZM367.07 210.666C367.468 210.666 367.803 210.588 368.076 210.432C368.352 210.275 368.559 210.074 368.698 209.827C368.84 209.579 368.911 209.319 368.911 209.047V208.126C368.869 208.177 368.775 208.224 368.63 208.267C368.488 208.307 368.323 208.342 368.136 208.373C367.951 208.402 367.771 208.427 367.594 208.45C367.421 208.47 367.281 208.487 367.173 208.501C366.911 208.535 366.667 208.591 366.44 208.667C366.215 208.741 366.033 208.854 365.894 209.004C365.758 209.152 365.69 209.354 365.69 209.609C365.69 209.959 365.819 210.223 366.077 210.402C366.339 210.578 366.67 210.666 367.07 210.666ZM374.599 204.871V205.723H371.207V204.871H374.599ZM372.196 203.302H373.201V209.541C373.201 209.825 373.243 210.038 373.325 210.18C373.41 210.319 373.518 210.413 373.649 210.461C373.782 210.507 373.923 210.53 374.071 210.53C374.181 210.53 374.272 210.524 374.343 210.513C374.414 210.498 374.471 210.487 374.514 210.479L374.718 211.382C374.65 211.407 374.555 211.433 374.433 211.459C374.311 211.487 374.156 211.501 373.968 211.501C373.684 211.501 373.406 211.44 373.133 211.318C372.863 211.196 372.639 211.01 372.46 210.76C372.284 210.51 372.196 210.194 372.196 209.814V203.302ZM378.786 211.552C378.155 211.552 377.611 211.413 377.154 211.135C376.699 210.854 376.348 210.461 376.101 209.959C375.857 209.453 375.735 208.865 375.735 208.194C375.735 207.524 375.857 206.933 376.101 206.422C376.348 205.907 376.692 205.507 377.132 205.22C377.576 204.93 378.093 204.785 378.684 204.785C379.025 204.785 379.361 204.842 379.694 204.956C380.026 205.069 380.328 205.254 380.601 205.51C380.874 205.763 381.091 206.098 381.253 206.515C381.415 206.933 381.496 207.447 381.496 208.058V208.484H376.451V207.615H380.473C380.473 207.246 380.4 206.916 380.252 206.626C380.107 206.336 379.9 206.108 379.63 205.94C379.363 205.773 379.047 205.689 378.684 205.689C378.283 205.689 377.936 205.788 377.644 205.987C377.354 206.183 377.131 206.439 376.975 206.754C376.819 207.069 376.74 207.407 376.74 207.768V208.348C376.74 208.842 376.826 209.261 376.996 209.605C377.169 209.946 377.409 210.206 377.716 210.385C378.023 210.561 378.38 210.649 378.786 210.649C379.05 210.649 379.289 210.612 379.502 210.538C379.718 210.461 379.904 210.348 380.06 210.197C380.216 210.044 380.337 209.854 380.422 209.626L381.394 209.899C381.292 210.229 381.12 210.518 380.878 210.768C380.637 211.015 380.338 211.209 379.983 211.348C379.628 211.484 379.229 211.552 378.786 211.552Z" fill="black" fill-opacity="0.7"/>
<rect x="398.5" y="205.916" width="16" height="2" fill="#FFAE4C"/>
<circle cx="406.5" cy="206.916" r="3.5" fill="#FFAE4C" stroke="white"/>
<path d="M419.915 211.416H418.807L422.011 202.689H423.102L426.307 211.416H425.199L422.591 204.069H422.523L419.915 211.416ZM420.324 208.007H424.79V208.944H420.324V208.007ZM430.189 211.552C429.575 211.552 429.047 211.407 428.604 211.118C428.161 210.828 427.82 210.429 427.581 209.92C427.342 209.412 427.223 208.831 427.223 208.177C427.223 207.513 427.345 206.926 427.589 206.417C427.837 205.906 428.18 205.507 428.621 205.22C429.064 204.93 429.581 204.785 430.172 204.785C430.632 204.785 431.047 204.871 431.416 205.041C431.786 205.211 432.088 205.45 432.324 205.757C432.56 206.064 432.706 206.422 432.763 206.831H431.757C431.68 206.532 431.51 206.268 431.246 206.038C430.984 205.805 430.632 205.689 430.189 205.689C429.797 205.689 429.453 205.791 429.158 205.996C428.865 206.197 428.636 206.483 428.472 206.852C428.31 207.219 428.229 207.649 428.229 208.143C428.229 208.649 428.308 209.089 428.467 209.464C428.629 209.839 428.857 210.131 429.149 210.338C429.445 210.545 429.791 210.649 430.189 210.649C430.45 210.649 430.688 210.604 430.901 210.513C431.114 210.422 431.294 210.291 431.442 210.121C431.589 209.95 431.695 209.746 431.757 209.507H432.763C432.706 209.893 432.565 210.241 432.341 210.551C432.119 210.858 431.825 211.102 431.459 211.284C431.095 211.463 430.672 211.552 430.189 211.552ZM437.08 204.871V205.723H433.688V204.871H437.08ZM434.676 203.302H435.682V209.541C435.682 209.825 435.723 210.038 435.805 210.18C435.891 210.319 435.999 210.413 436.129 210.461C436.263 210.507 436.403 210.53 436.551 210.53C436.662 210.53 436.753 210.524 436.824 210.513C436.895 210.498 436.952 210.487 436.994 210.479L437.199 211.382C437.131 211.407 437.036 211.433 436.913 211.459C436.791 211.487 436.636 211.501 436.449 211.501C436.165 211.501 435.886 211.44 435.614 211.318C435.344 211.196 435.119 211.01 434.94 210.76C434.764 210.51 434.676 210.194 434.676 209.814V203.302ZM438.592 211.416V204.871H439.598V211.416H438.592ZM439.104 203.78C438.908 203.78 438.739 203.713 438.597 203.579C438.457 203.446 438.388 203.285 438.388 203.098C438.388 202.91 438.457 202.75 438.597 202.616C438.739 202.483 438.908 202.416 439.104 202.416C439.3 202.416 439.467 202.483 439.607 202.616C439.749 202.75 439.82 202.91 439.82 203.098C439.82 203.285 439.749 203.446 439.607 203.579C439.467 203.713 439.3 203.78 439.104 203.78ZM446.792 204.871L444.372 211.416H443.349L440.929 204.871H442.02L443.826 210.086H443.895L445.701 204.871H446.792ZM450.63 211.552C449.999 211.552 449.455 211.413 448.998 211.135C448.543 210.854 448.192 210.461 447.945 209.959C447.701 209.453 447.578 208.865 447.578 208.194C447.578 207.524 447.701 206.933 447.945 206.422C448.192 205.907 448.536 205.507 448.976 205.22C449.419 204.93 449.936 204.785 450.527 204.785C450.868 204.785 451.205 204.842 451.537 204.956C451.87 205.069 452.172 205.254 452.445 205.51C452.718 205.763 452.935 206.098 453.097 206.515C453.259 206.933 453.34 207.447 453.34 208.058V208.484H448.294V207.615H452.317C452.317 207.246 452.243 206.916 452.096 206.626C451.951 206.336 451.743 206.108 451.473 205.94C451.206 205.773 450.891 205.689 450.527 205.689C450.127 205.689 449.78 205.788 449.488 205.987C449.198 206.183 448.975 206.439 448.819 206.754C448.662 207.069 448.584 207.407 448.584 207.768V208.348C448.584 208.842 448.669 209.261 448.84 209.605C449.013 209.946 449.253 210.206 449.56 210.385C449.867 210.561 450.223 210.649 450.63 210.649C450.894 210.649 451.132 210.612 451.346 210.538C451.561 210.461 451.748 210.348 451.904 210.197C452.06 210.044 452.181 209.854 452.266 209.626L453.238 209.899C453.135 210.229 452.963 210.518 452.722 210.768C452.48 211.015 452.182 211.209 451.827 211.348C451.472 211.484 451.073 211.552 450.63 211.552ZM461.722 202.689H462.779V208.927C462.779 209.484 462.676 209.957 462.472 210.346C462.267 210.736 461.979 211.031 461.607 211.233C461.235 211.434 460.796 211.535 460.29 211.535C459.813 211.535 459.388 211.449 459.016 211.275C458.644 211.099 458.351 210.849 458.138 210.525C457.925 210.202 457.819 209.817 457.819 209.371H458.858C458.858 209.618 458.919 209.834 459.042 210.018C459.167 210.2 459.337 210.342 459.553 210.444C459.769 210.547 460.015 210.598 460.29 210.598C460.594 210.598 460.853 210.534 461.066 210.406C461.279 210.278 461.441 210.091 461.551 209.844C461.665 209.594 461.722 209.288 461.722 208.927V202.689ZM467.419 211.552C466.828 211.552 466.31 211.412 465.864 211.131C465.421 210.849 465.074 210.456 464.824 209.95C464.577 209.444 464.453 208.854 464.453 208.177C464.453 207.496 464.577 206.9 464.824 206.392C465.074 205.883 465.421 205.488 465.864 205.207C466.31 204.926 466.828 204.785 467.419 204.785C468.01 204.785 468.527 204.926 468.971 205.207C469.417 205.488 469.763 205.883 470.01 206.392C470.26 206.9 470.385 207.496 470.385 208.177C470.385 208.854 470.26 209.444 470.01 209.95C469.763 210.456 469.417 210.849 468.971 211.131C468.527 211.412 468.01 211.552 467.419 211.552ZM467.419 210.649C467.868 210.649 468.238 210.534 468.527 210.304C468.817 210.074 469.032 209.771 469.171 209.396C469.31 209.021 469.38 208.615 469.38 208.177C469.38 207.74 469.31 207.332 469.171 206.954C469.032 206.577 468.817 206.271 468.527 206.038C468.238 205.805 467.868 205.689 467.419 205.689C466.971 205.689 466.601 205.805 466.311 206.038C466.022 206.271 465.807 206.577 465.668 206.954C465.529 207.332 465.459 207.74 465.459 208.177C465.459 208.615 465.529 209.021 465.668 209.396C465.807 209.771 466.022 210.074 466.311 210.304C466.601 210.534 466.971 210.649 467.419 210.649ZM472.057 211.416V202.689H473.062V205.91H473.148C473.222 205.797 473.324 205.652 473.455 205.476C473.588 205.297 473.778 205.138 474.026 204.998C474.276 204.856 474.614 204.785 475.04 204.785C475.591 204.785 476.077 204.923 476.497 205.199C476.918 205.474 477.246 205.865 477.482 206.371C477.717 206.876 477.835 207.473 477.835 208.16C477.835 208.854 477.717 209.454 477.482 209.963C477.246 210.469 476.919 210.861 476.501 211.139C476.084 211.415 475.602 211.552 475.057 211.552C474.636 211.552 474.3 211.483 474.047 211.344C473.794 211.202 473.599 211.041 473.463 210.862C473.327 210.68 473.222 210.53 473.148 210.41H473.028V211.416H472.057ZM473.045 208.143C473.045 208.638 473.118 209.074 473.263 209.452C473.408 209.827 473.619 210.121 473.898 210.334C474.176 210.544 474.517 210.649 474.92 210.649C475.341 210.649 475.692 210.538 475.973 210.317C476.257 210.092 476.47 209.791 476.612 209.413C476.757 209.032 476.83 208.609 476.83 208.143C476.83 207.683 476.759 207.268 476.616 206.899C476.477 206.527 476.266 206.233 475.982 206.017C475.7 205.798 475.347 205.689 474.92 205.689C474.511 205.689 474.168 205.792 473.889 206C473.611 206.204 473.401 206.491 473.259 206.861C473.116 207.227 473.045 207.655 473.045 208.143ZM484.01 206.336L483.107 206.592C483.05 206.442 482.966 206.295 482.855 206.153C482.747 206.008 482.599 205.889 482.412 205.795C482.224 205.702 481.984 205.655 481.692 205.655C481.291 205.655 480.957 205.747 480.69 205.932C480.426 206.113 480.294 206.345 480.294 206.626C480.294 206.876 480.385 207.074 480.567 207.219C480.749 207.363 481.033 207.484 481.419 207.581L482.391 207.819C482.976 207.961 483.412 208.179 483.699 208.471C483.986 208.761 484.129 209.135 484.129 209.592C484.129 209.967 484.021 210.302 483.805 210.598C483.592 210.893 483.294 211.126 482.911 211.297C482.527 211.467 482.081 211.552 481.572 211.552C480.905 211.552 480.352 211.407 479.915 211.118C479.477 210.828 479.2 210.405 479.084 209.848L480.038 209.609C480.129 209.961 480.301 210.226 480.554 210.402C480.81 210.578 481.143 210.666 481.555 210.666C482.024 210.666 482.396 210.567 482.672 210.368C482.95 210.166 483.089 209.925 483.089 209.643C483.089 209.416 483.01 209.226 482.851 209.072C482.692 208.916 482.447 208.8 482.118 208.723L481.027 208.467C480.428 208.325 479.987 208.105 479.706 207.807C479.428 207.506 479.288 207.129 479.288 206.677C479.288 206.308 479.392 205.981 479.599 205.697C479.81 205.413 480.095 205.19 480.456 205.028C480.82 204.866 481.232 204.785 481.692 204.785C482.339 204.785 482.848 204.927 483.217 205.211C483.589 205.496 483.854 205.871 484.01 206.336Z" fill="black" fill-opacity="0.7"/>
</g>
</g>
<defs>
<clipPath id="clip0_3384_7085">
<rect width="566" height="24" fill="white" transform="translate(8 194.916)"/>
</clipPath>
<clipPath id="clip1_3384_7085">
<rect width="413" height="24" fill="white" transform="translate(84.5 194.916)"/>
</clipPath>
</defs>
</svg>
